 0
SECTION
 2
ENTITIES
  0
LINE
 8
Layer0
10
98.99519052838227
20
-14.249999999999991
30
0.0
11
97.80330085889784
21
-15.803300858899101
31
0.0
  0
LINE
 8
Layer0
10
99.74444369716684
20
-8.55885716173108
30
0.0
11
99.99999999999878
21
-10.499999999999993
31
0.0
  0
LINE
 8
Layer0
10
58.43504571603367
20
-52.17341336116497
30
0.0
11
58.82842712474524
21
-51.828427124746234
31
0.0
  0
LINE
 8
Layer0
10
97.80330085889784
20
-15.803300858899101
30
0.0
11
58.82842712474524
21
-51.828427124746234
31
0.0
  0
LINE
 8
Layer0
10
-1.2432527229933042e-12
20
-3.0
30
0.0
11
-1.2432527229933042e-12
21
-7.000000000000001
31
0.0
  0
LINE
 8
Layer0
10
98.99519052838227
20
-6.749999999999992
30
0.0
11
99.74444369716684
21
-8.55885716173108
31
0.0
  0
LINE
 8
Layer0
10
92.49999999999883
20
-3.0
30
0.0
11
94.44114283826774
21
-3.2555563028319856
31
0.0
  0
LINE
 8
Layer0
10
96.249999999999
20
-4.004809471616705
30
0.0
11
97.80330085889784
21
-5.196699141100886
31
0.0
  0
LINE
 8
Layer0
10
56.52210476887896
20
-52.965779445495265
30
0.0
11
57.03527618040886
21
-52.863703305156314
31
0.0
  0
LINE
 8
Layer0
10
92.49999999999883
20
-3.0
30
0.0
11
35.99999999999882
21
-3.0
31
0.0
  0
LINE
 8
Layer0
10
97.80330085889784
20
-5.196699141100886
30
0.0
11
98.99519052838227
21
-6.749999999999992
31
0.0
  0
LINE
 8
Layer0
10
99.74444369716684
20
-12.441142838268894
30
0.0
11
98.99519052838227
21
-14.249999999999991
31
0.0
  0
LINE
 8
Layer0
10
55.99999999999872
20
-53.00000000000001
30
0.0
11
56.52210476887896
21
-52.965779445495265
31
0.0
  0
LINE
 8
Layer0
10
99.99999999999878
20
-10.499999999999993
30
0.0
11
99.74444369716684
21
-12.441142838268894
31
0.0
  0
LINE
 8
Layer0
10
55.99999999999872
20
-53.00000000000001
30
0.0
11
50.99999999999878
21
-53.00000000000001
31
0.0
  0
LINE
 8
Layer0
10
94.44114283826774
20
-3.2555563028319856
30
0.0
11
96.249999999999
21
-4.004809471616705
31
0.0
  0
LINE
 8
Layer0
10
57.03527618040886
20
-52.863703305156314
30
0.0
11
57.53073372945916
21
-52.69551813004516
31
0.0
  0
LINE
 8
Layer0
10
57.53073372945916
20
-52.69551813004516
30
0.0
11
57.999999999998785
21
-52.46410161513776
31
0.0
  0
LINE
 8
Layer0
10
57.999999999998785
20
-52.46410161513776
30
0.0
11
58.43504571603367
21
-52.17341336116497
31
0.0
  0
LINE
 8
Layer0
10
30.499999999998884
20
-49.0
30
0.0
11
50.99999999999878
21
-49.0
31
0.0
  0
LINE
 8
Layer0
10
-35.99999999999999
20
-48.999999999999964
30
0.0
11
-36.000000000000014
21
-44.0
31
0.0
  0
LINE
 8
Layer0
10
-36.000000000000014
20
-44.0
30
0.0
11
-39.999999999999986
21
-43.99999999999998
31
0.0
  0
LINE
 8
Layer0
10
-39.999999999999986
20
-43.99999999999998
30
0.0
11
-40.00000000000001
21
-23.499999999999996
31
0.0
  0
LINE
 8
Layer0
10
50.99999999999878
20
-49.0
30
0.0
11
50.99999999999878
21
-53.00000000000001
31
0.0
  0
LINE
 8
Layer0
10
-7.000000000000001
20
2.0000000000000147
30
0.0
11
-10.999999999999936
21
2.000000000000009
31
0.0
  0
LINE
 8
Layer0
10
-4.000000000001193
20
-25.499999999999993
30
0.0
11
-1.2432527229933042e-12
21
-25.499999999999993
31
0.0
  0
LINE
 8
Layer0
10
-39.999999999999915
20
-18.499999999999925
30
0.0
11
-39.999999999999936
21
2.0000000000000653
31
0.0
  0
LINE
 8
Layer0
10
-30.000000000000046
20
-53.00000000000005
30
0.0
11
-16.999999999999957
21
-53.00000000000001
31
0.0
  0
LINE
 8
Layer0
10
-39.999999999999936
20
2.0000000000000653
30
0.0
11
-35.99999999999994
21
2.0000000000000258
31
0.0
  0
LINE
 8
Layer0
10
-29.99999999999998
20
-39.00000000000002
30
0.0
11
-29.999999999999957
21
-15.999999999999964
31
0.0
  0
LINE
 8
Layer0
10
-17.000000000000025
20
-49.000000000000014
30
0.0
11
-10.99999999999998
21
-49.000000000000036
31
0.0
  0
LINE
 8
Layer0
10
4.999999999998919
20
-53.00000000000001
30
0.0
11
-1.2432527229933042e-12
21
-53.00000000000001
31
0.0
  0
LINE
 8
Layer0
10
-1.2432527229933042e-12
20
-30.500000000000007
30
0.0
11
-4.000000000001193
21
-30.500000000000007
31
0.0
  0
LINE
 8
Layer0
10
-7.000000000000024
20
-44.0
30
0.0
11
-7.000000000000001
21
-23.500000000000007
31
0.0
  0
LINE
 8
Layer0
10
4.999999999998919
20
-53.00000000000001
30
0.0
11
4.999999999998919
21
-49.0
31
0.0
  0
LINE
 8
Layer0
10
-35.99999999999994
20
-23.499999999999986
30
0.0
11
-35.99999999999994
21
-18.499999999999925
31
0.0
  0
LINE
 8
Layer0
10
-11.00000000000005
20
-44.00000000000004
30
0.0
11
-7.000000000000024
21
-44.0
31
0.0
  0
LINE
 8
Layer0
10
15.150358605566907
20
73.0000000000001
30
0.0
11
19.15035860556685
21
72.99999999999987
31
0.0
  0
LINE
 8
Layer0
10
-4.000000000001193
20
-7.000000000000001
30
0.0
11
-4.000000000001193
21
-25.499999999999993
31
0.0
  0
LINE
 8
Layer0
10
-35.99999999999999
20
-48.999999999999964
30
0.0
11
-30.000000000000025
21
-49.000000000000036
31
0.0
  0
LINE
 8
Layer0
10
19.15035860556685
20
85.99999999999994
30
0.0
11
15.150358605566772
21
86.00000000000006
31
0.0
  0
LINE
 8
Layer0
10
-16.999999999999957
20
-53.00000000000001
30
0.0
11
-17.000000000000025
21
-49.000000000000014
31
0.0
  0
LINE
 8
Layer0
10
35.99999999999882
20
-3.0
30
0.0
11
35.99999999999882
21
-7.000000000000001
31
0.0
  0
LINE
 8
Layer0
10
5.150358605567275
20
62.999999999999716
30
0.0
11
5.15035860556696
21
67.00000000000004
31
0.0
  0
LINE
 8
Layer0
10
9.999999999998808
20
-3.0
30
0.0
11
-1.2432527229933042e-12
21
-3.0
31
0.0
  0
LINE
 8
Layer0
10
15.150358605567178
20
92.00000000000004
30
0.0
11
5.15035860556723
21
91.99999999999997
31
0.0
  0
LINE
 8
Layer0
10
54.999999999999
20
-25.499999999999993
30
0.0
11
50.99999999999878
21
-25.499999999999993
31
0.0
  0
LINE
 8
Layer0
10
-11.000000000000094
20
-18.499999999999982
30
0.0
11
-7.000000000000046
21
-18.499999999999993
31
0.0
  0
LINE
 8
Layer0
10
-29.999999999999957
20
-15.999999999999964
30
0.0
11
-17.000000000000004
21
-15.999999999999977
31
0.0
  0
LINE
 8
Layer0
10
19.15035860556685
20
72.99999999999987
30
0.0
11
19.15035860556685
21
85.99999999999994
31
0.0
  0
LINE
 8
Layer0
10
30.499999999998884
20
-53.00000000000001
30
0.0
11
25.49999999999881
21
-53.00000000000001
31
0.0
  0
LINE
 8
Layer0
10
30.499999999998884
20
-53.00000000000001
30
0.0
11
30.499999999998884
21
-49.0
31
0.0
  0
LINE
 8
Layer0
10
5.15035860556723
20
95.99999999999994
30
0.0
11
-20.849641394432922
21
95.99999999999989
31
0.0
  0
LINE
 8
Layer0
10
15.150358605567178
20
67.00000000000006
30
0.0
11
15.150358605566907
21
73.0000000000001
31
0.0
  0
LINE
 8
Layer0
10
-20.849641394432922
20
95.99999999999989
30
0.0
11
-20.84964139443281
21
91.99999999999991
31
0.0
  0
LINE
 8
Layer0
10
54.999999999999
20
-30.500000000000007
30
0.0
11
50.99999999999878
21
-30.500000000000007
31
0.0
  0
LINE
 8
Layer0
10
15.150358605566772
20
86.00000000000006
30
0.0
11
15.150358605567178
21
92.00000000000004
31
0.0
  0
LINE
 8
Layer0
10
54.999999999999
20
-43.000000000000014
30
0.0
11
54.999999999999
21
-30.500000000000007
31
0.0
  0
LINE
 8
Layer0
10
54.999999999999
20
-7.000000000000001
30
0.0
11
54.999999999999
21
-25.499999999999993
31
0.0
  0
LINE
 8
Layer0
10
-40.00000000000001
20
-23.499999999999996
30
0.0
11
-35.99999999999994
21
-23.499999999999986
31
0.0
  0
LINE
 8
Layer0
10
9.999999999998808
20
-7.000000000000001
30
0.0
11
9.999999999998808
21
-3.0
31
0.0
  0
LINE
 8
Layer0
10
25.49999999999881
20
-49.0
30
0.0
11
25.49999999999881
21
-53.00000000000001
31
0.0
  0
LINE
 8
Layer0
10
5.15035860556723
20
91.99999999999997
30
0.0
11
5.15035860556723
21
95.99999999999994
31
0.0
  0
LINE
 8
Layer0
10
-7.000000000000046
20
-18.499999999999993
30
0.0
11
-7.000000000000001
21
2.0000000000000147
31
0.0
  0
LINE
 8
Layer0
10
-16.999999999999957
20
-39.00000000000005
30
0.0
11
-29.99999999999998
21
-39.00000000000002
31
0.0
  0
LINE
 8
Layer0
10
-20.84964139443281
20
91.99999999999991
30
0.0
11
-39.84964139443288
21
92.00000000000001
31
0.0
  0
LINE
 8
Layer0
10
-39.849641394432844
20
66.99999999999986
30
0.0
11
-20.849641394432943
21
66.99999999999997
31
0.0
  0
LINE
 8
Layer0
10
-20.849641394432943
20
66.99999999999997
30
0.0
11
-20.849641394433057
21
62.99999999999992
31
0.0
  0
LINE
 8
Layer0
10
-4.000000000001193
20
-30.500000000000007
30
0.0
11
-4.000000000001193
21
-49.0
31
0.0
  0
LINE
 8
Layer0
10
-11.000000000000027
20
-23.500000000000007
30
0.0
11
-11.000000000000094
21
-18.499999999999982
31
0.0
  0
LINE
 8
Layer0
10
4.999999999998919
20
-49.0
30
0.0
11
25.49999999999881
21
-49.0
31
0.0
  0
LINE
 8
Layer0
10
-1.2432527229933042e-12
20
-25.499999999999993
30
0.0
11
-1.2432527229933042e-12
21
-30.500000000000007
31
0.0
  0
LINE
 8
Layer0
10
-35.99999999999994
20
-18.499999999999925
30
0.0
11
-39.999999999999915
21
-18.499999999999925
31
0.0
  0
LINE
 8
Layer0
10
-17.000000000000004
20
-15.999999999999977
30
0.0
11
-16.999999999999957
21
-39.00000000000005
31
0.0
  0
LINE
 8
Layer0
10
50.99999999999878
20
-25.499999999999993
30
0.0
11
50.99999999999878
21
-7.000000000000001
31
0.0
  0
LINE
 8
Layer0
10
50.99999999999878
20
-30.500000000000007
30
0.0
11
50.99999999999878
21
-43.000000000000014
31
0.0
  0
LINE
 8
Layer0
10
-10.99999999999998
20
-49.000000000000036
30
0.0
11
-11.00000000000005
21
-44.00000000000004
31
0.0
  0
LINE
 8
Layer0
10
-7.000000000000001
20
-23.500000000000007
30
0.0
11
-11.000000000000027
21
-23.500000000000007
31
0.0
  0
LINE
 8
Layer0
10
-30.000000000000025
20
-49.000000000000036
30
0.0
11
-30.000000000000046
21
-53.00000000000005
31
0.0
  0
LINE
 8
Layer0
10
35.99999999999882
20
-7.000000000000001
30
0.0
11
9.999999999998808
21
-7.000000000000001
31
0.0
  0
LINE
 8
Layer0
10
50.99999999999878
20
-43.000000000000014
30
0.0
11
54.999999999999
21
-43.000000000000014
31
0.0
  0
LINE
 8
Layer0
10
5.15035860556696
20
67.00000000000004
30
0.0
11
15.150358605567178
21
67.00000000000006
31
0.0
  0
LINE
 8
Layer0
10
26.15035860556692
20
89.00000000000006
30
0.0
11
44.65035860556673
21
89.00000000000011
31
0.0
  0
LINE
 8
Layer0
10
-16.00000000000047
20
54.999999999999886
30
0.0
11
-16.00000000000045
21
58.99999999999989
31
0.0
  0
LINE
 8
Layer0
10
44.65035860556682
20
84.99999999999984
30
0.0
11
26.15035860556683
21
85.00000000000003
31
0.0
  0
LINE
 8
Layer0
10
68.15035860556681
20
78.99999999999999
30
0.0
11
68.15035860556662
21
65.99999999999983
31
0.0
  0
LINE
 8
Layer0
10
50.99999999999878
20
-7.000000000000001
30
0.0
11
54.999999999999
21
-7.000000000000001
31
0.0
  0
LINE
 8
Layer0
10
-35.849641394432865
20
71.99999999999983
30
0.0
11
-35.84964139443277
21
87.0000000000001
31
0.0
  0
LINE
 8
Layer0
10
44.65035860556682
20
56.00000000000002
30
0.0
11
44.65035860556669
21
59.999999999999936
31
0.0
  0
LINE
 8
Layer0
10
-36.000000000000554
20
9.00000000000008
30
0.0
11
-30.00000000000044
21
9.000000000000012
31
0.0
  0
LINE
 8
Layer0
10
-17.00000000000039
20
9.0
30
0.0
11
-11.000000000000465
21
9.000000000000012
31
0.0
  0
LINE
 8
Layer0
10
26.15035860556665
20
65.99999999999982
30
0.0
11
26.15035860556665
21
79.00000000000003
31
0.0
  0
LINE
 8
Layer0
10
49.650358605566645
20
84.99999999999984
30
0.0
11
49.65035860556682
21
89.00000000000011
31
0.0
  0
LINE
 8
Layer0
10
26.150358605566378
20
59.999999999999915
30
0.0
11
26.15035860556647
21
55.99999999999993
31
0.0
  0
LINE
 8
Layer0
10
-40.00000000000062
20
54.999999999999844
30
0.0
11
-40.000000000000504
21
36.499999999999964
31
0.0
  0
LINE
 8
Layer0
10
-7.0000000000005045
20
54.999999999999886
30
0.0
11
-16.00000000000047
21
54.999999999999886
31
0.0
  0
LINE
 8
Layer0
10
68.15035860556658
20
59.99999999999999
30
0.0
11
49.650358605566865
21
59.99999999999997
31
0.0
  0
LINE
 8
Layer0
10
-31.00000000000052
20
54.999999999999844
30
0.0
11
-40.00000000000062
21
54.999999999999844
31
0.0
  0
LINE
 8
Layer0
10
-1.2432527229933042e-12
20
-49.0
30
0.0
11
-1.2432527229933042e-12
21
-53.00000000000001
31
0.0
  0
LINE
 8
Layer0
10
49.65035860556682
20
89.00000000000011
30
0.0
11
68.15035860556691
21
89.00000000000006
31
0.0
  0
LINE
 8
Layer0
10
72.15035860556682
20
79.00000000000003
30
0.0
11
68.15035860556681
21
78.99999999999999
31
0.0
  0
LINE
 8
Layer0
10
44.65035860556669
20
59.999999999999936
30
0.0
11
26.150358605566378
21
59.999999999999915
31
0.0
  0
LINE
 8
Layer0
10
68.15035860556658
20
59.99999999999999
30
0.0
11
68.15035860556654
21
55.99999999999983
31
0.0
  0
LINE
 8
Layer0
10
-39.84964139443281
20
71.9999999999999
30
0.0
11
-35.849641394432865
21
71.99999999999983
31
0.0
  0
LINE
 8
Layer0
10
-11.000000000000458
20
31.50000000000002
30
0.0
11
-11.00000000000039
21
36.49999999999999
31
0.0
  0
LINE
 8
Layer0
10
-7.000000000000482
20
36.49999999999999
30
0.0
11
-7.0000000000005045
21
54.999999999999886
31
0.0
  0
LINE
 8
Layer0
10
-17.00000000000039
20
9.0
30
0.0
11
-17.00000000000025
21
13.000000000000073
31
0.0
  0
LINE
 8
Layer0
10
-29.999999999999957
20
1.9999999999999978
30
0.0
11
-35.99999999999994
21
2.0000000000000258
31
0.0
  0
LINE
 8
Layer0
10
-39.84964139443281
20
71.9999999999999
30
0.0
11
-39.849641394432844
21
66.99999999999986
31
0.0
  0
LINE
 8
Layer0
10
49.650358605566865
20
59.99999999999997
30
0.0
11
49.65035860556682
21
55.9999999999999
31
0.0
  0
LINE
 8
Layer0
10
-35.84964139443277
20
87.0000000000001
30
0.0
11
-39.8496413944329
21
86.99999999999997
31
0.0
  0
LINE
 8
Layer0
10
5.380779241172331
20
-11.633776866014042
30
0.0
11
5.755483243809312
21
-11.520063664902265
31
0.0
  0
LINE
 8
Layer0
10
-7.000000000000555
20
19.00000000000004
30
0.0
11
-7.000000000000533
21
31.500000000000068
31
0.0
  0
LINE
 8
Layer0
10
-36.00000000000054
20
18.99999999999997
30
0.0
11
-36.000000000000554
21
9.00000000000008
31
0.0
  0
LINE
 8
Layer0
10
5.755483243809312
20
-11.520063664902265
30
0.0
11
5.9999999999988205
21
-11.512030311071488
31
0.0
  0
LINE
 8
Layer0
10
68.15035860556691
20
84.9999999999998
30
0.0
11
49.650358605566645
21
84.99999999999984
31
0.0
  0
LINE
 8
Layer0
10
-7.000000000000533
20
31.500000000000068
30
0.0
11
-11.000000000000458
21
31.50000000000002
31
0.0
  0
LINE
 8
Layer0
10
-36.0000000000006
20
36.49999999999992
30
0.0
11
-36.00000000000052
21
31.50000000000002
31
0.0
  0
LINE
 8
Layer0
10
-17.000000000000004
20
6.000000000000013
30
0.0
11
-29.99999999999998
21
6.000000000000013
31
0.0
  0
LINE
 8
Layer0
10
44.65035860556673
20
89.00000000000011
30
0.0
11
44.65035860556682
21
84.99999999999984
31
0.0
  0
LINE
 8
Layer0
10
-40.000000000000526
20
18.999999999999925
30
0.0
11
-36.00000000000054
21
18.99999999999997
31
0.0
  0
LINE
 8
Layer0
10
-1.2432527229933042e-12
20
-7.000000000000001
30
0.0
11
-4.000000000001193
21
-7.000000000000001
31
0.0
  0
LINE
 8
Layer0
10
6.146850659297532
20
-11.50720567931696
30
0.0
11
6.528210445036722
21
-11.59607915972696
31
0.0
  0
LINE
 8
Layer0
10
-4.000000000001193
20
-49.0
30
0.0
11
-1.2432527229933042e-12
21
-49.0
31
0.0
  0
LINE
 8
Layer0
10
6.528210445036722
20
-11.59607915972696
30
0.0
11
6.8735735618555305
21
-11.780627525312662
31
0.0
  0
LINE
 8
Layer0
10
49.65035860556682
20
55.9999999999999
30
0.0
11
44.65035860556682
21
56.00000000000002
31
0.0
  0
LINE
 8
Layer0
10
-11.000000000000473
20
19.000000000000014
30
0.0
11
-7.000000000000555
21
19.00000000000004
31
0.0
  0
LINE
 8
Layer0
10
26.15035860556665
20
79.00000000000003
30
0.0
11
22.15035860556676
21
78.99999999999993
31
0.0
  0
LINE
 8
Layer0
10
-40.000000000000526
20
31.499999999999954
30
0.0
11
-40.000000000000526
21
18.999999999999925
31
0.0
  0
LINE
 8
Layer0
10
-16.00000000000045
20
58.99999999999989
30
0.0
11
-31.000000000000586
21
58.999999999999844
31
0.0
  0
LINE
 8
Layer0
10
-31.000000000000586
20
58.999999999999844
30
0.0
11
-31.00000000000052
21
54.999999999999844
31
0.0
  0
LINE
 8
Layer0
10
26.15035860556647
20
55.99999999999993
30
0.0
11
22.15035860556685
21
55.99999999999987
31
0.0
  0
LINE
 8
Layer0
10
-20.849641394433057
20
62.99999999999992
30
0.0
11
5.150358605567275
21
62.999999999999716
31
0.0
  0
LINE
 8
Layer0
10
-40.000000000000504
20
36.499999999999964
30
0.0
11
-36.0000000000006
21
36.49999999999992
31
0.0
  0
LINE
 8
Layer0
10
-36.00000000000052
20
31.50000000000002
30
0.0
11
-40.000000000000526
21
31.499999999999954
31
0.0
  0
LINE
 8
Layer0
10
-11.000000000000465
20
9.000000000000012
30
0.0
11
-11.000000000000473
21
19.000000000000014
31
0.0
  0
LINE
 8
Layer0
10
-17.00000000000025
20
13.000000000000073
30
0.0
11
-30.000000000000476
21
12.999999999999982
31
0.0
  0
LINE
 8
Layer0
10
22.150358605566737
20
65.9999999999999
30
0.0
11
26.15035860556665
21
65.99999999999982
31
0.0
  0
LINE
 8
Layer0
10
-30.000000000000476
20
12.999999999999982
30
0.0
11
-30.00000000000044
21
9.000000000000012
31
0.0
  0
LINE
 8
Layer0
10
68.15035860556662
20
65.99999999999983
30
0.0
11
72.15035860556682
21
65.99999999999999
31
0.0
  0
LINE
 8
Layer0
10
-17.000000000000004
20
6.000000000000013
30
0.0
11
-16.999999999999844
21
2.0000000000000937
31
0.0
  0
LINE
 8
Layer0
10
-29.999999999999957
20
1.9999999999999978
30
0.0
11
-29.99999999999998
21
6.000000000000013
31
0.0
  0
LINE
 8
Layer0
10
85.15035860556694
20
55.999999999999886
30
0.0
11
68.15035860556654
21
55.99999999999983
31
0.0
  0
LINE
 8
Layer0
10
-16.999999999999844
20
2.0000000000000937
30
0.0
11
-10.999999999999936
21
2.000000000000009
31
0.0
  0
LINE
 8
Layer0
10
-39.84964139443288
20
92.00000000000001
30
0.0
11
-39.8496413944329
21
86.99999999999997
31
0.0
  0
LINE
 8
Layer0
10
-11.00000000000039
20
36.49999999999999
30
0.0
11
-7.000000000000482
21
36.49999999999999
31
0.0
  0
LINE
 8
Layer0
10
7.366223133984684
20
-12.380779241173585
30
0.0
11
7.479936335096554
21
-12.755483243810462
31
0.0
  0
LINE
 8
Layer0
10
7.15940408408245
20
-12.048274109940019
30
0.0
11
7.366223133984684
21
-12.380779241173585
31
0.0
  0
LINE
 8
Layer0
10
7.403920840271973
20
-13.528210445037784
30
0.0
11
7.2193724746862715
21
-13.87357356185663
31
0.0
  0
LINE
 8
Layer0
10
21.551111260565257
20
-12.611771432346234
30
0.0
11
21.700961894322152
21
-12.250000000000014
31
0.0
  0
LINE
 8
Layer0
10
22.61177143234506
20
-14.448888739433613
30
0.0
11
22.24999999999891
21
-14.299038105676665
31
0.0
  0
LINE
 8
Layer0
10
5.126426438142248
20
-14.219372474687367
30
0.0
11
4.840595915915326
21
-13.951725890059997
31
0.0
  0
LINE
 8
Layer0
10
24.299038105675553
20
-13.750000000000023
30
0.0
11
24.060660171778757
21
-14.060660171779833
31
0.0
  0
LINE
 8
Layer0
10
23.38822856765266
20
-14.448888739433613
30
0.0
11
22.99999999999886
21
-14.500000000000012
31
0.0
  0
LINE
 8
Layer0
10
5.47178955496104
20
-14.403920840273074
30
0.0
11
5.126426438142248
21
-14.219372474687367
31
0.0
  0
LINE
 8
Layer0
10
7.2193724746862715
20
-13.87357356185663
30
0.0
11
6.951725890058798
21
-14.159404084083517
31
0.0
  0
LINE
 8
Layer0
10
6.8735735618555305
20
-11.780627525312662
30
0.0
11
7.15940408408245
21
-12.048274109940019
31
0.0
  0
LINE
 8
Layer0
10
22.99999999999886
20
-11.500000000000004
30
0.0
11
23.38822856765266
21
-11.551111260566405
31
0.0
  0
LINE
 8
Layer0
10
23.38822856765266
20
-11.551111260566405
30
0.0
11
23.749999999998913
21
-11.70096189432335
31
0.0
  0
LINE
 8
Layer0
10
4.633776866012807
20
-13.61922075882644
30
0.0
11
4.520063664901069
21
-13.244516756189556
31
0.0
  0
LINE
 8
Layer0
10
4.596079159725653
20
-12.471789554962266
30
0.0
11
4.780627525311411
21
-12.126426438143389
31
0.0
  0
LINE
 8
Layer0
10
24.499999999998682
20
-13.000000000000012
30
0.0
11
24.448888739432494
21
-13.388228567653792
31
0.0
  0
LINE
 8
Layer0
10
4.50720567931574
20
-12.853149340701389
30
0.0
11
4.596079159725653
21
-12.471789554962266
31
0.0
  0
LINE
 8
Layer0
10
24.448888739432494
20
-13.388228567653792
30
0.0
11
24.299038105675553
21
-13.750000000000023
31
0.0
  0
LINE
 8
Layer0
10
24.060660171778757
20
-11.939339828220195
30
0.0
11
24.299038105675553
21
-12.250000000000014
31
0.0
  0
LINE
 8
Layer0
10
24.299038105675553
20
-12.250000000000014
30
0.0
11
24.448888739432494
21
-12.611771432346234
31
0.0
  0
LINE
 8
Layer0
10
24.448888739432494
20
-12.611771432346234
30
0.0
11
24.499999999998682
21
-13.000000000000012
31
0.0
  0
LINE
 8
Layer0
10
-22.999999999999993
20
-41.00000000000003
30
0.0
11
-23.017037086855495
21
-40.87059047744881
31
0.0
  0
LINE
 8
Layer0
10
-23.017037086855495
20
-40.87059047744881
30
0.0
11
-23.06698729810773
21
-40.750000000000064
31
0.0
  0
LINE
 8
Layer0
10
-23.146446609406695
20
-40.64644660940674
30
0.0
11
-23.249999999999957
21
-40.56698729810785
31
0.0
  0
LINE
 8
Layer0
10
21.700961894322152
20
-12.250000000000014
30
0.0
11
21.939339828219058
21
-11.939339828220195
31
0.0
  0
LINE
 8
Layer0
10
4.780627525311411
20
-12.126426438143389
30
0.0
11
5.048274109938979
21
-11.840595915916497
31
0.0
  0
LINE
 8
Layer0
10
22.99999999999886
20
-14.500000000000012
30
0.0
11
22.61177143234506
21
-14.448888739433613
31
0.0
  0
LINE
 8
Layer0
10
21.939339828219058
20
-14.060660171779833
30
0.0
11
21.700961894322152
21
-13.750000000000023
31
0.0
  0
LINE
 8
Layer0
10
-23.629409522551228
20
-40.517037086855495
30
0.0
11
-23.74999999999995
21
-40.5669872981078
31
0.0
  0
LINE
 8
Layer0
10
24.060660171778757
20
-14.060660171779833
30
0.0
11
23.749999999998913
21
-14.299038105676665
31
0.0
  0
LINE
 8
Layer0
10
-23.499999999999968
20
-40.500000000000064
30
0.0
11
-23.629409522551228
21
-40.517037086855495
31
0.0
  0
LINE
 8
Layer0
10
-23.933012701892178
20
-40.750000000000036
30
0.0
11
-23.982962913144526
21
-40.87059047744878
31
0.0
  0
LINE
 8
Layer0
10
-23.982962913144526
20
-41.12940952255127
30
0.0
11
-23.933012701892178
21
-41.25000000000011
31
0.0
  0
LINE
 8
Layer0
10
-23.933012701892178
20
-41.25000000000011
30
0.0
11
-23.853553390593238
21
-41.35355339059335
31
0.0
  0
LINE
 8
Layer0
10
-23.853553390593238
20
-41.35355339059335
30
0.0
11
-23.749999999999975
21
-41.43301270189229
31
0.0
  0
LINE
 8
Layer0
10
-23.629409522551253
20
-41.48296291314463
30
0.0
11
-23.49999999999999
21
-41.50000000000007
31
0.0
  0
LINE
 8
Layer0
10
5.853149340700241
20
-14.492794320683073
30
0.0
11
5.47178955496104
21
-14.403920840273074
31
0.0
  0
LINE
 8
Layer0
10
-23.49999999999999
20
-41.50000000000007
30
0.0
11
-23.370590477448722
21
-41.48296291314463
31
0.0
  0
LINE
 8
Layer0
10
7.492794320682057
20
-13.146850659298623
30
0.0
11
7.403920840271973
21
-13.528210445037784
31
0.0
  0
LINE
 8
Layer0
10
21.499999999998856
20
-13.000000000000012
30
0.0
11
21.551111260565257
21
-12.611771432346234
31
0.0
  0
LINE
 8
Layer0
10
6.951725890058798
20
-14.159404084083517
30
0.0
11
6.61922075882535
21
-14.366223133985953
31
0.0
  0
LINE
 8
Layer0
10
-23.06698729810773
20
-40.750000000000064
30
0.0
11
-23.146446609406695
21
-40.64644660940674
31
0.0
  0
LINE
 8
Layer0
10
-23.370590477448722
20
-41.48296291314463
30
0.0
11
-23.24999999999998
21
-41.43301270189227
31
0.0
  0
LINE
 8
Layer0
10
23.749999999998913
20
-14.299038105676665
30
0.0
11
23.38822856765266
21
-14.448888739433613
31
0.0
  0
LINE
 8
Layer0
10
21.700961894322152
20
-13.750000000000023
30
0.0
11
21.551111260565257
21
-13.388228567653792
31
0.0
  0
LINE
 8
Layer0
10
6.61922075882535
20
-14.366223133985953
30
0.0
11
6.244516756188448
21
-14.479936335097765
31
0.0
  0
LINE
 8
Layer0
10
7.479936335096554
20
-12.755483243810462
30
0.0
11
7.487969688927241
21
-13.000000000000012
31
0.0
  0
LINE
 8
Layer0
10
-23.999999999999986
20
-41.00000000000003
30
0.0
11
-23.982962913144526
21
-41.12940952255127
31
0.0
  0
LINE
 8
Layer0
10
21.551111260565257
20
-13.388228567653792
30
0.0
11
21.499999999998856
21
-13.000000000000012
31
0.0
  0
LINE
 8
Layer0
10
6.244516756188448
20
-14.479936335097765
30
0.0
11
5.9999999999988205
21
-14.487969688928512
31
0.0
  0
LINE
 8
Layer0
10
-23.982962913144526
20
-40.87059047744878
30
0.0
11
-23.999999999999986
21
-41.00000000000003
31
0.0
  0
LINE
 8
Layer0
10
-23.370590477448747
20
-40.517037086855495
30
0.0
11
-23.499999999999968
21
-40.500000000000064
31
0.0
  0
LINE
 8
Layer0
10
21.939339828219058
20
-11.939339828220195
30
0.0
11
22.24999999999891
21
-11.70096189432335
31
0.0
  0
LINE
 8
Layer0
10
4.520063664901069
20
-13.244516756189556
30
0.0
11
4.512030311070256
21
-13.000000000000012
31
0.0
  0
LINE
 8
Layer0
10
23.749999999998913
20
-11.70096189432335
30
0.0
11
24.060660171778757
21
-11.939339828220195
31
0.0
  0
LINE
 8
Layer0
10
-23.249999999999957
20
-40.56698729810785
30
0.0
11
-23.370590477448747
21
-40.517037086855495
31
0.0
  0
LINE
 8
Layer0
10
4.840595915915326
20
-13.951725890059997
30
0.0
11
4.633776866012807
21
-13.61922075882644
31
0.0
  0
LINE
 8
Layer0
10
22.24999999999891
20
-11.70096189432335
30
0.0
11
22.61177143234506
21
-11.551111260566405
31
0.0
  0
LINE
 8
Layer0
10
22.24999999999891
20
-14.299038105676665
30
0.0
11
21.939339828219058
21
-14.060660171779833
31
0.0
  0
LINE
 8
Layer0
10
-23.74999999999995
20
-40.5669872981078
30
0.0
11
-23.853553390593216
21
-40.646446609406766
31
0.0
  0
LINE
 8
Layer0
10
-23.853553390593216
20
-40.646446609406766
30
0.0
11
-23.933012701892178
21
-40.750000000000036
31
0.0
  0
LINE
 8
Layer0
10
-23.749999999999975
20
-41.43301270189229
30
0.0
11
-23.629409522551253
21
-41.48296291314463
31
0.0
  0
LINE
 8
Layer0
10
22.61177143234506
20
-11.551111260566405
30
0.0
11
22.99999999999886
21
-11.500000000000004
31
0.0
  0
LINE
 8
Layer0
10
5.048274109938979
20
-11.840595915916497
30
0.0
11
5.380779241172331
21
-11.633776866014042
31
0.0
  0
LINE
 8
Layer0
10
-23.3705904774487
20
-14.482962913144489
30
0.0
11
-23.249999999999957
21
-14.433012701892151
31
0.0
  0
LINE
 8
Layer0
10
36.71734590367441
20
64.74999999999976
30
0.0
11
36.667395692422126
21
64.62940952255103
31
0.0
  0
LINE
 8
Layer0
10
36.667395692422126
20
64.62940952255103
30
0.0
11
36.65035860556676
21
64.49999999999986
31
0.0
  0
LINE
 8
Layer0
10
37.150358605566744
20
91.99999999999983
30
0.0
11
37.279768128117965
21
92.01703708685528
31
0.0
  0
LINE
 8
Layer0
10
37.279768128117965
20
92.01703708685528
30
0.0
11
37.40035860556678
21
92.0669872981077
31
0.0
  0
LINE
 8
Layer0
10
36.900358605566616
20
92.06698729810779
30
0.0
11
37.02094908301539
21
92.01703708685534
31
0.0
  0
LINE
 8
Layer0
10
36.90035860556676
20
92.93301270189211
30
0.0
11
36.7968052149734
21
92.85355339059326
31
0.0
  0
LINE
 8
Layer0
10
36.79680521497331
20
64.85355339059302
30
0.0
11
36.71734590367441
21
64.74999999999976
31
0.0
  0
LINE
 8
Layer0
10
36.71734590367441
20
64.2499999999998
30
0.0
11
36.7968052149734
21
64.14644660940654
31
0.0
  0
LINE
 8
Layer0
10
-23.14644660940667
20
-13.6464466094067
30
0.0
11
-23.250000000000004
21
-13.56698729810778
31
0.0
  0
LINE
 8
Layer0
10
37.58337130745898
20
92.74999999999982
30
0.0
11
37.50391199615999
21
92.85355339059313
31
0.0
  0
LINE
 8
Layer0
10
-23.066987298107772
20
-14.249999999999945
30
0.0
11
-23.017037086855428
21
-14.129409522551224
31
0.0
  0
LINE
 8
Layer0
10
-23.99999999999994
20
-13.999999999999968
30
0.0
11
-23.982962913144505
21
-14.129409522551224
31
0.0
  0
LINE
 8
Layer0
10
37.58337130745894
20
92.24999999999983
30
0.0
11
37.633321518711305
21
92.3705904774485
31
0.0
  0
LINE
 8
Layer0
10
-23.370590477448747
20
-13.517037086855455
30
0.0
11
-23.500000000000014
21
-13.499999999999998
31
0.0
  0
LINE
 8
Layer0
10
36.717345903674456
20
92.74999999999986
30
0.0
11
36.66739569242221
21
92.62940952255119
31
0.0
  0
LINE
 8
Layer0
10
-23.749999999999996
20
-13.566987298107813
30
0.0
11
-23.853553390593238
21
-13.646446609406722
31
0.0
  0
LINE
 8
Layer0
10
37.633321518711305
20
92.3705904774485
30
0.0
11
37.65035860556667
21
92.49999999999986
31
0.0
  0
LINE
 8
Layer0
10
-23.249999999999957
20
-14.433012701892151
30
0.0
11
-23.14644660940667
21
-14.353553390593198
31
0.0
  0
LINE
 8
Layer0
10
37.633321518711305
20
92.629409522551
30
0.0
11
37.58337130745898
21
92.74999999999982
31
0.0
  0
LINE
 8
Layer0
10
37.27976812811806
20
92.98296291314439
30
0.0
11
37.1503586055667
21
92.9999999999998
31
0.0
  0
LINE
 8
Layer0
10
-23.629409522551253
20
-13.517037086855444
30
0.0
11
-23.749999999999996
21
-13.566987298107813
31
0.0
  0
LINE
 8
Layer0
10
37.1503586055667
20
92.9999999999998
30
0.0
11
37.02094908301539
21
92.98296291314439
31
0.0
  0
LINE
 8
Layer0
10
-23.853553390593238
20
-13.646446609406722
30
0.0
11
-23.933012701892203
21
-13.75000000000002
31
0.0
  0
LINE
 8
Layer0
10
-23.066987298107797
20
-13.749999999999998
30
0.0
11
-23.14644660940667
21
-13.6464466094067
31
0.0
  0
LINE
 8
Layer0
10
37.02094908301539
20
92.98296291314439
30
0.0
11
36.90035860556676
21
92.93301270189211
31
0.0
  0
LINE
 8
Layer0
10
36.66739569242221
20
92.62940952255119
30
0.0
11
36.65035860556676
21
92.49999999999986
31
0.0
  0
LINE
 8
Layer0
10
-23.146446609406627
20
-41.35355339059335
30
0.0
11
-23.066987298107772
21
-41.25000000000011
31
0.0
  0
LINE
 8
Layer0
10
-23.017037086855428
20
-14.129409522551224
30
0.0
11
-22.999999999999993
21
-13.999999999999957
31
0.0
  0
LINE
 8
Layer0
10
36.65035860556676
20
92.49999999999986
30
0.0
11
36.66739569242217
21
92.37059047744864
31
0.0
  0
LINE
 8
Layer0
10
-23.750000000000018
20
-14.433012701892197
30
0.0
11
-23.629409522551207
21
-14.482962913144465
31
0.0
  0
LINE
 8
Layer0
10
-23.629409522551207
20
-14.482962913144465
30
0.0
11
-23.49999999999999
21
-14.499999999999934
31
0.0
  0
LINE
 8
Layer0
10
-23.49999999999999
20
-14.499999999999934
30
0.0
11
-23.3705904774487
21
-14.482962913144489
31
0.0
  0
LINE
 8
Layer0
10
-23.14644660940667
20
-14.353553390593198
30
0.0
11
-23.066987298107772
21
-14.249999999999945
31
0.0
  0
LINE
 8
Layer0
10
-23.250000000000004
20
-13.56698729810778
30
0.0
11
-23.370590477448747
21
-13.517037086855455
31
0.0
  0
LINE
 8
Layer0
10
-23.500000000000014
20
-13.499999999999998
30
0.0
11
-23.629409522551253
21
-13.517037086855444
31
0.0
  0
LINE
 8
Layer0
10
-23.933012701892203
20
-13.75000000000002
30
0.0
11
-23.98296291314455
21
-13.870590477448701
31
0.0
  0
LINE
 8
Layer0
10
-23.853553390593238
20
-14.353553390593198
30
0.0
11
-23.750000000000018
21
-14.433012701892197
31
0.0
  0
LINE
 8
Layer0
10
36.66739569242217
20
92.37059047744864
30
0.0
11
36.717345903674456
21
92.25000000000001
31
0.0
  0
LINE
 8
Layer0
10
36.796805214973354
20
92.1464466094066
30
0.0
11
36.900358605566616
21
92.06698729810779
31
0.0
  0
LINE
 8
Layer0
10
37.02094908301539
20
92.01703708685534
30
0.0
11
37.150358605566744
21
91.99999999999983
31
0.0
  0
LINE
 8
Layer0
10
36.900358605566616
20
64.93301270189198
30
0.0
11
36.79680521497331
21
64.85355339059302
31
0.0
  0
LINE
 8
Layer0
10
36.65035860556676
20
64.49999999999986
30
0.0
11
36.66739569242226
21
64.37059047744853
31
0.0
  0
LINE
 8
Layer0
10
36.66739569242226
20
64.37059047744853
30
0.0
11
36.71734590367441
21
64.2499999999998
31
0.0
  0
LINE
 8
Layer0
10
36.7968052149734
20
64.14644660940654
30
0.0
11
36.90035860556671
21
64.06698729810758
31
0.0
  0
LINE
 8
Layer0
10
36.90035860556671
20
64.06698729810758
30
0.0
11
37.020949083015566
21
64.0170370868553
31
0.0
  0
LINE
 8
Layer0
10
37.020949083015566
20
64.0170370868553
30
0.0
11
37.150358605566744
21
63.99999999999984
31
0.0
  0
LINE
 8
Layer0
10
37.15035860556661
20
64.99999999999977
30
0.0
11
37.02094908301534
21
64.98296291314436
31
0.0
  0
LINE
 8
Layer0
10
-23.98296291314455
20
-13.870590477448701
30
0.0
11
-23.99999999999994
21
-13.999999999999968
31
0.0
  0
LINE
 8
Layer0
10
-23.933012701892157
20
-14.249999999999968
30
0.0
11
-23.853553390593238
21
-14.353553390593198
31
0.0
  0
LINE
 8
Layer0
10
37.02094908301534
20
64.98296291314436
30
0.0
11
36.900358605566616
21
64.93301270189198
31
0.0
  0
LINE
 8
Layer0
10
37.40035860556678
20
92.0669872981077
30
0.0
11
37.50391199615999
21
92.1464466094067
31
0.0
  0
LINE
 8
Layer0
10
-23.017037086855428
20
-41.12940952255129
30
0.0
11
-22.999999999999993
21
-41.00000000000003
31
0.0
  0
LINE
 8
Layer0
10
-23.017037086855495
20
-13.870590477448713
30
0.0
11
-23.066987298107797
21
-13.749999999999998
31
0.0
  0
LINE
 8
Layer0
10
37.65035860556667
20
92.49999999999986
30
0.0
11
37.633321518711305
21
92.629409522551
31
0.0
  0
LINE
 8
Layer0
10
37.50391199615999
20
92.85355339059313
30
0.0
11
37.40035860556673
21
92.93301270189198
31
0.0
  0
LINE
 8
Layer0
10
-22.999999999999993
20
-13.999999999999957
30
0.0
11
-23.017037086855495
21
-13.870590477448713
31
0.0
  0
LINE
 8
Layer0
10
37.40035860556673
20
92.93301270189198
30
0.0
11
37.27976812811806
21
92.98296291314439
31
0.0
  0
LINE
 8
Layer0
10
37.50391199615999
20
92.1464466094067
30
0.0
11
37.58337130745894
21
92.24999999999983
31
0.0
  0
LINE
 8
Layer0
10
36.7968052149734
20
92.85355339059326
30
0.0
11
36.717345903674456
21
92.74999999999986
31
0.0
  0
LINE
 8
Layer0
10
36.717345903674456
20
92.25000000000001
30
0.0
11
36.796805214973354
21
92.1464466094066
31
0.0
  0
LINE
 8
Layer0
10
-23.066987298107772
20
-41.25000000000011
30
0.0
11
-23.017037086855428
21
-41.12940952255129
31
0.0
  0
LINE
 8
Layer0
10
-23.24999999999998
20
-41.43301270189227
30
0.0
11
-23.146446609406627
21
-41.35355339059335
31
0.0
  0
LINE
 8
Layer0
10
-23.982962913144505
20
-14.129409522551224
30
0.0
11
-23.933012701892157
21
-14.249999999999968
31
0.0
  0
LINE
 8
Layer0
10
80.71734590367457
20
92.24999999999991
30
0.0
11
80.79680521497352
21
92.14644660940665
31
0.0
  0
LINE
 8
Layer0
10
81.63332151871137
20
92.62940952255119
30
0.0
11
81.58337130745909
21
92.74999999999991
31
0.0
  0
LINE
 8
Layer0
10
37.63332151871126
20
64.37059047744859
30
0.0
11
37.650358605566765
21
64.4999999999999
31
0.0
  0
LINE
 8
Layer0
10
37.58337130745889
20
64.74999999999976
30
0.0
11
37.50391199615991
21
64.85355339059306
31
0.0
  0
LINE
 8
Layer0
10
80.90035860556682
20
77.93301270189197
30
0.0
11
80.79680521497342
21
77.85355339059294
31
0.0
  0
LINE
 8
Layer0
10
81.58337130745878
20
77.24999999999977
30
0.0
11
81.63332151871114
21
77.37059047744863
31
0.0
  0
LINE
 8
Layer0
10
81.02094908301545
20
77.0170370868552
30
0.0
11
81.15035860556672
21
76.99999999999979
31
0.0
  0
LINE
 8
Layer0
10
81.65035860556661
20
77.4999999999999
30
0.0
11
81.63332151871124
21
77.62940952255121
31
0.0
  0
LINE
 8
Layer0
10
80.79680521497333
20
77.14644660940641
30
0.0
11
80.90035860556664
21
77.06698729810742
31
0.0
  0
LINE
 8
Layer0
10
37.279768128117965
20
64.01703708685521
30
0.0
11
37.40035860556669
21
64.06698729810762
31
0.0
  0
LINE
 8
Layer0
10
37.633321518711305
20
64.62940952255113
30
0.0
11
37.58337130745889
21
64.74999999999976
31
0.0
  0
LINE
 8
Layer0
10
81.1503586055669
20
77.99999999999974
30
0.0
11
81.02094908301558
21
77.98296291314429
31
0.0
  0
LINE
 8
Layer0
10
80.90035860556664
20
77.06698729810742
30
0.0
11
81.02094908301545
21
77.0170370868552
31
0.0
  0
LINE
 8
Layer0
10
81.15035860556672
20
76.99999999999979
30
0.0
11
81.2797681281179
21
77.01703708685514
31
0.0
  0
LINE
 8
Layer0
10
81.63332151871124
20
77.62940952255121
30
0.0
11
81.58337130745896
21
77.75000000000003
31
0.0
  0
LINE
 8
Layer0
10
80.66739569242225
20
92.37059047744869
30
0.0
11
80.71734590367457
21
92.24999999999991
31
0.0
  0
LINE
 8
Layer0
10
80.71734590367434
20
77.24999999999973
30
0.0
11
80.79680521497333
21
77.14644660940641
31
0.0
  0
LINE
 8
Layer0
10
81.2797681281179
20
77.01703708685514
30
0.0
11
81.40035860556671
21
77.06698729810748
31
0.0
  0
LINE
 8
Layer0
10
81.27976812811798
20
92.01703708685538
30
0.0
11
81.40035860556675
21
92.06698729810762
31
0.0
  0
LINE
 8
Layer0
10
81.40035860556675
20
92.06698729810762
30
0.0
11
81.50391199616006
21
92.1464466094066
31
0.0
  0
LINE
 8
Layer0
10
81.63332151871114
20
77.37059047744863
30
0.0
11
81.65035860556661
21
77.4999999999999
31
0.0
  0
LINE
 8
Layer0
10
37.50391199615995
20
64.14644660940654
30
0.0
11
37.58337130745885
21
64.24999999999983
31
0.0
  0
LINE
 8
Layer0
10
37.40035860556669
20
64.06698729810762
30
0.0
11
37.50391199615995
21
64.14644660940654
31
0.0
  0
LINE
 8
Layer0
10
37.27976812811783
20
64.98296291314433
30
0.0
11
37.15035860556661
21
64.99999999999977
31
0.0
  0
LINE
 8
Layer0
10
81.40035860556671
20
77.06698729810748
30
0.0
11
81.50391199615997
21
77.14644660940655
31
0.0
  0
LINE
 8
Layer0
10
81.4003586055668
20
77.93301270189205
30
0.0
11
81.27976812811808
21
77.98296291314438
31
0.0
  0
LINE
 8
Layer0
10
37.400358605566595
20
64.93301270189201
30
0.0
11
37.27976812811783
21
64.98296291314433
31
0.0
  0
LINE
 8
Layer0
10
80.71734590367453
20
77.74999999999976
30
0.0
11
80.6673956924222
21
77.62940952255113
31
0.0
  0
LINE
 8
Layer0
10
81.50391199616006
20
77.8535533905932
30
0.0
11
81.4003586055668
21
77.93301270189205
31
0.0
  0
LINE
 8
Layer0
10
37.50391199615991
20
64.85355339059306
30
0.0
11
37.400358605566595
21
64.93301270189201
31
0.0
  0
LINE
 8
Layer0
10
81.58337130745896
20
77.75000000000003
30
0.0
11
81.50391199616006
21
77.8535533905932
31
0.0
  0
LINE
 8
Layer0
10
80.79680521497352
20
92.14644660940665
30
0.0
11
80.90035860556674
21
92.06698729810779
31
0.0
  0
LINE
 8
Layer0
10
81.27976812811808
20
77.98296291314438
30
0.0
11
81.1503586055669
21
77.99999999999974
31
0.0
  0
LINE
 8
Layer0
10
81.02094908301545
20
92.01703708685547
30
0.0
11
81.15035860556672
21
91.99999999999991
31
0.0
  0
LINE
 8
Layer0
10
81.15035860556672
20
91.99999999999991
30
0.0
11
81.27976812811798
21
92.01703708685538
31
0.0
  0
LINE
 8
Layer0
10
80.66739569242206
20
77.37059047744854
30
0.0
11
80.71734590367434
21
77.24999999999973
31
0.0
  0
LINE
 8
Layer0
10
81.50391199616006
20
92.1464466094066
30
0.0
11
81.58337130745896
21
92.24999999999979
31
0.0
  0
LINE
 8
Layer0
10
81.58337130745896
20
92.24999999999979
30
0.0
11
81.63332151871133
21
92.3705904774485
31
0.0
  0
LINE
 8
Layer0
10
81.65035860556678
20
92.49999999999973
30
0.0
11
81.63332151871137
21
92.62940952255119
31
0.0
  0
LINE
 8
Layer0
10
37.58337130745885
20
64.24999999999983
30
0.0
11
37.63332151871126
21
64.37059047744859
31
0.0
  0
LINE
 8
Layer0
10
37.650358605566765
20
64.4999999999999
30
0.0
11
37.633321518711305
21
64.62940952255113
31
0.0
  0
LINE
 8
Layer0
10
81.50391199615997
20
77.14644660940655
30
0.0
11
81.58337130745878
21
77.24999999999977
31
0.0
  0
LINE
 8
Layer0
10
81.58337130745909
20
92.74999999999991
30
0.0
11
81.5039119961602
21
92.85355339059322
31
0.0
  0
LINE
 8
Layer0
10
81.5039119961602
20
92.85355339059322
30
0.0
11
81.4003586055668
21
92.93301270189211
31
0.0
  0
LINE
 8
Layer0
10
81.4003586055668
20
92.93301270189211
30
0.0
11
81.27976812811808
21
92.98296291314449
31
0.0
  0
LINE
 8
Layer0
10
37.150358605566744
20
63.99999999999984
30
0.0
11
37.279768128117965
21
64.01703708685521
31
0.0
  0
LINE
 8
Layer0
10
81.02094908301558
20
77.98296291314429
30
0.0
11
80.90035860556682
21
77.93301270189197
31
0.0
  0
LINE
 8
Layer0
10
81.02094908301564
20
92.98296291314453
30
0.0
11
80.90035860556691
21
92.93301270189215
31
0.0
  0
LINE
 8
Layer0
10
81.1503586055669
20
92.9999999999999
30
0.0
11
81.02094908301564
21
92.98296291314453
31
0.0
  0
LINE
 8
Layer0
10
80.79680521497365
20
92.85355339059322
30
0.0
11
80.71734590367461
21
92.74999999999996
31
0.0
  0
LINE
 8
Layer0
10
80.6503586055668
20
92.49999999999996
30
0.0
11
80.66739569242225
21
92.37059047744869
31
0.0
  0
LINE
 8
Layer0
10
80.71734590367461
20
92.74999999999996
30
0.0
11
80.66739569242229
21
92.62940952255123
31
0.0
  0
LINE
 8
Layer0
10
80.66739569242229
20
92.62940952255123
30
0.0
11
80.6503586055668
21
92.49999999999996
31
0.0
  0
LINE
 8
Layer0
10
81.15035860556672
20
76.99999999999979
30
0.0
11
81.15035860556668
21
77.49999999999967
31
0.0
  0
LINE
 8
Layer0
10
80.65035860556674
20
77.49999999999982
30
0.0
11
81.15035860556668
21
77.49999999999967
31
0.0
  0
LINE
 8
Layer0
10
81.15035860556668
20
77.49999999999967
30
0.0
11
81.1503586055669
21
77.99999999999974
31
0.0
  0
LINE
 8
Layer0
10
81.63332151871133
20
92.3705904774485
30
0.0
11
81.65035860556678
21
92.49999999999973
31
0.0
  0
LINE
 8
Layer0
10
81.27976812811808
20
92.98296291314449
30
0.0
11
81.1503586055669
21
92.9999999999999
31
0.0
  0
LINE
 8
Layer0
10
80.6673956924222
20
77.62940952255113
30
0.0
11
80.65035860556674
21
77.49999999999982
31
0.0
  0
LINE
 8
Layer0
10
80.90035860556674
20
92.06698729810779
30
0.0
11
81.02094908301545
21
92.01703708685547
31
0.0
  0
LINE
 8
Layer0
10
80.90035860556691
20
92.93301270189215
30
0.0
11
80.79680521497365
21
92.85355339059322
31
0.0
  0
LINE
 8
Layer0
10
81.15035860556668
20
77.49999999999967
30
0.0
11
81.65035860556661
21
77.4999999999999
31
0.0
  0
LINE
 8
Layer0
10
80.79680521497342
20
77.85355339059294
30
0.0
11
80.71734590367453
21
77.74999999999976
31
0.0
  0
LINE
 8
Layer0
10
80.65035860556674
20
77.49999999999982
30
0.0
11
80.66739569242206
21
77.37059047744854
31
0.0
  0
LINE
 8
Layer0
10
36.65035860556676
20
92.49999999999986
30
0.0
11
37.150358605566744
21
92.49999999999982
31
0.0
  0
LINE
 8
Layer0
10
5.9999999999988205
20
-11.512030311071488
30
0.0
11
6.146850659297532
21
-11.50720567931696
31
0.0
  0
LINE
 8
Layer0
10
37.1503586055667
20
64.49999999999984
30
0.0
11
37.650358605566765
21
64.4999999999999
31
0.0
  0
LINE
 8
Layer0
10
80.6503586055668
20
92.49999999999996
30
0.0
11
81.15035860556681
21
92.49999999999991
31
0.0
  0
LINE
 8
Layer0
10
23.000000000000004
20
10.000000000000002
30
0.0
11
24.5
21
10.000000000000002
31
0.0
  0
LINE
 8
Layer0
10
-23.49999999999999
20
-14.000000000000002
30
0.0
11
-22.999999999999993
21
-13.999999999999957
31
0.0
  0
LINE
 8
Layer0
10
6.0
20
10.000000000000002
30
0.0
11
6.0
21
8.512030311071486
31
0.0
  0
LINE
 8
Layer0
10
37.15035860556661
20
64.99999999999977
30
0.0
11
37.1503586055667
21
64.49999999999984
31
0.0
  0
LINE
 8
Layer0
10
-23.500000000000014
20
-41.00000000000003
30
0.0
11
-22.999999999999993
21
-41.00000000000003
31
0.0
  0
LINE
 8
Layer0
10
5.9999999999988205
20
-13.000000000000012
30
0.0
11
7.487969688927241
21
-13.000000000000012
31
0.0
  0
LINE
 8
Layer0
10
36.65035860556676
20
64.49999999999986
30
0.0
11
37.1503586055667
21
64.49999999999984
31
0.0
  0
LINE
 8
Layer0
10
4.5120303110714834
20
10.000000000000002
30
0.0
11
6.0
21
10.000000000000002
31
0.0
  0
LINE
 8
Layer0
10
81.15035860556681
20
92.49999999999991
30
0.0
11
81.1503586055669
21
92.9999999999999
31
0.0
  0
LINE
 8
Layer0
10
5.9999999999988205
20
-13.000000000000012
30
0.0
11
5.9999999999988205
21
-11.512030311071488
31
0.0
  0
LINE
 8
Layer0
10
5.9999999999988205
20
-14.487969688928512
30
0.0
11
5.9999999999988205
21
-13.000000000000012
31
0.0
  0
LINE
 8
Layer0
10
37.150358605566744
20
92.49999999999982
30
0.0
11
37.65035860556667
21
92.49999999999986
31
0.0
  0
LINE
 8
Layer0
10
-23.999999999999986
20
-41.00000000000003
30
0.0
11
-23.500000000000014
21
-41.00000000000003
31
0.0
  0
LINE
 8
Layer0
10
37.150358605566744
20
92.49999999999982
30
0.0
11
37.150358605566744
21
91.99999999999983
31
0.0
  0
LINE
 8
Layer0
10
21.5
20
10.000000000000002
30
0.0
11
23.000000000000004
21
10.000000000000002
31
0.0
  0
LINE
 8
Layer0
10
96.24999999999999
20
1.0048094716167038
30
0.0
11
97.80330085889909
21
2.196699141100886
31
0.0
  0
LINE
 8
Layer0
10
24.299038105676658
20
10.749999999999996
30
0.0
11
24.060660171779823
21
11.060660171779823
31
0.0
  0
LINE
 8
Layer0
10
9.999999999999996
20
4.000000000000002
30
0.0
11
9.999999999999996
21
0.0
31
0.0
  0
LINE
 8
Layer0
10
21.499999999998856
20
-13.000000000000012
30
0.0
11
22.99999999999886
21
-13.000000000000012
31
0.0
  0
LINE
 8
Layer0
10
4.780627525312653
20
9.126426438143383
30
0.0
11
5.0482741099400155
21
8.840595915916486
31
0.0
  0
LINE
 8
Layer0
10
6.6192207588264305
20
11.36622313398596
30
0.0
11
6.244516756189545
21
11.479936335097745
31
0.0
  0
LINE
 8
Layer0
10
22.99999999999886
20
-13.000000000000012
30
0.0
11
24.499999999998682
21
-13.000000000000012
31
0.0
  0
LINE
 8
Layer0
10
0.0
20
22.499999999999996
30
0.0
11
0.0
21
27.499999999999996
31
0.0
  0
LINE
 8
Layer0
10
-23.99999999999994
20
-13.999999999999968
30
0.0
11
-23.49999999999999
21
-14.000000000000002
31
0.0
  0
LINE
 8
Layer0
10
-23.49999999999999
20
-41.50000000000007
30
0.0
11
-23.500000000000014
21
-41.00000000000003
31
0.0
  0
LINE
 8
Layer0
10
7.487969688927241
20
-13.000000000000012
30
0.0
11
7.492794320682057
21
-13.146850659298623
31
0.0
  0
LINE
 8
Layer0
10
24.448888739433606
20
10.388228567653783
30
0.0
11
24.299038105676658
21
10.749999999999996
31
0.0
  0
LINE
 8
Layer0
10
22.99999999999886
20
-13.000000000000012
30
0.0
11
22.99999999999886
21
-11.500000000000004
31
0.0
  0
LINE
 8
Layer0
10
23.75
20
11.29903810567666
30
0.0
11
23.38822856765378
21
11.4488887394336
31
0.0
  0
LINE
 8
Layer0
10
-23.49999999999999
20
-14.499999999999934
30
0.0
11
-23.49999999999999
21
-14.000000000000002
31
0.0
  0
LINE
 8
Layer0
10
5.9999999999988205
20
-14.487969688928512
30
0.0
11
5.853149340700241
21
-14.492794320683073
31
0.0
  0
LINE
 8
Layer0
10
9.999999999999996
20
0.0
30
0.0
11
0.0
21
0.0
31
0.0
  0
LINE
 8
Layer0
10
5.000000000000001
20
50.0
30
0.0
11
0.0
21
50.0
31
0.0
  0
LINE
 8
Layer0
10
81.15035860556672
20
91.99999999999991
30
0.0
11
81.15035860556681
21
92.49999999999991
31
0.0
  0
LINE
 8
Layer0
10
23.38822856765378
20
11.4488887394336
30
0.0
11
23.000000000000004
21
11.500000000000002
31
0.0
  0
LINE
 8
Layer0
10
37.1503586055667
20
64.49999999999984
30
0.0
11
37.150358605566744
21
63.99999999999984
31
0.0
  0
LINE
 8
Layer0
10
-23.500000000000014
20
-41.00000000000003
30
0.0
11
-23.499999999999968
21
-40.500000000000064
31
0.0
  0
LINE
 8
Layer0
10
81.15035860556681
20
92.49999999999991
30
0.0
11
81.65035860556678
21
92.49999999999973
31
0.0
  0
LINE
 8
Layer0
10
5.126426438143383
20
11.219372474687347
30
0.0
11
4.840595915916485
21
10.951725890059983
31
0.0
  0
LINE
 8
Layer0
10
22.99999999999886
20
-14.500000000000012
30
0.0
11
22.99999999999886
21
-13.000000000000012
31
0.0
  0
LINE
 8
Layer0
10
-3.999999999999999
20
46.0
30
0.0
11
0.0
21
46.0
31
0.0
  0
LINE
 8
Layer0
10
51.0
20
3.9999999999999996
30
0.0
11
55.0
21
3.9999999999999996
31
0.0
  0
LINE
 8
Layer0
10
23.000000000000004
20
10.000000000000002
30
0.0
11
23.000000000000004
21
8.500000000000002
31
0.0
  0
LINE
 8
Layer0
10
0.0
20
3.999999999999999
30
0.0
11
-3.999999999999996
21
3.999999999999999
31
0.0
  0
LINE
 8
Layer0
10
4.596079159726941
20
9.471789554962239
30
0.0
11
4.780627525312653
21
9.126426438143383
31
0.0
  0
LINE
 8
Layer0
10
37.1503586055667
20
92.9999999999998
30
0.0
11
37.150358605566744
21
92.49999999999982
31
0.0
  0
LINE
 8
Layer0
10
4.512030311070256
20
-13.000000000000012
30
0.0
11
5.9999999999988205
21
-13.000000000000012
31
0.0
  0
LINE
 8
Layer0
10
24.060660171779823
20
11.060660171779823
30
0.0
11
23.75
21
11.29903810567666
31
0.0
  0
LINE
 8
Layer0
10
-23.49999999999999
20
-14.000000000000002
30
0.0
11
-23.500000000000014
21
-13.499999999999998
31
0.0
  0
LINE
 8
Layer0
10
4.512030311070256
20
-13.000000000000012
30
0.0
11
4.50720567931574
21
-12.853149340701389
31
0.0
  0
LINE
 8
Layer0
10
4.840595915916485
20
10.951725890059983
30
0.0
11
4.633776866014038
21
10.61922075882643
31
0.0
  0
LINE
 8
Layer0
10
98.99519052838328
20
3.74999999999999
30
0.0
11
99.74444369716801
21
5.5588571617310825
31
0.0
  0
LINE
 8
Layer0
10
5.0482741099400155
20
8.840595915916486
30
0.0
11
5.3807792411735695
21
8.63377686601404
31
0.0
  0
LINE
 8
Layer0
10
24.5
20
10.000000000000002
30
0.0
11
24.448888739433606
21
10.388228567653783
31
0.0
  0
LINE
 8
Layer0
10
99.99999999999999
20
7.499999999999989
30
0.0
11
99.74444369716801
21
9.441142838268894
31
0.0
  0
LINE
 8
Layer0
10
51.0
20
27.499999999999996
30
0.0
11
51.0
21
39.99999999999999
31
0.0
  0
LINE
 8
Layer0
10
0.0
20
46.0
30
0.0
11
0.0
21
50.0
31
0.0
  0
LINE
 8
Layer0
10
6.8735735618566185
20
8.780627525312653
30
0.0
11
7.159404084083516
21
9.048274109940017
31
0.0
  0
LINE
 8
Layer0
10
4.633776866014038
20
10.61922075882643
30
0.0
11
4.5200636649022545
21
10.244516756189546
31
0.0
  0
LINE
 8
Layer0
10
5.3807792411735695
20
8.63377686601404
30
0.0
11
5.755483243810455
21
8.520063664902255
31
0.0
  0
LINE
 8
Layer0
10
21.93933982822018
20
11.060660171779823
30
0.0
11
21.700961894323342
21
10.750000000000004
31
0.0
  0
LINE
 8
Layer0
10
4.507205679316951
20
9.853149340701387
30
0.0
11
4.596079159726941
21
9.471789554962239
31
0.0
  0
LINE
 8
Layer0
10
99.74444369716801
20
5.5588571617310825
30
0.0
11
99.99999999999999
21
7.499999999999989
31
0.0
  0
LINE
 8
Layer0
10
97.80330085889912
20
12.8033008588991
30
0.0
11
58.828427124746185
21
48.82842712474619
31
0.0
  0
LINE
 8
Layer0
10
98.99519052838329
20
11.24999999999999
30
0.0
11
97.80330085889912
21
12.8033008588991
31
0.0
  0
LINE
 8
Layer0
10
4.5200636649022545
20
10.244516756189546
30
0.0
11
4.5120303110714834
21
10.000000000000002
31
0.0
  0
LINE
 8
Layer0
10
7.4799363350977455
20
9.755483243810458
30
0.0
11
7.487969688928516
21
10.000000000000002
31
0.0
  0
LINE
 8
Layer0
10
55.0
20
22.5
30
0.0
11
51.0
21
22.5
31
0.0
  0
LINE
 8
Layer0
10
5.755483243810455
20
8.520063664902255
30
0.0
11
6.0
21
8.512030311071486
31
0.0
  0
LINE
 8
Layer0
10
58.43504571603488
20
49.17341336116494
30
0.0
11
58.828427124746185
21
48.82842712474619
31
0.0
  0
LINE
 8
Layer0
10
7.3662231339859625
20
9.38077924117357
30
0.0
11
7.4799363350977455
21
9.755483243810458
31
0.0
  0
LINE
 8
Layer0
10
55.0
20
39.99999999999999
30
0.0
11
55.0
21
27.499999999999996
31
0.0
  0
LINE
 8
Layer0
10
51.0
20
39.99999999999999
30
0.0
11
55.0
21
39.99999999999999
31
0.0
  0
LINE
 8
Layer0
10
23.000000000000004
20
11.500000000000002
30
0.0
11
22.61177143234622
21
11.4488887394336
31
0.0
  0
LINE
 8
Layer0
10
22.61177143234622
20
11.4488887394336
30
0.0
11
22.250000000000004
21
11.29903810567666
31
0.0
  0
LINE
 8
Layer0
10
5.000000000000001
20
50.0
30
0.0
11
5.000000000000001
21
46.0
31
0.0
  0
LINE
 8
Layer0
10
7.49279432068305
20
10.146850659298613
30
0.0
11
7.40392084027306
21
10.528210445037761
31
0.0
  0
LINE
 8
Layer0
10
51.0
20
46.0
30
0.0
11
51.0
21
50.0
31
0.0
  0
LINE
 8
Layer0
10
5.47178955496224
20
11.40392084027306
30
0.0
11
5.126426438143383
21
11.219372474687347
31
0.0
  0
LINE
 8
Layer0
10
6.528210445037763
20
8.596079159726942
30
0.0
11
6.8735735618566185
21
8.780627525312653
31
0.0
  0
LINE
 8
Layer0
10
6.146850659298615
20
8.507205679316952
30
0.0
11
6.528210445037763
21
8.596079159726942
31
0.0
  0
LINE
 8
Layer0
10
-3.9999999999999996
20
27.499999999999996
30
0.0
11
-3.999999999999999
21
46.0
31
0.0
  0
LINE
 8
Layer0
10
57.99999999999999
20
49.46410161513775
30
0.0
11
58.43504571603488
21
49.17341336116494
31
0.0
  0
LINE
 8
Layer0
10
7.40392084027306
20
10.528210445037761
30
0.0
11
7.219372474687347
21
10.87357356185662
31
0.0
  0
LINE
 8
Layer0
10
6.951725890059984
20
11.159404084083514
30
0.0
11
6.6192207588264305
21
11.36622313398596
31
0.0
  0
LINE
 8
Layer0
10
0.0
20
27.499999999999996
30
0.0
11
-3.9999999999999996
21
27.499999999999996
31
0.0
  0
LINE
 8
Layer0
10
55.0
20
27.499999999999996
30
0.0
11
51.0
21
27.499999999999996
31
0.0
  0
LINE
 8
Layer0
10
36.0
20
0.0
30
0.0
11
36.0
21
3.999999999999999
31
0.0
  0
LINE
 8
Layer0
10
55.0
20
3.9999999999999996
30
0.0
11
55.0
21
22.5
31
0.0
  0
LINE
 8
Layer0
10
22.250000000000004
20
11.29903810567666
30
0.0
11
21.93933982822018
21
11.060660171779823
31
0.0
  0
LINE
 8
Layer0
10
5.8531493407013855
20
11.49279432068305
30
0.0
11
5.47178955496224
21
11.40392084027306
31
0.0
  0
LINE
 8
Layer0
10
7.219372474687347
20
10.87357356185662
30
0.0
11
6.951725890059984
21
11.159404084083514
31
0.0
  0
LINE
 8
Layer0
10
92.49999999999999
20
0.0
30
0.0
11
36.0
21
0.0
31
0.0
  0
LINE
 8
Layer0
10
21.700961894323342
20
10.750000000000004
30
0.0
11
21.5511112605664
21
10.388228567653783
31
0.0
  0
LINE
 8
Layer0
10
56.0
20
50.0
30
0.0
11
51.0
21
50.0
31
0.0
  0
LINE
 8
Layer0
10
25.5
20
46.0
30
0.0
11
25.5
21
50.0
31
0.0
  0
LINE
 8
Layer0
10
-3.9999999999999996
20
22.5
30
0.0
11
0.0
21
22.499999999999996
31
0.0
  0
LINE
 8
Layer0
10
57.03527618041008
20
49.86370330515627
30
0.0
11
57.530733729460366
21
49.695518130045144
31
0.0
  0
LINE
 8
Layer0
10
5.000000000000001
20
46.0
30
0.0
11
25.5
21
46.0
31
0.0
  0
LINE
 8
Layer0
10
30.5
20
50.0
30
0.0
11
25.5
21
50.0
31
0.0
  0
LINE
 8
Layer0
10
36.0
20
3.999999999999999
30
0.0
11
9.999999999999996
21
4.000000000000002
31
0.0
  0
LINE
 8
Layer0
10
-3.999999999999996
20
3.999999999999999
30
0.0
11
-3.9999999999999996
21
22.5
31
0.0
  0
LINE
 8
Layer0
10
51.0
20
22.5
30
0.0
11
51.0
21
3.9999999999999996
31
0.0
  0
LINE
 8
Layer0
10
94.44114283826889
20
0.2555563028319853
30
0.0
11
96.24999999999999
21
1.0048094716167038
31
0.0
  0
LINE
 8
Layer0
10
56.0
20
50.0
30
0.0
11
56.522104768880205
21
49.965779445495244
31
0.0
  0
LINE
 8
Layer0
10
85.15035860556694
20
55.999999999999886
30
0.0
11
85.15035860556662
21
95.9999999999996
31
0.0
  0
LINE
 8
Layer0
10
7.487969688928516
20
10.000000000000002
30
0.0
11
7.49279432068305
21
10.146850659298613
31
0.0
  0
LINE
 8
Layer0
10
92.49999999999999
20
0.0
30
0.0
11
94.44114283826889
21
0.2555563028319853
31
0.0
  0
LINE
 8
Layer0
10
21.5511112605664
20
9.61177143234622
30
0.0
11
21.700961894323342
21
9.250000000000004
31
0.0
  0
LINE
 8
Layer0
10
23.000000000000004
20
11.500000000000002
30
0.0
11
23.000000000000004
21
10.000000000000002
31
0.0
  0
LINE
 8
Layer0
10
22.150358605566783
20
95.99999999999987
30
0.0
11
85.15035860556662
21
95.9999999999996
31
0.0
  0
LINE
 8
Layer0
10
97.80330085889909
20
2.196699141100886
30
0.0
11
98.99519052838328
21
3.74999999999999
31
0.0
  0
LINE
 8
Layer0
10
68.15035860556691
20
84.9999999999998
30
0.0
11
68.15035860556691
21
89.00000000000006
31
0.0
  0
LINE
 8
Layer0
10
30.5
20
50.0
30
0.0
11
30.5
21
46.0
31
0.0
  0
LINE
 8
Layer0
10
21.5511112605664
20
10.388228567653783
30
0.0
11
21.5
21
10.000000000000002
31
0.0
  0
LINE
 8
Layer0
10
22.25
20
8.700961894323342
30
0.0
11
22.61177143234622
21
8.5511112605664
31
0.0
  0
LINE
 8
Layer0
10
0.0
20
0.0
30
0.0
11
0.0
21
3.999999999999999
31
0.0
  0
LINE
 8
Layer0
10
30.5
20
46.0
30
0.0
11
51.0
21
46.0
31
0.0
  0
LINE
 8
Layer0
10
56.522104768880205
20
49.965779445495244
30
0.0
11
57.03527618041008
21
49.86370330515627
31
0.0
  0
LINE
 8
Layer0
10
22.15035860556676
20
78.99999999999993
30
0.0
11
22.150358605566783
21
95.99999999999987
31
0.0
  0
LINE
 8
Layer0
10
26.15035860556692
20
89.00000000000006
30
0.0
11
26.15035860556683
21
85.00000000000003
31
0.0
  0
LINE
 8
Layer0
10
4.500000000000002
20
-34.00000000000001
30
0.0
11
4.840741733895397
21
-36.5881904390307
31
0.0
  0
LINE
 8
Layer0
10
4.840741733895397
20
-36.5881904390307
30
0.0
11
5.8397459497379804
21
-38.999999978492035
31
0.0
  0
LINE
 8
Layer0
10
6.0
20
10.000000000000002
30
0.0
11
7.487969688928516
21
10.000000000000002
31
0.0
  0
LINE
 8
Layer0
10
99.74444369716801
20
9.441142838268894
30
0.0
11
98.99519052838329
21
11.24999999999999
31
0.0
  0
LINE
 8
Layer0
10
7.428932161792747
20
-41.0710677855237
30
0.0
11
9.499999956984054
21
-42.66025401300912
31
0.0
  0
LINE
 8
Layer0
10
9.499999956984054
20
-42.66025401300912
30
0.0
11
11.911809489002225
21
-43.65925824682108
31
0.0
  0
LINE
 8
Layer0
10
24.299038105676658
20
9.25
30
0.0
11
24.448888739433606
21
9.61177143234622
31
0.0
  0
LINE
 8
Layer0
10
23.38822856765378
20
8.5511112605664
30
0.0
11
23.75
21
8.700961894323342
31
0.0
  0
LINE
 8
Layer0
10
7.159404084083516
20
9.048274109940017
30
0.0
11
7.3662231339859625
21
9.38077924117357
31
0.0
  0
LINE
 8
Layer0
10
21.5
20
10.000000000000002
30
0.0
11
21.5511112605664
21
9.61177143234622
31
0.0
  0
LINE
 8
Layer0
10
11.911809489002225
20
-43.65925824682108
30
0.0
11
14.499999925494194
21
-44.00000000000001
31
0.0
  0
LINE
 8
Layer0
10
19.499999913968104
20
-42.66025408751493
30
0.0
11
21.571067732840135
21
-41.07106789089082
31
0.0
  0
LINE
 8
Layer0
10
24.448888739433606
20
9.61177143234622
30
0.0
11
24.5
21
10.000000000000002
31
0.0
  0
LINE
 8
Layer0
10
21.571067732840135
20
-41.07106789089082
30
0.0
11
23.160253975756216
21
-39.000000107539876
31
0.0
  0
LINE
 8
Layer0
10
23.160253975756216
20
-39.000000107539876
30
0.0
11
24.15925822753756
21
-36.58819058296486
31
0.0
  0
LINE
 8
Layer0
10
24.15925822753756
20
-36.58819058296486
30
0.0
11
24.5
21
-34.00000014901162
31
0.0
  0
LINE
 8
Layer0
10
4.500000000000002
20
31.0
30
0.0
11
4.840741733895397
21
33.58819043903069
31
0.0
  0
LINE
 8
Layer0
10
4.840741733895397
20
33.58819043903069
30
0.0
11
5.8397459497379804
21
35.99999997849203
31
0.0
  0
LINE
 8
Layer0
10
23.75
20
8.700961894323342
30
0.0
11
24.060660171779823
21
8.93933982822018
31
0.0
  0
LINE
 8
Layer0
10
21.93933982822018
20
8.93933982822018
30
0.0
11
22.25
21
8.700961894323342
31
0.0
  0
LINE
 8
Layer0
10
24.060660171779823
20
8.93933982822018
30
0.0
11
24.299038105676658
21
9.25
31
0.0
  0
LINE
 8
Layer0
10
21.700961894323342
20
9.250000000000004
30
0.0
11
21.93933982822018
21
8.93933982822018
31
0.0
  0
LINE
 8
Layer0
10
6.0
20
8.512030311071486
30
0.0
11
6.146850659298615
21
8.507205679316952
31
0.0
  0
LINE
 8
Layer0
10
6.0
20
11.487969688928517
30
0.0
11
5.8531493407013855
21
11.49279432068305
31
0.0
  0
LINE
 8
Layer0
10
57.530733729460366
20
49.695518130045144
30
0.0
11
57.99999999999999
21
49.46410161513775
31
0.0
  0
LINE
 8
Layer0
10
4.5120303110714834
20
10.000000000000002
30
0.0
11
4.507205679316951
21
9.853149340701387
31
0.0
  0
LINE
 8
Layer0
10
22.15035860556685
20
55.99999999999987
30
0.0
11
22.150358605566737
21
65.9999999999999
31
0.0
  0
LINE
 8
Layer0
10
14.499999925494194
20
-44.00000000000001
30
0.0
11
17.08819036706361
21
-43.659258285388134
31
0.0
  0
LINE
 8
Layer0
10
5.8397459497379804
20
-38.999999978492035
30
0.0
11
7.428932161792747
21
-41.0710677855237
31
0.0
  0
LINE
 8
Layer0
10
23.000000000000004
20
8.500000000000002
30
0.0
11
23.38822856765378
21
8.5511112605664
31
0.0
  0
LINE
 8
Layer0
10
6.0
20
11.487969688928517
30
0.0
11
6.0
21
10.000000000000002
31
0.0
  0
LINE
 8
Layer0
10
72.15035860556682
20
65.99999999999999
30
0.0
11
72.15035860556682
21
79.00000000000003
31
0.0
  0
LINE
 8
Layer0
10
17.08819036706361
20
-43.659258285388134
30
0.0
11
19.499999913968104
21
-42.66025408751493
31
0.0
  0
LINE
 8
Layer0
10
6.244516756189545
20
11.479936335097745
30
0.0
11
6.0
21
11.487969688928517
31
0.0
  0
LINE
 8
Layer0
10
22.61177143234622
20
8.5511112605664
30
0.0
11
23.000000000000004
21
8.500000000000002
31
0.0
  0
LINE
 8
Layer0
10
4.500000000000003
20
-21.00000000000001
30
0.0
11
4.500000000000002
21
-34.00000000000001
31
0.0
  0
LINE
 8
Layer0
10
9.058265227605412
20
76.38098319443036
30
0.0
11
9.732367489796411
21
77.49870177513641
31
0.0
  0
LINE
 8
Layer0
10
9.805459705040807
20
81.32483800751801
30
0.0
11
9.174538150962986
21
82.467486981677
31
0.0
  0
LINE
 8
Layer0
10
5.897553083002648
20
84.44385481308835
30
0.0
11
4.592529266733806
21
84.46878520654128
31
0.0
  0
LINE
 8
Layer0
10
19.499999913968104
20
39.66025408751492
30
0.0
11
21.571067732840135
21
38.071067890890816
31
0.0
  0
LINE
 8
Layer0
10
1.242451983529054
20
82.61901680557102
30
0.0
11
0.5683497213380555
21
81.50129822486497
31
0.0
  0
LINE
 8
Layer0
10
6.975196613084546
20
74.8448989005271
30
0.0
11
8.117845587243552
21
75.47582045460493
31
0.0
  0
LINE
 8
Layer0
10
4.500000000000002
20
31.0
30
0.0
11
4.500000000000003
21
18.0
31
0.0
  0
LINE
 8
Layer0
10
0.5683497213380555
20
81.50129822486497
30
0.0
11
0.20650379247955752
21
80.24719447743611
31
0.0
  0
LINE
 8
Layer0
10
9.732367489796411
20
77.49870177513641
30
0.0
11
10.094213418654887
21
78.75280552256527
31
0.0
  0
LINE
 8
Layer0
10
0.20650379247955752
20
80.24719447743611
30
0.0
11
0.18157339902662706
21
78.94217066116727
31
0.0
  0
LINE
 8
Layer0
10
0.18157339902662706
20
78.94217066116727
30
0.0
11
0.495257506093637
21
77.67516199248337
31
0.0
  0
LINE
 8
Layer0
10
24.15925822753756
20
33.58819058296486
30
0.0
11
24.5
21
31.000000149011615
31
0.0
  0
LINE
 8
Layer0
10
0.495257506093637
20
77.67516199248337
30
0.0
11
1.1261790601714803
21
76.53251301832438
31
0.0
  0
LINE
 8
Layer0
10
14.499999925494194
20
41.0
30
0.0
11
17.08819036706361
21
40.65925828538813
31
0.0
  0
LINE
 8
Layer0
10
4.500000000000003
20
-21.00000000000001
30
0.0
11
24.5
21
-21.00000000000001
31
0.0
  0
LINE
 8
Layer0
10
3.325520598049892
20
84.15510109947428
30
0.0
11
2.1828716238909145
21
83.52417954539644
31
0.0
  0
LINE
 8
Layer0
10
4.403164128131813
20
74.55614518691303
30
0.0
11
5.708187944400655
21
74.5312147934601
31
0.0
  0
LINE
 8
Layer0
10
24.5
20
-21.00000000000001
30
0.0
11
24.5
21
-34.00000014901162
31
0.0
  0
LINE
 8
Layer0
10
7.151656830431495
20
84.08200888422986
30
0.0
11
5.897553083002648
21
84.44385481308835
31
0.0
  0
LINE
 8
Layer0
10
5.708187944400655
20
74.5312147934601
30
0.0
11
6.975196613084546
21
74.8448989005271
31
0.0
  0
LINE
 8
Layer0
10
9.174538150962986
20
82.467486981677
30
0.0
11
8.26937541113757
21
83.40790662203887
31
0.0
  0
LINE
 8
Layer0
10
10.094213418654887
20
78.75280552256527
30
0.0
11
10.119143812107817
21
80.05782933883411
31
0.0
  0
LINE
 8
Layer0
10
8.26937541113757
20
83.40790662203887
30
0.0
11
7.151656830431495
21
84.08200888422986
31
0.0
  0
LINE
 8
Layer0
10
4.500000000000003
20
18.0
30
0.0
11
24.5
21
18.0
31
0.0
  0
LINE
 8
Layer0
10
2.1828716238909145
20
83.52417954539644
30
0.0
11
1.242451983529054
21
82.61901680557102
31
0.0
  0
LINE
 8
Layer0
10
21.571067732840135
20
38.071067890890816
30
0.0
11
23.160253975756216
21
36.00000010753987
31
0.0
  0
LINE
 8
Layer0
10
17.08819036706361
20
40.65925828538813
30
0.0
11
19.499999913968104
21
39.66025408751492
31
0.0
  0
LINE
 8
Layer0
10
3.149060380702943
20
74.91799111577151
30
0.0
11
4.403164128131813
21
74.55614518691303
31
0.0
  0
LINE
 8
Layer0
10
5.8397459497379804
20
35.99999997849203
30
0.0
11
7.428932161792747
21
38.071067785523695
31
0.0
  0
LINE
 8
Layer0
10
2.031341799996896
20
75.59209337796251
30
0.0
11
3.149060380702943
21
74.91799111577151
31
0.0
  0
LINE
 8
Layer0
10
10.119143812107817
20
80.05782933883411
30
0.0
11
9.805459705040807
21
81.32483800751801
31
0.0
  0
LINE
 8
Layer0
10
7.428932161792747
20
38.071067785523695
30
0.0
11
9.499999956984054
21
39.660254013009116
31
0.0
  0
LINE
 8
Layer0
10
9.499999956984054
20
39.660254013009116
30
0.0
11
11.911809489002225
21
40.65925824682108
31
0.0
  0
LINE
 8
Layer0
10
1.1261790601714803
20
76.53251301832438
30
0.0
11
2.031341799996896
21
75.59209337796251
31
0.0
  0
LINE
 8
Layer0
10
23.160253975756216
20
36.00000010753987
30
0.0
11
24.15925822753756
21
33.58819058296486
31
0.0
  0
LINE
 8
Layer0
10
4.592529266733806
20
84.46878520654128
30
0.0
11
3.325520598049892
21
84.15510109947428
31
0.0
  0
LINE
 8
Layer0
10
8.117845587243552
20
75.47582045460493
30
0.0
11
9.058265227605412
21
76.38098319443036
31
0.0
  0
LINE
 8
Layer0
10
24.5
20
18.0
30
0.0
11
24.5
21
31.000000149011615
31
0.0
  0
LINE
 8
Layer0
10
11.911809489002225
20
40.65925824682108
30
0.0
11
14.499999925494194
21
41.0
31
0.0
  0
LINE
 8
Layer0
10
-96.30458586847423
20
-4.295305944237833
30
0.0
11
-98.83040350796652
21
-7.999999999999838
31
0.0
  0
LINE
 8
Layer0
10
-89.74924313634196
20
1.787163229479961
30
0.0
11
-93.2548235275609
21
-1.008443845105078
31
0.0
  0
LINE
 8
Layer0
10
-43.601804028978705
20
-16.32437198131077
30
0.0
11
-44.92342893510726
21
-12.039769269008339
31
0.0
  0
LINE
 8
Layer0
10
-93.2548235275609
20
-1.008443845105078
30
0.0
11
-96.30458586847423
21
-4.295305944237833
31
0.0
  0
LINE
 8
Layer0
10
-72.84964139443326
20
6.999999999999998
30
0.0
11
-77.32090937971849
21
6.66492478675388
31
0.0
  0
LINE
 8
Layer0
10
-100.77585385375951
20
-12.039769269007968
30
0.0
11
-102.09747875988813
21
-16.32437198131037
31
0.0
  0
LINE
 8
Layer0
10
-102.09747875988813
20
-16.32437198131037
30
0.0
11
-102.76575530986885
21
-20.758097192407085
31
0.0
  0
LINE
 8
Layer0
10
-64.00698616210653
20
-51.66718417358428
30
0.0
11
-59.8331292209069
21
-50.02906603707267
31
0.0
  0
LINE
 8
Layer0
10
-59.8331292209069
20
-50.02906603707267
30
0.0
11
-55.95003965252496
21
-47.787163229479965
31
0.0
  0
LINE
 8
Layer0
10
-98.83040350796652
20
-7.999999999999838
30
0.0
11
-100.77585385375951
21
-12.039769269007968
31
0.0
  0
LINE
 8
Layer0
10
-102.76575530986885
20
-20.758097192407085
30
0.0
11
-102.76575530986888
21
-25.24190280759253
31
0.0
  0
LINE
 8
Layer0
10
-52.44445926130603
20
-44.99155615489494
30
0.0
11
-49.39469692039269
21
-41.70469405576217
31
0.0
  0
LINE
 8
Layer0
10
-64.00698616210613
20
5.667184173584161
30
0.0
11
-68.37837340914803
21
6.664924786753823
31
0.0
  0
LINE
 8
Layer0
10
-42.93352747899807
20
-25.241902807592933
30
0.0
11
-42.93352747899804
21
-20.758097192407476
31
0.0
  0
LINE
 8
Layer0
10
-55.95003965252496
20
-47.787163229479965
30
0.0
11
-52.44445926130603
21
-44.99155615489494
31
0.0
  0
LINE
 8
Layer0
10
-42.93352747899804
20
-20.758097192407476
30
0.0
11
-43.601804028978705
21
-16.32437198131077
31
0.0
  0
LINE
 8
Layer0
10
-46.8688792809002
20
-8.000000000000172
30
0.0
11
-49.394696920392434
21
-4.295305944238154
31
0.0
  0
LINE
 8
Layer0
10
-49.39469692039269
20
-41.70469405576217
30
0.0
11
-46.8688792809004
21
-38.00000000000018
31
0.0
  0
LINE
 8
Layer0
10
-43.6018040289788
20
-29.675628018689636
30
0.0
11
-42.93352747899807
21
-25.241902807592933
31
0.0
  0
LINE
 8
Layer0
10
-55.950039652524644
20
1.7871632294797326
30
0.0
11
-59.83312922090653
21
4.029066037072478
31
0.0
  0
LINE
 8
Layer0
10
-49.394696920392434
20
-4.295305944238154
30
0.0
11
-52.444459261305724
21
-1.0084438451053486
31
0.0
  0
LINE
 8
Layer0
10
-59.83312922090653
20
4.029066037072478
30
0.0
11
-64.00698616210613
21
5.667184173584161
31
0.0
  0
LINE
 8
Layer0
10
-44.9234289351074
20
-33.960230730992045
30
0.0
11
-43.6018040289788
21
-29.675628018689636
31
0.0
  0
LINE
 8
Layer0
10
-68.37837340914803
20
6.664924786753823
30
0.0
11
-72.84964139443326
21
6.999999999999998
31
0.0
  0
LINE
 8
Layer0
10
-77.32090937971849
20
6.66492478675388
30
0.0
11
-81.69229662676041
21
5.667184173584279
31
0.0
  0
LINE
 8
Layer0
10
-81.69229662676041
20
5.667184173584279
30
0.0
11
-85.86615356796001
21
4.029066037072664
31
0.0
  0
LINE
 8
Layer0
10
-46.8688792809004
20
-38.00000000000018
30
0.0
11
-44.9234289351074
21
-33.960230730992045
31
0.0
  0
LINE
 8
Layer0
10
-72.84964139443366
20
-53.00000000000001
30
0.0
11
-68.37837340914844
21
-52.66492478675389
31
0.0
  0
LINE
 8
Layer0
10
-68.37837340914844
20
-52.66492478675389
30
0.0
11
-64.00698616210653
21
-51.66718417358428
31
0.0
  0
LINE
 8
Layer0
10
-44.92342893510726
20
-12.039769269008339
30
0.0
11
-46.8688792809002
21
-8.000000000000172
31
0.0
  0
LINE
 8
Layer0
10
-52.444459261305724
20
-1.0084438451053486
30
0.0
11
-55.950039652524644
21
1.7871632294797326
31
0.0
  0
LINE
 8
Layer0
10
-85.86615356796001
20
4.029066037072664
30
0.0
11
-89.74924313634196
21
1.787163229479961
31
0.0
  0
LINE
 8
Layer0
10
-100.77585385375966
20
-33.960230730991675
30
0.0
11
-98.83040350796672
21
-37.99999999999983
31
0.0
  0
LINE
 8
Layer0
10
-44.923428935106905
20
50.96023073099156
30
0.0
11
-46.86887928089988
21
54.999999999999716
31
0.0
  0
LINE
 8
Layer0
10
-72.84964139443304
20
69.99999999999972
30
0.0
11
-77.32090937971826
21
69.66492478675357
31
0.0
  0
LINE
 8
Layer0
10
-59.83312922090629
20
67.02906603707228
30
0.0
11
-64.00698616210592
21
68.66718417358393
31
0.0
  0
LINE
 8
Layer0
10
-64.00698616210592
20
68.66718417358393
30
0.0
11
-68.3783734091478
21
69.66492478675357
31
0.0
  0
LINE
 8
Layer0
10
-77.32090937971826
20
69.66492478675357
30
0.0
11
-81.69229662676017
21
68.66718417358393
31
0.0
  0
LINE
 8
Layer0
10
-102.09747875988774
20
46.675628018689146
30
0.0
11
-102.76575530986842
21
42.241902807592425
31
0.0
  0
LINE
 8
Layer0
10
-102.76575530986842
20
42.241902807592425
30
0.0
11
-102.76575530986842
21
37.75809719240698
31
0.0
  0
LINE
 8
Layer0
10
-98.8304035079662
20
54.999999999999694
30
0.0
11
-100.77585385375916
21
50.96023073099156
31
0.0
  0
LINE
 8
Layer0
10
-98.83040350796672
20
-37.99999999999983
30
0.0
11
-96.30458586847449
21
-41.70469405576185
31
0.0
  0
LINE
 8
Layer0
10
-96.30458586847449
20
-41.70469405576185
30
0.0
11
-93.25482352756119
21
-44.99155615489466
31
0.0
  0
LINE
 8
Layer0
10
-85.8661535679604
20
-50.02906603707248
30
0.0
11
-81.69229662676078
21
-51.66718417358417
31
0.0
  0
LINE
 8
Layer0
10
-42.93352747899763
20
37.758097192406986
30
0.0
11
-42.93352747899763
21
42.24190280759244
31
0.0
  0
LINE
 8
Layer0
10
-49.39469692039214
20
21.295305944237708
30
0.0
11
-46.868879280899876
21
24.999999999999716
31
0.0
  0
LINE
 8
Layer0
10
-98.83040350796618
20
24.999999999999712
30
0.0
11
-96.30458586847392
21
21.295305944237715
31
0.0
  0
LINE
 8
Layer0
10
-96.30458586847392
20
21.295305944237715
30
0.0
11
-93.25482352756062
21
18.00844384510492
31
0.0
  0
LINE
 8
Layer0
10
-102.76575530986888
20
-25.24190280759253
30
0.0
11
-102.09747875988823
21
-29.67562801868923
31
0.0
  0
LINE
 8
Layer0
10
-44.923428935106905
20
29.039769269007863
30
0.0
11
-43.60180402897833
21
33.32437198131028
31
0.0
  0
LINE
 8
Layer0
10
-93.25482352756062
20
18.00844384510492
30
0.0
11
-89.74924313634169
21
15.21283677051987
31
0.0
  0
LINE
 8
Layer0
10
-81.69229662676014
20
11.332815826415493
30
0.0
11
-77.32090937971826
21
10.335075213245863
31
0.0
  0
LINE
 8
Layer0
10
-77.32090937971826
20
10.335075213245863
30
0.0
11
-72.84964139443304
21
9.999999999999716
31
0.0
  0
LINE
 8
Layer0
10
-49.39469692039214
20
58.704694055761706
30
0.0
11
-52.444459261305454
21
61.9915561548945
31
0.0
  0
LINE
 8
Layer0
10
13.685892511500322
20
127.53553390593265
30
0.0
11
14.48048562448978
21
126.49999999999993
31
0.0
  0
LINE
 8
Layer0
10
-64.00698616210592
20
11.332815826415498
30
0.0
11
-59.83312922090629
21
12.970933962927141
31
0.0
  0
LINE
 8
Layer0
10
-43.60180402897833
20
33.32437198131028
30
0.0
11
-42.93352747899763
21
37.758097192406986
31
0.0
  0
LINE
 8
Layer0
10
13.685892511500322
20
120.46446609406716
30
0.0
11
12.650358605567583
21
119.6698729810777
31
0.0
  0
LINE
 8
Layer0
10
12.650358605567583
20
119.6698729810777
30
0.0
11
11.444453831080184
21
119.17037086855456
31
0.0
  0
LINE
 8
Layer0
10
11.444453831080184
20
119.17037086855456
30
0.0
11
10.150358605567575
21
118.9999999999999
31
0.0
  0
LINE
 8
Layer0
10
-55.950039652524374
20
15.21283677051987
30
0.0
11
-52.444459261305454
21
18.008443845104924
31
0.0
  0
LINE
 8
Layer0
10
-55.950039652524374
20
64.78716322947956
30
0.0
11
-59.83312922090629
21
67.02906603707228
31
0.0
  0
LINE
 8
Layer0
10
-77.3209093797189
20
-52.66492478675382
30
0.0
11
-72.84964139443366
21
-53.00000000000001
31
0.0
  0
LINE
 8
Layer0
10
14.979987737012932
20
125.2940952255125
30
0.0
11
15.15035860556759
21
123.99999999999991
31
0.0
  0
LINE
 8
Layer0
10
-68.3783734091478
20
69.66492478675357
30
0.0
11
-72.84964139443304
21
69.99999999999972
31
0.0
  0
LINE
 8
Layer0
10
-52.444459261305454
20
61.9915561548945
30
0.0
11
-55.950039652524374
21
64.78716322947956
31
0.0
  0
LINE
 8
Layer0
10
12.650358605567583
20
128.33012701892213
30
0.0
11
13.685892511500322
21
127.53553390593265
31
0.0
  0
LINE
 8
Layer0
10
15.15035860556759
20
123.99999999999991
30
0.0
11
14.979987737012932
21
122.70590477448731
31
0.0
  0
LINE
 8
Layer0
10
-68.3783734091478
20
10.335075213245863
30
0.0
11
-64.00698616210592
21
11.332815826415498
31
0.0
  0
LINE
 8
Layer0
10
-89.74924313634229
20
-47.78716322947974
30
0.0
11
-85.8661535679604
21
-50.02906603707248
31
0.0
  0
LINE
 8
Layer0
10
-93.25482352756119
20
-44.99155615489466
30
0.0
11
-89.74924313634229
21
-47.78716322947974
31
0.0
  0
LINE
 8
Layer0
10
-59.83312922090629
20
12.970933962927141
30
0.0
11
-55.950039652524374
21
15.21283677051987
31
0.0
  0
LINE
 8
Layer0
10
-85.86615356795977
20
67.02906603707228
30
0.0
11
-89.74924313634169
21
64.78716322947956
31
0.0
  0
LINE
 8
Layer0
10
-89.74924313634169
20
64.78716322947956
30
0.0
11
-93.25482352756062
21
61.99155615489449
31
0.0
  0
LINE
 8
Layer0
10
14.979987737012932
20
122.70590477448731
30
0.0
11
14.48048562448978
21
121.49999999999991
31
0.0
  0
LINE
 8
Layer0
10
11.444453831080184
20
128.82962913144524
30
0.0
11
12.650358605567583
21
128.33012701892213
31
0.0
  0
LINE
 8
Layer0
10
-81.69229662676078
20
-51.66718417358417
30
0.0
11
-77.3209093797189
21
-52.66492478675382
31
0.0
  0
LINE
 8
Layer0
10
-72.84964139443304
20
9.999999999999716
30
0.0
11
-68.3783734091478
21
10.335075213245863
31
0.0
  0
LINE
 8
Layer0
10
14.48048562448978
20
121.49999999999991
30
0.0
11
13.685892511500322
21
120.46446609406716
31
0.0
  0
LINE
 8
Layer0
10
-89.74924313634169
20
15.21283677051987
30
0.0
11
-85.86615356795978
21
12.970933962927147
31
0.0
  0
LINE
 8
Layer0
10
-81.69229662676017
20
68.66718417358393
30
0.0
11
-85.86615356795977
21
67.02906603707228
31
0.0
  0
LINE
 8
Layer0
10
-96.30458586847391
20
58.70469405576172
30
0.0
11
-98.8304035079662
21
54.999999999999694
31
0.0
  0
LINE
 8
Layer0
10
-102.09747875988774
20
33.324371981310286
30
0.0
11
-100.77585385375916
21
29.039769269007852
31
0.0
  0
LINE
 8
Layer0
10
-46.86887928089988
20
54.999999999999716
30
0.0
11
-49.39469692039214
21
58.704694055761706
31
0.0
  0
LINE
 8
Layer0
10
-102.09747875988823
20
-29.67562801868923
30
0.0
11
-100.77585385375966
21
-33.960230730991675
31
0.0
  0
LINE
 8
Layer0
10
-52.444459261305454
20
18.008443845104924
30
0.0
11
-49.39469692039214
21
21.295305944237708
31
0.0
  0
LINE
 8
Layer0
10
-46.868879280899876
20
24.999999999999716
30
0.0
11
-44.923428935106905
21
29.039769269007863
31
0.0
  0
LINE
 8
Layer0
10
-102.76575530986842
20
37.75809719240698
30
0.0
11
-102.09747875988774
21
33.324371981310286
31
0.0
  0
LINE
 8
Layer0
10
10.150358605567577
20
128.99999999999991
30
0.0
11
11.444453831080184
21
128.82962913144524
31
0.0
  0
LINE
 8
Layer0
10
-93.25482352756062
20
61.99155615489449
30
0.0
11
-96.30458586847391
21
58.70469405576172
31
0.0
  0
LINE
 8
Layer0
10
-100.77585385375916
20
29.039769269007852
30
0.0
11
-98.83040350796618
21
24.999999999999712
31
0.0
  0
LINE
 8
Layer0
10
-85.86615356795978
20
12.970933962927147
30
0.0
11
-81.69229662676014
21
11.332815826415493
31
0.0
  0
LINE
 8
Layer0
10
-42.93352747899763
20
42.24190280759244
30
0.0
11
-43.60180402897833
21
46.675628018689146
31
0.0
  0
LINE
 8
Layer0
10
14.48048562448978
20
126.49999999999993
30
0.0
11
14.979987737012932
21
125.2940952255125
31
0.0
  0
LINE
 8
Layer0
10
-100.77585385375916
20
50.96023073099156
30
0.0
11
-102.09747875988774
21
46.675628018689146
31
0.0
  0
LINE
 8
Layer0
10
-43.60180402897833
20
46.675628018689146
30
0.0
11
-44.923428935106905
21
50.96023073099156
31
0.0
  0
LINE
 8
Layer0
10
-0.20031982463716622
20
118.60372711590156
30
0.0
11
-0.5737793254669519
21
118.31034482758616
31
0.0
  0
LINE
 8
Layer0
10
10.889489333244807
20
125.30525314303512
30
0.0
11
10.526479692337409
21
125.45207882984596
31
0.0
  0
LINE
 8
Layer0
10
-3.7781180853176664
20
128.82119172721312
30
0.0
11
-4.200319824637099
21
128.60372711590162
31
0.0
  0
LINE
 8
Layer0
10
9.389541589168205
20
125.29273255840373
30
0.0
11
9.080881994008221
21
125.05176983096467
31
0.0
  0
LINE
 8
Layer0
10
-16.682579770166388
20
102.96863011834881
30
0.0
11
-0.5737793254669519
21
118.31034482758616
31
0.0
  0
LINE
 8
Layer0
10
-36.14373661994524
20
108.82962913144546
30
0.0
11
-34.84964139443264
21
109.00000000000011
31
0.0
  0
LINE
 8
Layer0
10
-24.849641394432616
20
102.98273523248272
30
0.0
11
-24.85654967736063
21
98.9827411980338
31
0.0
  0
LINE
 8
Layer0
10
11.59595630389673
20
124.40030899888124
30
0.0
11
11.443091163971332
21
124.76081701639927
31
0.0
  0
LINE
 8
Layer0
10
11.443091163971332
20
124.76081701639927
30
0.0
11
11.202128436532279
21
125.06947661155925
31
0.0
  0
LINE
 8
Layer0
10
10.13783802093613
20
125.49994774407654
30
0.0
11
9.750049606686238
21
125.44559769832911
31
0.0
  0
LINE
 8
Layer0
10
8.845105462532342
20
124.7391307276772
30
0.0
11
8.6982797757215
21
124.3761210867698
31
0.0
  0
LINE
 8
Layer0
10
-16.682579770166388
20
102.96863011834881
30
0.0
11
-16.689488053094397
21
98.9686360838999
31
0.0
  0
LINE
 8
Layer0
10
-16.689488053094397
20
98.9686360838999
30
0.0
11
-24.85654967736063
21
98.9827411980338
31
0.0
  0
LINE
 8
Layer0
10
16.98035860556742
20
105.91049623019008
30
0.0
11
11.980358605567421
21
105.91049623019008
31
0.0
  0
LINE
 8
Layer0
10
0.22188191468226573
20
118.82119172721308
30
0.0
11
-0.20031982463716622
21
118.60372711590156
31
0.0
  0
LINE
 8
Layer0
10
-24.498962964227882
20
109.39627288409842
30
0.0
11
-24.92116470354732
21
109.17880827278691
31
0.0
  0
LINE
 8
Layer0
10
11.202128436532279
20
125.06947661155925
30
0.0
11
10.889489333244807
21
125.30525314303512
31
0.0
  0
LINE
 8
Layer0
10
-39.84964139443262
20
104.00000000000013
30
0.0
11
-39.67927052587797
21
105.29409522551273
31
0.0
  0
LINE
 8
Layer0
10
-4.573779325466887
20
128.3103448275862
30
0.0
11
-24.125503463398097
21
109.68965517241385
31
0.0
  0
LINE
 8
Layer0
10
10.526479692337409
20
125.45207882984596
30
0.0
11
10.13783802093613
21
125.49994774407654
31
0.0
  0
LINE
 8
Layer0
10
10.150358605567543
20
123.99999999999993
30
0.0
11
10.162879190198955
21
122.50005225592332
31
0.0
  0
LINE
 8
Layer0
10
-39.67927052587797
20
105.29409522551273
30
0.0
11
-39.17976841335482
21
106.50000000000011
31
0.0
  0
LINE
 8
Layer0
10
-2.8496413944324126
20
128.99999999999997
30
0.0
11
10.150358605567577
21
128.99999999999991
31
0.0
  0
LINE
 8
Layer0
10
-34.849641394432616
20
99.00000000000013
30
0.0
11
-34.84273311150461
21
102.99999403444906
31
0.0
  0
LINE
 8
Layer0
10
-2.8496413944324126
20
128.99999999999997
30
0.0
11
-3.3224101973197877
21
128.95489096682851
31
0.0
  0
LINE
 8
Layer0
10
-34.84273311150461
20
102.99999403444906
30
0.0
11
-24.849641394432616
21
102.98273523248272
31
0.0
  0
LINE
 8
Layer0
10
8.857626047163754
20
123.2391829836006
30
0.0
11
9.098588774602806
21
122.9305233884406
31
0.0
  0
LINE
 8
Layer0
10
1.150358605567515
20
118.99999999999994
30
0.0
11
0.6775898026801421
21
118.9548909668285
31
0.0
  0
LINE
 8
Layer0
10
11.219835217126864
20
122.94823016903518
30
0.0
11
11.455611748602745
21
123.26086927232267
31
0.0
  0
LINE
 8
Layer0
10
8.704760907238356
20
123.59969100111861
30
0.0
11
8.857626047163754
21
123.2391829836006
31
0.0
  0
LINE
 8
Layer0
10
-24.125503463398097
20
109.68965517241385
30
0.0
11
-24.498962964227882
21
109.39627288409842
31
0.0
  0
LINE
 8
Layer0
10
10.162879190198955
20
122.50005225592332
30
0.0
11
10.550667604448849
21
122.55440230167075
31
0.0
  0
LINE
 8
Layer0
10
-39.17976841335482
20
106.50000000000011
30
0.0
11
-38.38517530036537
21
107.53553390593285
31
0.0
  0
LINE
 8
Layer0
10
-39.84964139443263
20
99.00863536653883
30
0.0
11
-39.84964139443262
21
104.00000000000013
31
0.0
  0
LINE
 8
Layer0
10
10.550667604448849
20
122.55440230167075
30
0.0
11
10.91117562196688
21
122.70726744159613
31
0.0
  0
LINE
 8
Layer0
10
1.150358605567515
20
118.99999999999994
30
0.0
11
10.150358605567575
21
118.9999999999999
31
0.0
  0
LINE
 8
Layer0
10
-25.376872591545197
20
109.04510903317151
30
0.0
11
-25.84964139443257
21
109.00000000000007
31
0.0
  0
LINE
 8
Layer0
10
-4.200319824637099
20
128.60372711590162
30
0.0
11
-4.573779325466887
21
128.3103448275862
31
0.0
  0
LINE
 8
Layer0
10
-37.34964139443263
20
108.33012701892231
30
0.0
11
-36.14373661994524
21
108.82962913144546
31
0.0
  0
LINE
 8
Layer0
10
9.774237518797678
20
122.5479211701539
30
0.0
11
10.162879190198955
21
122.50005225592332
31
0.0
  0
LINE
 8
Layer0
10
-38.38517530036537
20
107.53553390593285
30
0.0
11
-37.34964139443263
21
108.33012701892231
31
0.0
  0
LINE
 8
Layer0
10
9.080881994008221
20
125.05176983096467
30
0.0
11
8.845105462532342
21
124.7391307276772
31
0.0
  0
LINE
 8
Layer0
10
-34.84964139443264
20
109.00000000000011
30
0.0
11
-25.84964139443257
21
109.00000000000007
31
0.0
  0
LINE
 8
Layer0
10
10.13783802093613
20
125.49994774407654
30
0.0
11
10.150358605567543
21
123.99999999999993
31
0.0
  0
LINE
 8
Layer0
10
26.980358605567417
20
101.8932195315527
30
0.0
11
35.15035860556739
21
101.8932195315527
31
0.0
  0
LINE
 8
Layer0
10
11.980358605567421
20
105.91049623019008
30
0.0
11
11.98035860556742
21
101.91912563116877
31
0.0
  0
LINE
 8
Layer0
10
10.150358605567543
20
123.99999999999993
30
0.0
11
11.650306349644143
21
124.01252058463135
31
0.0
  0
LINE
 8
Layer0
10
11.98035860556742
20
101.91912563116877
30
0.0
11
16.98035860556742
21
101.91049026463008
31
0.0
  0
LINE
 8
Layer0
10
9.411227877890278
20
122.69474685696474
30
0.0
11
9.774237518797678
21
122.5479211701539
31
0.0
  0
LINE
 8
Layer0
10
-24.92116470354732
20
109.17880827278691
30
0.0
11
-25.376872591545197
21
109.04510903317151
31
0.0
  0
LINE
 8
Layer0
10
8.650410861490942
20
123.98747941536851
30
0.0
11
8.704760907238356
21
123.59969100111861
31
0.0
  0
LINE
 8
Layer0
10
8.650410861490942
20
123.98747941536851
30
0.0
11
10.150358605567543
21
123.99999999999993
31
0.0
  0
LINE
 8
Layer0
10
11.455611748602745
20
123.26086927232267
30
0.0
11
11.602437435413584
21
123.62387891323006
31
0.0
  0
LINE
 8
Layer0
10
0.6775898026801421
20
118.9548909668285
30
0.0
11
0.22188191468226573
21
118.82119172721308
31
0.0
  0
LINE
 8
Layer0
10
-39.84964139443263
20
99.00863536653883
30
0.0
11
-34.849641394432616
21
99.00000000000013
31
0.0
  0
LINE
 8
Layer0
10
9.750049606686238
20
125.44559769832911
30
0.0
11
9.389541589168205
21
125.29273255840373
31
0.0
  0
LINE
 8
Layer0
10
11.602437435413584
20
123.62387891323006
30
0.0
11
11.650306349644143
21
124.01252058463135
31
0.0
  0
LINE
 8
Layer0
10
8.6982797757215
20
124.3761210867698
30
0.0
11
8.650410861490942
21
123.98747941536851
31
0.0
  0
LINE
 8
Layer0
10
35.150358605567426
20
105.87911530818849
30
0.0
11
26.980358605567417
21
105.87911530818849
31
0.0
  0
LINE
 8
Layer0
10
26.980358605567417
20
105.87911530818849
30
0.0
11
26.980358605567417
21
101.8932195315527
31
0.0
  0
LINE
 8
Layer0
10
-3.3224101973197877
20
128.95489096682851
30
0.0
11
-3.7781180853176664
21
128.82119172721312
31
0.0
  0
LINE
 8
Layer0
10
11.650306349644143
20
124.01252058463135
30
0.0
11
11.59595630389673
21
124.40030899888124
31
0.0
  0
LINE
 8
Layer0
10
9.098588774602806
20
122.9305233884406
30
0.0
11
9.411227877890278
21
122.69474685696474
31
0.0
  0
LINE
 8
Layer0
10
10.91117562196688
20
122.70726744159613
30
0.0
11
11.219835217126864
21
122.94823016903518
31
0.0
  0
LINE
 8
Layer0
10
8.667395692422874
20
103.79460488799025
30
0.0
11
8.717345903675188
21
103.6740144105415
31
0.0
  0
LINE
 8
Layer0
10
9.020949083016147
20
103.44105149739697
30
0.0
11
9.150358605567408
21
103.42401441054152
31
0.0
  0
LINE
 8
Layer0
10
2.900358605567407
20
103.5013659719885
30
0.0
11
3.0209490830161467
21
103.45141576073618
31
0.0
  0
LINE
 8
Layer0
10
35.15035860556739
20
101.8932195315527
30
0.0
11
34.92456530199282
21
100.74242501355054
31
0.0
  0
LINE
 8
Layer0
10
34.274842866763045
20
99.7661200428769
30
0.0
11
33.30047599562145
21
99.11349469934152
31
0.0
  0
LINE
 8
Layer0
10
3.1503586055674075
20
104.43437867388072
30
0.0
11
3.020949083016147
21
104.41734158702526
31
0.0
  0
LINE
 8
Layer0
10
2.6673956924228737
20
104.06378819643199
30
0.0
11
2.6503586055674075
21
103.93437867388072
31
0.0
  0
LINE
 8
Layer0
10
3.020949083016147
20
104.41734158702526
30
0.0
11
2.9003586055674075
21
104.36739137577294
31
0.0
  0
LINE
 8
Layer0
10
0.15035860556739142
20
101.93955690839931
30
0.0
11
0.15035860556739328
21
101.8932195315527
31
0.0
  0
LINE
 8
Layer0
10
3.650358605567407
20
103.93437867388072
30
0.0
11
3.6333215187119414
21
104.06378819643199
31
0.0
  0
LINE
 8
Layer0
10
3.1503586055674075
20
103.43437867388072
30
0.0
11
3.2797681281186675
21
103.45141576073618
31
0.0
  0
LINE
 8
Layer0
10
2.0035034096112323
20
108.70651981880135
30
0.0
11
1.0308677277752394
21
108.05753620893677
31
0.0
  0
LINE
 8
Layer0
10
3.2797681281186675
20
103.45141576073618
30
0.0
11
3.400358605567407
21
103.5013659719885
31
0.0
  0
LINE
 8
Layer0
10
9.633321518711943
20
104.05342393309279
30
0.0
11
9.583371307459627
21
104.17401441054153
31
0.0
  0
LINE
 8
Layer0
10
8.900358605567408
20
104.35702711243373
30
0.0
11
8.796805214974134
21
104.2775678011348
31
0.0
  0
LINE
 8
Layer0
10
8.796805214974134
20
104.2775678011348
30
0.0
11
8.717345903675188
21
104.17401441054153
31
0.0
  0
LINE
 8
Layer0
10
2.6673956924228737
20
103.80496915132944
30
0.0
11
2.7173459036751884
21
103.6843786738807
31
0.0
  0
LINE
 8
Layer0
10
9.020949083016149
20
104.40697732368605
30
0.0
11
8.900358605567408
21
104.35702711243373
31
0.0
  0
LINE
 8
Layer0
10
0.3772311239949115
20
100.7899147603587
30
0.0
11
1.0272040506666946
21
99.8148848106839
31
0.0
  0
LINE
 8
Layer0
10
2.7173459036751884
20
104.18437867388073
30
0.0
11
2.6673956924228737
21
104.06378819643199
31
0.0
  0
LINE
 8
Layer0
10
3.0209490830161467
20
103.45141576073618
30
0.0
11
3.1503586055674075
21
103.43437867388072
31
0.0
  0
LINE
 8
Layer0
10
34.273513160468134
20
108.00378740590389
30
0.0
11
33.29960721415935
21
108.65544330890292
31
0.0
  0
LINE
 8
Layer0
10
2.7173459036751884
20
103.6843786738807
30
0.0
11
2.7968052149741336
21
103.58082528328744
31
0.0
  0
LINE
 8
Layer0
10
3.1503586055673978
20
98.93437121430611
30
0.0
11
32.150358605567405
21
98.88427727483322
31
0.0
  0
LINE
 8
Layer0
10
0.15035860556743513
20
105.9395628739593
30
0.0
11
0.15035860556739142
21
101.93955690839931
31
0.0
  0
LINE
 8
Layer0
10
3.4003586055674075
20
104.36739137577294
30
0.0
11
3.279768128118668
21
104.41734158702526
31
0.0
  0
LINE
 8
Layer0
10
34.92348608713991
20
107.02875745622912
30
0.0
11
34.273513160468134
21
108.00378740590389
31
0.0
  0
LINE
 8
Layer0
10
3.5039119961606806
20
103.58082528328744
30
0.0
11
3.5833713074596263
21
103.6843786738807
31
0.0
  0
LINE
 8
Layer0
10
3.5833713074596263
20
103.6843786738807
30
0.0
11
3.6333215187119414
21
103.80496915132944
31
0.0
  0
LINE
 8
Layer0
10
3.400358605567407
20
103.5013659719885
30
0.0
11
3.5039119961606806
21
103.58082528328744
31
0.0
  0
LINE
 8
Layer0
10
9.279768128118668
20
104.40697732368605
30
0.0
11
9.150358605567408
21
104.42401441054152
31
0.0
  0
LINE
 8
Layer0
10
9.150358605567408
20
104.42401441054152
30
0.0
11
9.020949083016149
21
104.40697732368605
31
0.0
  0
LINE
 8
Layer0
10
3.1503586055674164
20
108.93438612820606
30
0.0
11
2.0035034096112323
21
108.70651981880135
31
0.0
  0
LINE
 8
Layer0
10
33.29960721415935
20
108.65544330890292
30
0.0
11
32.15035860556744
21
108.8843010022817
31
0.0
  0
LINE
 8
Layer0
10
2.001109996975489
20
99.1632289076849
30
0.0
11
3.1503586055673978
21
98.93437121430611
31
0.0
  0
LINE
 8
Layer0
10
0.15035860556739328
20
101.8932195315527
30
0.0
11
0.3772311239949115
21
100.7899147603587
31
0.0
  0
LINE
 8
Layer0
10
3.5833713074596263
20
104.18437867388073
30
0.0
11
3.5039119961606815
21
104.28793206447399
31
0.0
  0
LINE
 8
Layer0
10
16.98035860556742
20
101.91049026463008
30
0.0
11
16.98035860556742
21
105.91049623019008
31
0.0
  0
LINE
 8
Layer0
10
35.150358605567426
20
105.87911530818849
30
0.0
11
34.92348608713991
21
107.02875745622912
31
0.0
  0
LINE
 8
Layer0
10
34.92456530199282
20
100.74242501355054
30
0.0
11
34.274842866763045
21
99.7661200428769
31
0.0
  0
LINE
 8
Layer0
10
32.15035860556744
20
108.8843010022817
30
0.0
11
3.1503586055674164
21
108.93438612820606
31
0.0
  0
LINE
 8
Layer0
10
3.5039119961606815
20
104.28793206447399
30
0.0
11
3.4003586055674075
21
104.36739137577294
31
0.0
  0
LINE
 8
Layer0
10
0.38020527517788894
20
107.0860228182759
30
0.0
11
0.15035860556743513
21
105.9395628739593
31
0.0
  0
LINE
 8
Layer0
10
3.279768128118668
20
104.41734158702526
30
0.0
11
3.1503586055674075
21
104.43437867388072
31
0.0
  0
LINE
 8
Layer0
10
2.9003586055674075
20
104.36739137577294
30
0.0
11
2.796805214974134
21
104.28793206447399
31
0.0
  0
LINE
 8
Layer0
10
1.0308677277752394
20
108.05753620893677
30
0.0
11
0.38020527517788894
21
107.0860228182759
31
0.0
  0
LINE
 8
Layer0
10
2.6503586055674075
20
103.93437867388072
30
0.0
11
2.6673956924228737
21
103.80496915132944
31
0.0
  0
LINE
 8
Layer0
10
2.7968052149741336
20
103.58082528328744
30
0.0
11
2.900358605567407
21
103.5013659719885
31
0.0
  0
LINE
 8
Layer0
10
3.6333215187119414
20
103.80496915132944
30
0.0
11
3.650358605567407
21
103.93437867388072
31
0.0
  0
LINE
 8
Layer0
10
9.583371307459627
20
104.17401441054153
30
0.0
11
9.503911996160681
21
104.2775678011348
31
0.0
  0
LINE
 8
Layer0
10
9.650358605567408
20
103.92401441054152
30
0.0
11
9.633321518711943
21
104.05342393309279
31
0.0
  0
LINE
 8
Layer0
10
3.6333215187119414
20
104.06378819643199
30
0.0
11
3.5833713074596263
21
104.18437867388073
31
0.0
  0
LINE
 8
Layer0
10
9.503911996160681
20
104.2775678011348
30
0.0
11
9.400358605567408
21
104.35702711243373
31
0.0
  0
LINE
 8
Layer0
10
8.717345903675188
20
104.17401441054153
30
0.0
11
8.667395692422874
21
104.05342393309279
31
0.0
  0
LINE
 8
Layer0
10
8.717345903675188
20
103.6740144105415
30
0.0
11
8.796805214974134
21
103.57046101994824
31
0.0
  0
LINE
 8
Layer0
10
8.796805214974134
20
103.57046101994824
30
0.0
11
8.900358605567407
21
103.49100170864929
31
0.0
  0
LINE
 8
Layer0
10
8.667395692422874
20
104.05342393309279
30
0.0
11
8.650358605567407
21
103.92401441054152
31
0.0
  0
LINE
 8
Layer0
10
2.796805214974134
20
104.28793206447399
30
0.0
11
2.7173459036751884
21
104.18437867388073
31
0.0
  0
LINE
 8
Layer0
10
1.0272040506666946
20
99.8148848106839
30
0.0
11
2.001109996975489
21
99.1632289076849
31
0.0
  0
LINE
 8
Layer0
10
9.400358605567408
20
104.35702711243373
30
0.0
11
9.279768128118668
21
104.40697732368605
31
0.0
  0
LINE
 8
Layer0
10
8.650358605567407
20
103.92401441054152
30
0.0
11
8.667395692422874
21
103.79460488799025
31
0.0
  0
LINE
 8
Layer0
10
8.900358605567407
20
103.49100170864929
30
0.0
11
9.020949083016147
21
103.44105149739697
31
0.0
  0
LINE
 8
Layer0
10
9.150358605567408
20
103.42401441054152
30
0.0
11
9.279768128118668
21
103.44105149739697
31
0.0
  0
LINE
 8
Layer0
10
33.30047599562145
20
99.11349469934152
30
0.0
11
32.150358605567405
21
98.88427727483322
31
0.0
  0
LINE
 8
Layer0
10
56.88499174083732
20
116.65224093497713
30
0.0
11
57.650358605567504
21
116.49999999999972
31
0.0
  0
LINE
 8
Layer0
10
70.06457216794061
20
117.08578643762655
30
0.0
11
70.49811767059009
21
117.73463313526948
31
0.0
  0
LINE
 8
Layer0
10
87.56457216794063
20
123.4142135623727
30
0.0
11
86.91572547029772
21
123.84775906502217
31
0.0
  0
LINE
 8
Layer0
10
55.65035860556751
20
118.49999999999972
30
0.0
11
55.650358605567554
21
121.99999999999973
31
0.0
  0
LINE
 8
Layer0
10
8.650358605567407
20
103.92401441054152
30
0.0
11
9.150358605567408
21
103.92401441054152
31
0.0
  0
LINE
 8
Layer0
10
9.633321518711943
20
103.79460488799025
30
0.0
11
9.650358605567408
21
103.92401441054152
31
0.0
  0
LINE
 8
Layer0
10
9.400358605567407
20
103.49100170864929
30
0.0
11
9.503911996160681
21
103.57046101994824
31
0.0
  0
LINE
 8
Layer0
10
53.65035860556755
20
123.99999999999974
30
0.0
11
54.41572547029773
21
123.84775906502232
31
0.0
  0
LINE
 8
Layer0
10
65.15035860556748
20
112.82731354868632
30
0.0
11
65.1503586055674
21
102.82729863478636
31
0.0
  0
LINE
 8
Layer0
10
69.1503586055674
20
102.82729863478636
30
0.0
11
69.15035860556748
21
112.82731354868632
31
0.0
  0
LINE
 8
Layer0
10
40.15035860556755
20
123.9999999999998
30
0.0
11
39.384991740837364
21
123.84775906502237
31
0.0
  0
LINE
 8
Layer0
10
42.279768128118775
20
119.38408376134966
30
0.0
11
42.40035860556751
21
119.43403397260198
31
0.0
  0
LINE
 8
Layer0
10
2.6503586055674075
20
103.93437867388072
30
0.0
11
3.1503586055674075
21
103.93437867388072
31
0.0
  0
LINE
 8
Layer0
10
42.40035860556751
20
119.43403397260198
30
0.0
11
42.50391199616079
21
119.51349328390091
31
0.0
  0
LINE
 8
Layer0
10
61.1503586055674
20
102.83420692801734
30
0.0
11
61.15035860556747
21
112.83422184191727
31
0.0
  0
LINE
 8
Layer0
10
38.301606951185725
20
100.10749853262155
30
0.0
11
38.73492223563358
21
99.45747856617169
31
0.0
  0
LINE
 8
Layer0
10
87.56457427708446
20
99.37681144102686
30
0.0
11
87.99812042631936
21
100.02565910635325
31
0.0
  0
LINE
 8
Layer0
10
9.279768128118668
20
103.44105149739697
30
0.0
11
9.400358605567407
21
103.49100170864929
31
0.0
  0
LINE
 8
Layer0
10
55.65035860556751
20
118.49999999999972
30
0.0
11
55.80259954054494
21
117.73463313526955
31
0.0
  0
LINE
 8
Layer0
10
56.23614504319442
20
117.08578643762662
30
0.0
11
56.88499174083732
21
116.65224093497713
31
0.0
  0
LINE
 8
Layer0
10
86.91572661175809
20
98.94326529179196
30
0.0
11
87.56457427708446
21
99.37681144102686
31
0.0
  0
LINE
 8
Layer0
10
71.23614504319444
20
123.41421356237277
30
0.0
11
71.88499174083734
21
123.84775906502225
31
0.0
  0
LINE
 8
Layer0
10
39.384991740837364
20
123.84775906502237
30
0.0
11
38.73614504319444
21
123.4142135623729
31
0.0
  0
LINE
 8
Layer0
10
38.30259954054496
20
122.76536686473
30
0.0
11
38.15035860556753
21
121.9999999999998
31
0.0
  0
LINE
 8
Layer0
10
86.15035860556742
20
98.79102412976391
30
0.0
11
86.91572661175809
21
98.94326529179196
31
0.0
  0
LINE
 8
Layer0
10
88.15035860556753
20
121.9999999999996
30
0.0
11
87.9981176705901
21
122.76536686472977
31
0.0
  0
LINE
 8
Layer0
10
70.80259954054496
20
122.76536686472983
30
0.0
11
71.23614504319444
21
123.41421356237277
31
0.0
  0
LINE
 8
Layer0
10
53.65035860556755
20
123.99999999999974
30
0.0
11
40.15035860556755
21
123.9999999999998
31
0.0
  0
LINE
 8
Layer0
10
38.15035860556753
20
121.9999999999998
30
0.0
11
38.150358605567384
21
100.87392663131529
31
0.0
  0
LINE
 8
Layer0
10
9.503911996160681
20
103.57046101994824
30
0.0
11
9.583371307459627
21
103.6740144105415
31
0.0
  0
LINE
 8
Layer0
10
3.1503586055674075
20
103.93437867388072
30
0.0
11
3.1503586055674075
21
103.43437867388072
31
0.0
  0
LINE
 8
Layer0
10
38.150358605567384
20
100.87392663131529
30
0.0
11
38.301606951185725
21
100.10749853262155
31
0.0
  0
LINE
 8
Layer0
10
71.88499174083734
20
123.84775906502225
30
0.0
11
72.65035860556752
21
123.99999999999966
31
0.0
  0
LINE
 8
Layer0
10
70.65035860556753
20
121.99999999999966
30
0.0
11
70.80259954054496
21
122.76536686472983
31
0.0
  0
LINE
 8
Layer0
10
68.6503586055675
20
116.49999999999964
30
0.0
11
69.41572547029769
21
116.65224093497707
31
0.0
  0
LINE
 8
Layer0
10
86.91572547029772
20
123.84775906502217
30
0.0
11
86.15035860556753
21
123.99999999999959
31
0.0
  0
LINE
 8
Layer0
10
39.38419286650611
20
99.02304129750569
30
0.0
11
40.150358605567384
21
98.87046950191983
31
0.0
  0
LINE
 8
Layer0
10
40.150358605567384
20
98.87046950191983
30
0.0
11
86.15035860556742
21
98.79102412976391
31
0.0
  0
LINE
 8
Layer0
10
88.1503615883474
20
100.7910271125439
30
0.0
11
88.15035860556753
21
121.9999999999996
31
0.0
  0
LINE
 8
Layer0
10
70.65035860556753
20
121.99999999999966
30
0.0
11
70.65035860556753
21
118.49999999999964
31
0.0
  0
LINE
 8
Layer0
10
9.150358605567408
20
103.92401441054152
30
0.0
11
9.150358605567408
21
103.42401441054152
31
0.0
  0
LINE
 8
Layer0
10
68.6503586055675
20
116.49999999999964
30
0.0
11
57.650358605567504
21
116.49999999999972
31
0.0
  0
LINE
 8
Layer0
10
55.80259954054494
20
117.73463313526955
30
0.0
11
56.23614504319442
21
117.08578643762662
31
0.0
  0
LINE
 8
Layer0
10
9.583371307459627
20
103.6740144105415
30
0.0
11
9.633321518711943
21
103.79460488799025
31
0.0
  0
LINE
 8
Layer0
10
70.49811767059009
20
117.73463313526948
30
0.0
11
70.65035860556753
21
118.49999999999964
31
0.0
  0
LINE
 8
Layer0
10
3.1503586055674075
20
103.93437867388072
30
0.0
11
3.650358605567407
21
103.93437867388072
31
0.0
  0
LINE
 8
Layer0
10
69.41572547029769
20
116.65224093497707
30
0.0
11
70.06457216794061
21
117.08578643762655
31
0.0
  0
LINE
 8
Layer0
10
61.15035860556747
20
112.83422184191727
30
0.0
11
57.150358605567476
21
112.84113013514822
31
0.0
  0
LINE
 8
Layer0
10
3.1503586055674075
20
104.43437867388072
30
0.0
11
3.1503586055674075
21
103.93437867388072
31
0.0
  0
LINE
 8
Layer0
10
9.150358605567408
20
103.92401441054152
30
0.0
11
9.650358605567408
21
103.92401441054152
31
0.0
  0
LINE
 8
Layer0
10
38.73492223563358
20
99.45747856617169
30
0.0
11
39.38419286650611
21
99.02304129750569
31
0.0
  0
LINE
 8
Layer0
10
57.150358605567476
20
112.84113013514822
30
0.0
11
57.150358605567476
21
102.84111522124827
31
0.0
  0
LINE
 8
Layer0
10
57.150358605567476
20
102.84111522124827
30
0.0
11
61.1503586055674
21
102.83420692801734
31
0.0
  0
LINE
 8
Layer0
10
38.73614504319444
20
123.4142135623729
30
0.0
11
38.30259954054496
21
122.76536686473
31
0.0
  0
LINE
 8
Layer0
10
87.99812042631936
20
100.02565910635325
30
0.0
11
88.1503615883474
21
100.7910271125439
31
0.0
  0
LINE
 8
Layer0
10
86.15035860556753
20
123.99999999999959
30
0.0
11
72.65035860556752
21
123.99999999999966
31
0.0
  0
LINE
 8
Layer0
10
65.1503586055674
20
102.82729863478636
30
0.0
11
69.1503586055674
21
102.82729863478636
31
0.0
  0
LINE
 8
Layer0
10
55.498117670590126
20
122.76536686472993
30
0.0
11
55.650358605567554
21
121.99999999999973
31
0.0
  0
LINE
 8
Layer0
10
9.150358605567408
20
104.42401441054152
30
0.0
11
9.150358605567408
21
103.92401441054152
31
0.0
  0
LINE
 8
Layer0
10
69.15035860556748
20
112.82731354868632
30
0.0
11
65.15035860556748
21
112.82731354868632
31
0.0
  0
LINE
 8
Layer0
10
87.9981176705901
20
122.76536686472977
30
0.0
11
87.56457216794063
21
123.4142135623727
31
0.0
  0
LINE
 8
Layer0
10
55.064572167940646
20
123.41421356237284
30
0.0
11
55.498117670590126
21
122.76536686472993
31
0.0
  0
LINE
 8
Layer0
10
54.41572547029773
20
123.84775906502232
30
0.0
11
55.064572167940646
21
123.41421356237284
31
0.0
  0
LINE
 8
Layer0
10
42.15035860556751
20
119.36704667449419
30
0.0
11
42.279768128118775
21
119.38408376134966
31
0.0
  0
LINE
 8
Layer0
10
42.65035860556751
20
119.86704667449419
30
0.0
11
42.63332151871205
21
119.99645619704546
31
0.0
  0
LINE
 8
Layer0
10
41.717345903675294
20
120.1170466744942
30
0.0
11
41.66739569242298
21
119.99645619704546
31
0.0
  0
LINE
 8
Layer0
10
42.040679236895116
20
103.35484345657329
30
0.0
11
41.9181588114117
21
103.30983421091389
31
0.0
  0
LINE
 8
Layer0
10
41.717345903675294
20
119.6170466744942
30
0.0
11
41.796805214974235
21
119.51349328390091
31
0.0
  0
LINE
 8
Layer0
10
42.59317149561695
20
103.09922111502001
30
0.0
11
42.517985283283586
21
103.20591750826004
31
0.0
  0
LINE
 8
Layer0
10
41.65077149658341
20
102.88733684539677
30
0.0
11
41.66253646985843
21
102.75734195219206
31
0.0
  0
LINE
 8
Layer0
10
41.66253646985843
20
102.75734195219206
30
0.0
11
41.707545715517824
21
102.63482152670863
31
0.0
  0
LINE
 8
Layer0
10
41.78273192785119
20
102.52812513346862
30
0.0
11
41.8829712907391
21
102.44452395534721
31
0.0
  0
LINE
 8
Layer0
10
42.170674130099826
20
103.3666084298483
30
0.0
11
42.040679236895116
21
103.35484345657329
31
0.0
  0
LINE
 8
Layer0
10
42.001432657254135
20
102.38971527447586
30
0.0
11
42.130043081034955
21
102.36743421188037
31
0.0
  0
LINE
 8
Layer0
10
42.26003797423966
20
102.37919918515537
30
0.0
11
42.38255839972308
21
102.42420843081477
31
0.0
  0
LINE
 8
Layer0
10
42.48925479296309
20
102.49939464314814
30
0.0
11
42.572855971084515
21
102.59963400603606
31
0.0
  0
LINE
 8
Layer0
10
42.130043081034955
20
102.36743421188037
30
0.0
11
42.26003797423966
21
102.37919918515537
31
0.0
  0
LINE
 8
Layer0
10
42.638180741276344
20
102.9767006895366
30
0.0
11
42.59317149561695
21
103.09922111502001
31
0.0
  0
LINE
 8
Layer0
10
42.29928455388064
20
103.34432736725279
30
0.0
11
42.170674130099826
21
103.3666084298483
31
0.0
  0
LINE
 8
Layer0
10
83.87788399073801
20
119.37527527482129
30
0.0
11
83.99567417509603
21
119.31903863796975
31
0.0
  0
LINE
 8
Layer0
10
42.02094908301625
20
119.38408376134966
30
0.0
11
42.15035860556751
21
119.36704667449419
31
0.0
  0
LINE
 8
Layer0
10
41.707545715517824
20
102.63482152670863
30
0.0
11
41.78273192785119
21
102.52812513346862
31
0.0
  0
LINE
 8
Layer0
10
83.99567417509603
20
119.31903863796975
30
0.0
11
84.12400586890047
21
119.29520456108921
31
0.0
  0
LINE
 8
Layer0
10
41.8829712907391
20
102.44452395534721
30
0.0
11
42.001432657254135
21
102.38971527447586
31
0.0
  0
LINE
 8
Layer0
10
84.56959323595468
20
119.52203467002907
30
0.0
11
84.62582987280622
21
119.6398248543871
31
0.0
  0
LINE
 8
Layer0
10
41.65035860556751
20
119.86704667449419
30
0.0
11
41.66739569242298
21
119.73763715194292
31
0.0
  0
LINE
 8
Layer0
10
42.633321518712044
20
119.73763715194292
30
0.0
11
42.65035860556751
21
119.86704667449419
31
0.0
  0
LINE
 8
Layer0
10
42.58337130745973
20
120.11704667449418
30
0.0
11
42.50391199616079
21
120.22060006508747
31
0.0
  0
LINE
 8
Layer0
10
84.12400586890047
20
119.29520456108921
30
0.0
11
84.15035898567324
21
119.29726876838798
31
0.0
  0
LINE
 8
Layer0
10
42.279768128118775
20
120.35000958763874
30
0.0
11
42.15035860556751
21
120.36704667449419
31
0.0
  0
LINE
 8
Layer0
10
41.90035860556751
20
119.43403397260198
30
0.0
11
42.02094908301625
21
119.38408376134966
31
0.0
  0
LINE
 8
Layer0
10
84.62582987280622
20
119.6398248543871
30
0.0
11
84.64966394968677
21
119.76815654819154
31
0.0
  0
LINE
 8
Layer0
10
42.58337130745973
20
119.61704667449418
30
0.0
11
42.633321518712044
21
119.73763715194292
31
0.0
  0
LINE
 8
Layer0
10
41.796805214974235
20
120.22060006508747
30
0.0
11
41.717345903675294
21
120.1170466744942
31
0.0
  0
LINE
 8
Layer0
10
42.649945714551365
20
102.84670579633189
30
0.0
11
42.638180741276344
21
102.9767006895366
31
0.0
  0
LINE
 8
Layer0
10
84.6394712136446
20
119.89828415858778
30
0.0
11
84.59594628279667
21
120.0213397039734
31
0.0
  0
LINE
 8
Layer0
10
41.796805214974235
20
119.51349328390091
30
0.0
11
41.90035860556751
21
119.43403397260198
31
0.0
  0
LINE
 8
Layer0
10
84.59594628279667
20
120.0213397039734
30
0.0
11
84.52205530925195
21
120.12893715228923
31
0.0
  0
LINE
 8
Layer0
10
84.42283384074689
20
120.21374391524576
30
0.0
11
84.30504365638888
21
120.2699805520973
31
0.0
  0
LINE
 8
Layer0
10
41.9181588114117
20
103.30983421091389
30
0.0
11
41.811462418171686
21
103.23464799858053
31
0.0
  0
LINE
 8
Layer0
10
42.63332151871205
20
119.99645619704546
30
0.0
11
42.58337130745973
21
120.11704667449418
31
0.0
  0
LINE
 8
Layer0
10
42.50391199616079
20
120.22060006508747
30
0.0
11
42.40035860556751
21
120.30005937638641
31
0.0
  0
LINE
 8
Layer0
10
84.04658435218818
20
120.28362189293566
30
0.0
11
83.92352880680258
21
120.24009696208775
31
0.0
  0
LINE
 8
Layer0
10
84.64966394968677
20
119.76815654819154
30
0.0
11
84.6476670234741
21
119.79365070747495
31
0.0
  0
LINE
 8
Layer0
10
42.517985283283586
20
103.20591750826004
30
0.0
11
42.417745920395674
21
103.28951868638144
31
0.0
  0
LINE
 8
Layer0
10
42.417745920395674
20
103.28951868638144
30
0.0
11
42.29928455388064
21
103.34432736725279
31
0.0
  0
LINE
 8
Layer0
10
42.38255839972308
20
102.42420843081477
30
0.0
11
42.48925479296309
21
102.49939464314814
31
0.0
  0
LINE
 8
Layer0
10
84.52205530925195
20
120.12893715228923
30
0.0
11
84.42283384074689
21
120.21374391524576
31
0.0
  0
LINE
 8
Layer0
10
41.66739569242298
20
119.73763715194292
30
0.0
11
41.717345903675294
21
119.6170466744942
31
0.0
  0
LINE
 8
Layer0
10
83.92352880680258
20
120.24009696208775
30
0.0
11
83.81593135848674
21
120.16620598854304
31
0.0
  0
LINE
 8
Layer0
10
83.81593135848674
20
120.16620598854304
30
0.0
11
83.73112459553022
21
120.06698452003798
31
0.0
  0
LINE
 8
Layer0
10
84.48478647299817
20
119.42281320152402
30
0.0
11
84.56959323595468
21
119.52203467002907
31
0.0
  0
LINE
 8
Layer0
10
83.73112459553022
20
120.06698452003798
30
0.0
11
83.67488795867868
21
119.94919433567995
31
0.0
  0
LINE
 8
Layer0
10
84.37718902468232
20
119.3489222279793
30
0.0
11
84.48478647299817
21
119.42281320152402
31
0.0
  0
LINE
 8
Layer0
10
41.90035860556751
20
120.30005937638641
30
0.0
11
41.796805214974235
21
120.22060006508747
31
0.0
  0
LINE
 8
Layer0
10
41.66739569242298
20
119.99645619704546
30
0.0
11
41.65035860556751
21
119.86704667449419
31
0.0
  0
LINE
 8
Layer0
10
41.811462418171686
20
103.23464799858053
30
0.0
11
41.72786124005026
21
103.13440863569261
31
0.0
  0
LINE
 8
Layer0
10
42.15035860556751
20
120.36704667449419
30
0.0
11
42.02094908301625
21
120.35000958763874
31
0.0
  0
LINE
 8
Layer0
10
41.67305255917892
20
103.01594726917757
30
0.0
11
41.65077149658341
21
102.88733684539677
31
0.0
  0
LINE
 8
Layer0
10
42.572855971084515
20
102.59963400603606
30
0.0
11
42.627664651955854
21
102.71809537255108
31
0.0
  0
LINE
 8
Layer0
10
42.40035860556751
20
120.30005937638641
30
0.0
11
42.279768128118775
21
120.35000958763874
31
0.0
  0
LINE
 8
Layer0
10
41.72786124005026
20
103.13440863569261
30
0.0
11
41.67305255917892
21
103.01594726917757
31
0.0
  0
LINE
 8
Layer0
10
42.627664651955854
20
102.71809537255108
30
0.0
11
42.649945714551365
21
102.84670579633189
31
0.0
  0
LINE
 8
Layer0
10
84.25413347929673
20
119.30539729713139
30
0.0
11
84.37718902468232
21
119.3489222279793
31
0.0
  0
LINE
 8
Layer0
10
42.02094908301625
20
120.35000958763874
30
0.0
11
41.90035860556751
21
120.30005937638641
31
0.0
  0
LINE
 8
Layer0
10
84.30504365638888
20
120.2699805520973
30
0.0
11
84.17671196258443
21
120.29381462897786
31
0.0
  0
LINE
 8
Layer0
10
84.17671196258443
20
120.29381462897786
30
0.0
11
84.15035884581168
21
120.29175042167907
31
0.0
  0
LINE
 8
Layer0
10
42.50391199616079
20
119.51349328390091
30
0.0
11
42.58337130745973
21
119.61704667449418
31
0.0
  0
LINE
 8
Layer0
10
-13.975001833523452
20
124.63025247307563
30
0.0
11
-14.344797054920328
21
123.57343844726925
31
0.0
  0
LINE
 8
Layer0
10
-14.344797054920328
20
123.57343844726925
30
0.0
11
-14.940483982092308
21
122.6254081335636
31
0.0
  0
LINE
 8
Layer0
10
42.170674130099826
20
103.3666084298483
30
0.0
11
42.15035860556739
21
102.86702132086432
31
0.0
  0
LINE
 8
Layer0
10
-24.849641394432545
20
113.1428571428572
30
0.0
11
-14.940483982092308
21
122.6254081335636
31
0.0
  0
LINE
 8
Layer0
10
84.15035891586325
20
119.79365070747495
30
0.0
11
84.15035898567324
21
119.29726876838798
31
0.0
  0
LINE
 8
Layer0
10
83.67964011333423
20
102.96307118286565
30
0.0
11
83.65204603676786
21
102.83549511224929
31
0.0
  0
LINE
 8
Layer0
10
83.7690001323317
20
102.47112119861444
30
0.0
11
83.8656872121173
21
102.38343599200579
31
0.0
  0
LINE
 8
Layer0
10
84.36400248193532
20
102.34242511703101
30
0.0
11
84.47372434524596
21
102.41312306302032
31
0.0
  0
LINE
 8
Layer0
10
83.67488795867868
20
119.94919433567995
30
0.0
11
83.65105388179813
21
119.82086264187551
31
0.0
  0
LINE
 8
Layer0
10
83.73931306131716
20
103.0791583317431
30
0.0
11
83.67964011333423
21
102.96307118286565
31
0.0
  0
LINE
 8
Layer0
10
84.62108249983753
20
102.62589729168337
30
0.0
11
84.6486765764039
21
102.75347336229973
31
0.0
  0
LINE
 8
Layer0
10
84.23972132558335
20
102.30253425302328
30
0.0
11
84.36400248193532
21
102.34242511703101
31
0.0
  0
LINE
 8
Layer0
10
83.98177436099473
20
102.32376304402285
30
0.0
11
84.10935043161112
21
102.29616896745648
31
0.0
  0
LINE
 8
Layer0
10
83.65841132233466
20
102.70512421827704
30
0.0
11
83.69830218634239
21
102.58084306192507
31
0.0
  0
LINE
 8
Layer0
10
84.43503540105448
20
103.20553248254322
30
0.0
11
84.31894825217704
21
103.26520543052615
31
0.0
  0
LINE
 8
Layer0
10
83.77866252223295
20
119.46008203777782
30
0.0
11
83.87788399073801
21
119.37527527482129
31
0.0
  0
LINE
 8
Layer0
10
83.69830218634239
20
102.58084306192507
30
0.0
11
83.7690001323317
21
102.47112119861444
31
0.0
  0
LINE
 8
Layer0
10
84.10935043161112
20
102.29616896745648
30
0.0
11
84.15036137638616
21
102.29817130376718
31
0.0
  0
LINE
 8
Layer0
10
84.6423112908371
20
102.88384425627197
30
0.0
11
84.60242042682937
21
103.00812541262394
31
0.0
  0
LINE
 8
Layer0
10
42.15035860556751
20
120.36704667449419
30
0.0
11
42.15035860556751
21
119.86704667449419
31
0.0
  0
LINE
 8
Layer0
10
84.64671609781624
20
102.7936269961634
30
0.0
11
84.6423112908371
21
102.88384425627197
31
0.0
  0
LINE
 8
Layer0
10
42.649945714551365
20
102.84670579633189
30
0.0
11
42.15035860556739
21
102.86702132086432
31
0.0
  0
LINE
 8
Layer0
10
42.15035860556739
20
102.86702132086432
30
0.0
11
42.130043081034955
21
102.36743421188037
31
0.0
  0
LINE
 8
Layer0
10
84.15035884581168
20
120.29175042167907
30
0.0
11
84.04658435218818
21
120.28362189293566
31
0.0
  0
LINE
 8
Layer0
10
84.15035898567324
20
119.29726876838798
30
0.0
11
84.25413347929673
21
119.30539729713139
31
0.0
  0
LINE
 8
Layer0
10
83.65400651535552
20
102.79534147838561
30
0.0
11
84.15036130658586
21
102.7944842372745
31
0.0
  0
LINE
 8
Layer0
10
84.31894825217704
20
103.26520543052615
30
0.0
11
84.19137218156065
21
103.29279950709254
31
0.0
  0
LINE
 8
Layer0
10
83.65318535922785
20
119.79365070747495
30
0.0
11
83.6612466178403
21
119.69073503147926
31
0.0
  0
LINE
 8
Layer0
10
84.6476670234741
20
119.79365070747495
30
0.0
11
84.15035891586325
21
119.79365070747495
31
0.0
  0
LINE
 8
Layer0
10
84.47372434524596
20
102.41312306302032
30
0.0
11
84.56140955185461
21
102.50981014280592
31
0.0
  0
LINE
 8
Layer0
10
84.15036130658586
20
102.7944842372745
30
0.0
11
84.64671609781624
21
102.7936269961634
31
0.0
  0
LINE
 8
Layer0
10
83.93672013123646
20
103.24654335751801
30
0.0
11
83.8269982679258
21
103.17584541152868
31
0.0
  0
LINE
 8
Layer0
10
41.65035860556751
20
119.86704667449419
30
0.0
11
42.15035860556751
21
119.86704667449419
31
0.0
  0
LINE
 8
Layer0
10
84.15035884581168
20
120.29175042167907
30
0.0
11
84.15035891586325
21
119.79365070747495
31
0.0
  0
LINE
 8
Layer0
10
83.70477154868823
20
119.56767948609365
30
0.0
11
83.77866252223295
21
119.46008203777782
31
0.0
  0
LINE
 8
Layer0
10
84.15036137638616
20
102.29817130376718
30
0.0
11
84.15036130658586
21
102.7944842372745
31
0.0
  0
LINE
 8
Layer0
10
83.8269982679258
20
103.17584541152868
30
0.0
11
83.73931306131716
21
103.0791583317431
31
0.0
  0
LINE
 8
Layer0
10
84.53172248084006
20
103.11784727593457
30
0.0
11
84.43503540105448
21
103.20553248254322
31
0.0
  0
LINE
 8
Layer0
10
84.19137218156065
20
103.29279950709254
30
0.0
11
84.1503612367856
21
103.29079717078184
31
0.0
  0
LINE
 8
Layer0
10
84.15036130658586
20
102.7944842372745
30
0.0
11
84.1503612367856
21
103.29079717078184
31
0.0
  0
LINE
 8
Layer0
10
83.6612466178403
20
119.69073503147926
30
0.0
11
83.70477154868823
21
119.56767948609365
31
0.0
  0
LINE
 8
Layer0
10
84.6476670234741
20
119.79365070747495
30
0.0
11
84.6394712136446
21
119.89828415858778
31
0.0
  0
LINE
 8
Layer0
10
83.65105388179813
20
119.82086264187551
30
0.0
11
83.65318535922785
21
119.79365070747495
31
0.0
  0
LINE
 8
Layer0
10
84.56140955185461
20
102.50981014280592
30
0.0
11
84.62108249983753
21
102.62589729168337
31
0.0
  0
LINE
 8
Layer0
10
84.15035891586325
20
119.79365070747495
30
0.0
11
83.65318535922785
21
119.79365070747495
31
0.0
  0
LINE
 8
Layer0
10
-18.849641394432442
20
130.74285714285713
30
0.0
11
-17.737036724650874
21
130.61749670376634
31
0.0
  0
LINE
 8
Layer0
10
-17.737036724650874
20
130.61749670376634
30
0.0
11
-16.680222698844698
21
130.24770148236937
31
0.0
  0
LINE
 8
Layer0
10
84.6486765764039
20
102.75347336229973
30
0.0
11
84.64671609781624
21
102.7936269961634
31
0.0
  0
LINE
 8
Layer0
10
84.60242042682937
20
103.00812541262394
30
0.0
11
84.53172248084006
21
103.11784727593457
31
0.0
  0
LINE
 8
Layer0
10
42.15035860556751
20
119.86704667449419
30
0.0
11
42.65035860556751
21
119.86704667449419
31
0.0
  0
LINE
 8
Layer0
10
-16.680222698844698
20
130.24770148236937
30
0.0
11
-15.732192385138866
21
129.65201455519735
31
0.0
  0
LINE
 8
Layer0
10
42.15035860556739
20
102.86702132086432
30
0.0
11
41.65077149658341
21
102.88733684539677
31
0.0
  0
LINE
 8
Layer0
10
-14.940483982092365
20
128.86030615215086
30
0.0
11
-14.344797054920372
21
127.91227583844494
31
0.0
  0
LINE
 8
Layer0
10
84.1503612367856
20
103.29079717078184
30
0.0
11
84.06100128758841
21
103.28643422152574
31
0.0
  0
LINE
 8
Layer0
10
83.8656872121173
20
102.38343599200579
30
0.0
11
83.98177436099473
21
102.32376304402285
31
0.0
  0
LINE
 8
Layer0
10
-14.344797054920372
20
127.91227583844494
30
0.0
11
-13.975001833523349
21
126.85546181263872
31
0.0
  0
LINE
 8
Layer0
10
83.65204603676786
20
102.83549511224929
30
0.0
11
83.65400651535552
21
102.79534147838561
31
0.0
  0
LINE
 8
Layer0
10
42.15035860556751
20
119.86704667449419
30
0.0
11
42.15035860556751
21
119.36704667449419
31
0.0
  0
LINE
 8
Layer0
10
-13.975001833523349
20
126.85546181263872
30
0.0
11
-13.849641394432476
21
125.74285714285713
31
0.0
  0
LINE
 8
Layer0
10
-13.849641394432476
20
125.74285714285713
30
0.0
11
-13.975001833523452
21
124.63025247307563
31
0.0
  0
LINE
 8
Layer0
10
83.65400651535552
20
102.79534147838561
30
0.0
11
83.65841132233466
21
102.70512421827704
31
0.0
  0
LINE
 8
Layer0
10
84.15036137638616
20
102.29817130376718
30
0.0
11
84.23972132558335
21
102.30253425302328
31
0.0
  0
LINE
 8
Layer0
10
-15.732192385138866
20
129.65201455519735
30
0.0
11
-14.940483982092365
21
128.86030615215086
31
0.0
  0
LINE
 8
Layer0
10
84.06100128758841
20
103.28643422152574
30
0.0
11
83.93672013123646
21
103.24654335751801
31
0.0
  0
LINE
 8
Layer0
10
-17.45725381974929
20
125.18495317095172
30
0.0
11
-17.360302102574522
21
125.5643397102965
31
0.0
  0
LINE
 8
Layer0
10
-20.338980686290455
20
125.74285714285713
30
0.0
11
-18.84964139443251
21
125.74285714285725
31
0.0
  0
LINE
 8
Layer0
10
-18.84964139443251
20
125.74285714285725
30
0.0
11
-18.84964139443251
21
127.23012458902302
31
0.0
  0
LINE
 8
Layer0
10
-28.84964139443254
20
126.74285714285726
30
0.0
11
-28.84964139443247
21
116.7428571428573
31
0.0
  0
LINE
 8
Layer0
10
-17.360302102574522
20
125.5643397102965
30
0.0
11
-17.360302102574476
21
125.7428571428571
31
0.0
  0
LINE
 8
Layer0
10
-50.849641394432766
20
85.59999999999971
30
0.0
11
-49.360302102574735
21
85.59999999999957
31
0.0
  0
LINE
 8
Layer0
10
-60.84964139443273
20
76.59999999999977
30
0.0
11
-56.849641394432766
21
76.5999999999998
31
0.0
  0
LINE
 8
Layer0
10
-50.8496413944327
20
90.59999999999961
30
0.0
11
-49.737036724651134
21
90.47463956090878
31
0.0
  0
LINE
 8
Layer0
10
-20.338980686290434
20
125.92137457541772
30
0.0
11
-20.338980686290455
21
125.74285714285713
31
0.0
  0
LINE
 8
Layer0
10
-18.84964139443251
20
124.2555896966914
30
0.0
11
-18.84964139443251
21
125.74285714285725
31
0.0
  0
LINE
 8
Layer0
10
-18.84964139443251
20
125.74285714285725
30
0.0
11
-17.360302102574476
21
125.7428571428571
31
0.0
  0
LINE
 8
Layer0
10
-18.259572380119373
20
124.36379276497358
30
0.0
11
-17.922750368795818
21
124.56350434297325
31
0.0
  0
LINE
 8
Layer0
10
-28.84964139443247
20
116.7428571428573
30
0.0
11
-24.849641394432513
21
116.74285714285733
31
0.0
  0
LINE
 8
Layer0
10
-19.028158826993163
20
124.2535178509993
30
0.0
11
-18.84964139443251
21
124.2555896966914
31
0.0
  0
LINE
 8
Layer0
10
-49.36030210257478
20
85.42148256743896
30
0.0
11
-49.360302102574735
21
85.59999999999957
31
0.0
  0
LINE
 8
Layer0
10
-49.95037111688784
20
86.80054694532258
30
0.0
11
-50.29173742252731
21
86.99238757468287
31
0.0
  0
LINE
 8
Layer0
10
-20.24202896911564
20
126.30076111476268
30
0.0
11
-20.338980686290434
21
125.92137457541772
31
0.0
  0
LINE
 8
Layer0
10
-19.748911671977304
20
124.54231019753415
30
0.0
11
-19.407545366338013
21
124.35046956817409
31
0.0
  0
LINE
 8
Layer0
10
-17.95037111688758
20
126.94340408818012
30
0.0
11
-18.291737422527056
21
127.13524471754039
31
0.0
  0
LINE
 8
Layer0
10
-18.849641394432442
20
130.74285714285713
30
0.0
11
-24.84964139443243
21
130.74285714285725
31
0.0
  0
LINE
 8
Layer0
10
-24.849641394432513
20
116.74285714285733
30
0.0
11
-24.849641394432545
21
113.1428571428572
31
0.0
  0
LINE
 8
Layer0
10
-18.671123961871924
20
127.23219643471522
30
0.0
11
-18.84964139443251
21
127.23012458902302
31
0.0
  0
LINE
 8
Layer0
10
-20.028994194316443
20
124.81596611722051
30
0.0
11
-19.748911671977304
21
124.54231019753415
31
0.0
  0
LINE
 8
Layer0
10
-19.43971040874563
20
127.12192152074086
30
0.0
11
-19.776532420069252
21
126.92220994274123
31
0.0
  0
LINE
 8
Layer0
10
-17.360302102574476
20
125.7428571428571
30
0.0
11
-17.36484639689037
21
125.95589191765637
31
0.0
  0
LINE
 8
Layer0
10
-18.84964139443251
20
124.2555896966914
30
0.0
11
-18.636606619633245
21
124.25806214531504
31
0.0
  0
LINE
 8
Layer0
10
-19.06267616923178
20
127.22765214039939
30
0.0
11
-19.43971040874563
21
127.12192152074086
31
0.0
  0
LINE
 8
Layer0
10
-52.05018833975575
20
86.49927027754457
30
0.0
11
-52.2420289691159
21
86.15790397190514
31
0.0
  0
LINE
 8
Layer0
10
-52.33898068629071
20
85.5999999999996
30
0.0
11
-52.334436391974904
21
85.3869652252003
31
0.0
  0
LINE
 8
Layer0
10
-17.36484639689037
20
125.95589191765637
30
0.0
11
-17.470577016548805
21
126.3329261571702
31
0.0
  0
LINE
 8
Layer0
10
-19.776532420069252
20
126.92220994274123
30
0.0
11
-20.050188339755497
21
126.6421274204021
31
0.0
  0
LINE
 8
Layer0
10
-52.33898068629069
20
85.77851743256018
30
0.0
11
-52.33898068629071
21
85.5999999999996
31
0.0
  0
LINE
 8
Layer0
10
-18.291737422527056
20
127.13524471754039
30
0.0
11
-18.671123961871924
21
127.23219643471522
31
0.0
  0
LINE
 8
Layer0
10
-50.849641394432766
20
87.08726744616548
30
0.0
11
-51.062676169232034
21
87.08479499754185
31
0.0
  0
LINE
 8
Layer0
10
-24.856549687663424
20
126.74285714285715
30
0.0
11
-28.84964139443254
21
126.74285714285726
31
0.0
  0
LINE
 8
Layer0
10
-20.050188339755497
20
126.6421274204021
30
0.0
11
-20.24202896911564
21
126.30076111476268
31
0.0
  0
LINE
 8
Layer0
10
-20.33443639197465
20
125.52982236805784
30
0.0
11
-20.228705772316083
21
125.15278812854399
31
0.0
  0
LINE
 8
Layer0
10
-18.84964139443251
20
127.23012458902302
30
0.0
11
-19.06267616923178
21
127.22765214039939
31
0.0
  0
LINE
 8
Layer0
10
-19.407545366338013
20
124.35046956817409
30
0.0
11
-19.028158826993163
21
124.2535178509993
31
0.0
  0
LINE
 8
Layer0
10
-49.36484639689063
20
85.81303477479884
30
0.0
11
-49.470577016549065
21
86.19006901431267
31
0.0
  0
LINE
 8
Layer0
10
-49.67028859454879
20
86.52689102563626
30
0.0
11
-49.95037111688784
21
86.80054694532258
31
0.0
  0
LINE
 8
Layer0
10
-60.849641394432794
20
86.59999999999972
30
0.0
11
-60.84964139443273
21
76.59999999999977
31
0.0
  0
LINE
 8
Layer0
10
-17.64909444910955
20
124.84358686531237
30
0.0
11
-17.45725381974929
21
125.18495317095172
31
0.0
  0
LINE
 8
Layer0
10
-49.360302102574735
20
85.59999999999957
30
0.0
11
-49.36484639689063
21
85.81303477479884
31
0.0
  0
LINE
 8
Layer0
10
-50.849641394432766
20
84.11273255383387
30
0.0
11
-50.636606619633504
21
84.1152050024575
31
0.0
  0
LINE
 8
Layer0
10
-17.922750368795818
20
124.56350434297325
30
0.0
11
-17.64909444910955
21
124.84358686531237
31
0.0
  0
LINE
 8
Layer0
10
-56.849641394432766
20
76.5999999999998
30
0.0
11
-56.8496413944328
21
72.99999999999966
31
0.0
  0
LINE
 8
Layer0
10
-20.338980686290455
20
125.74285714285713
30
0.0
11
-20.33443639197465
21
125.52982236805784
31
0.0
  0
LINE
 8
Layer0
10
-50.67112396187218
20
87.08933929185768
30
0.0
11
-50.849641394432766
21
87.08726744616548
31
0.0
  0
LINE
 8
Layer0
10
-49.457253819749546
20
85.04209602809418
30
0.0
11
-49.36030210257478
21
85.42148256743896
31
0.0
  0
LINE
 8
Layer0
10
-17.470577016548805
20
126.3329261571702
30
0.0
11
-17.670288594548538
21
126.66974816849378
31
0.0
  0
LINE
 8
Layer0
10
-51.77653242006951
20
86.77935279988371
30
0.0
11
-52.05018833975575
21
86.49927027754457
31
0.0
  0
LINE
 8
Layer0
10
-52.33898068629071
20
85.5999999999996
30
0.0
11
-50.849641394432766
21
85.59999999999971
31
0.0
  0
LINE
 8
Layer0
10
-17.670288594548538
20
126.66974816849378
30
0.0
11
-17.95037111688758
21
126.94340408818012
31
0.0
  0
LINE
 8
Layer0
10
-20.228705772316083
20
125.15278812854399
30
0.0
11
-20.028994194316443
21
124.81596611722051
31
0.0
  0
LINE
 8
Layer0
10
-50.849641394432766
20
85.59999999999971
30
0.0
11
-50.849641394432766
21
87.08726744616548
31
0.0
  0
LINE
 8
Layer0
10
-18.636606619633245
20
124.25806214531504
30
0.0
11
-18.259572380119373
21
124.36379276497358
31
0.0
  0
LINE
 8
Layer0
10
-52.2420289691159
20
86.15790397190514
30
0.0
11
-52.33898068629069
21
85.77851743256018
31
0.0
  0
LINE
 8
Layer0
10
-24.84964139443243
20
130.74285714285725
30
0.0
11
-24.856549687663424
21
126.74285714285715
31
0.0
  0
LINE
 8
Layer0
10
-50.8496413944327
20
90.59999999999961
30
0.0
11
-56.84964139443269
21
90.59999999999972
31
0.0
  0
LINE
 8
Layer0
10
-56.84964139443269
20
90.59999999999972
30
0.0
11
-56.85654968766368
21
86.59999999999961
31
0.0
  0
LINE
 8
Layer0
10
-50.849641394432766
20
84.11273255383387
30
0.0
11
-50.849641394432766
21
85.59999999999971
31
0.0
  0
LINE
 8
Layer0
10
-47.73219238513912
20
89.50915741233982
30
0.0
11
-46.94048398209262
21
88.71744900929333
31
0.0
  0
LINE
 8
Layer0
10
-51.062676169232034
20
87.08479499754185
30
0.0
11
-51.43971040874589
21
86.97906437788332
31
0.0
  0
LINE
 8
Layer0
10
-45.84964139443273
20
85.5999999999996
30
0.0
11
-45.975001833523706
21
84.48739533021809
31
0.0
  0
LINE
 8
Layer0
10
-50.29173742252731
20
86.99238757468287
30
0.0
11
-50.67112396187218
21
87.08933929185768
31
0.0
  0
LINE
 8
Layer0
10
-50.25957238011963
20
84.22093562211604
30
0.0
11
-49.92275036879607
21
84.42064720011571
31
0.0
  0
LINE
 8
Layer0
10
-49.92275036879607
20
84.42064720011571
30
0.0
11
-49.64909444910981
21
84.70072972245485
31
0.0
  0
LINE
 8
Layer0
10
-49.470577016549065
20
86.19006901431267
30
0.0
11
-49.67028859454879
21
86.52689102563626
31
0.0
  0
LINE
 8
Layer0
10
-56.85654968766368
20
86.59999999999961
30
0.0
11
-60.849641394432794
21
86.59999999999972
31
0.0
  0
LINE
 8
Layer0
10
-46.34479705492063
20
87.7694186955874
30
0.0
11
-45.975001833523606
21
86.71260466978119
31
0.0
  0
LINE
 8
Layer0
10
-51.40754536633827
20
84.20761242531655
30
0.0
11
-51.02815882699342
21
84.11066070814178
31
0.0
  0
LINE
 8
Layer0
10
-45.975001833523706
20
84.48739533021809
30
0.0
11
-46.34479705492058
21
83.43058130441172
31
0.0
  0
LINE
 8
Layer0
10
-52.22870577231634
20
85.00993098568645
30
0.0
11
-52.0289941943167
21
84.67310897436298
31
0.0
  0
LINE
 8
Layer0
10
-52.334436391974904
20
85.3869652252003
30
0.0
11
-52.22870577231634
21
85.00993098568645
31
0.0
  0
LINE
 8
Layer0
10
-56.8496413944328
20
72.99999999999966
30
0.0
11
-46.940483982092566
21
82.48255099070606
31
0.0
  0
LINE
 8
Layer0
10
-45.975001833523606
20
86.71260466978119
30
0.0
11
-45.84964139443273
21
85.5999999999996
31
0.0
  0
LINE
 8
Layer0
10
-51.02815882699342
20
84.11066070814178
30
0.0
11
-50.849641394432766
21
84.11273255383387
31
0.0
  0
LINE
 8
Layer0
10
-52.0289941943167
20
84.67310897436298
30
0.0
11
-51.74891167197756
21
84.39945305467661
31
0.0
  0
LINE
 8
Layer0
10
-49.64909444910981
20
84.70072972245485
30
0.0
11
-49.457253819749546
21
85.04209602809418
31
0.0
  0
LINE
 8
Layer0
10
-46.94048398209262
20
88.71744900929333
30
0.0
11
-46.34479705492063
21
87.7694186955874
31
0.0
  0
LINE
 8
Layer0
10
-51.43971040874589
20
86.97906437788332
30
0.0
11
-51.77653242006951
21
86.77935279988371
31
0.0
  0
LINE
 8
Layer0
10
-48.68022269884496
20
90.10484433951183
30
0.0
11
-47.73219238513912
21
89.50915741233982
31
0.0
  0
LINE
 8
Layer0
10
-46.34479705492058
20
83.43058130441172
30
0.0
11
-46.940483982092566
21
82.48255099070606
31
0.0
  0
LINE
 8
Layer0
10
-49.737036724651134
20
90.47463956090878
30
0.0
11
-48.68022269884496
21
90.10484433951183
31
0.0
  0
LINE
 8
Layer0
10
-51.74891167197756
20
84.39945305467661
30
0.0
11
-51.40754536633827
21
84.20761242531655
31
0.0
  0
LINE
 8
Layer0
10
-50.636606619633504
20
84.1152050024575
30
0.0
11
-50.25957238011963
21
84.22093562211604
31
0.0
  0
LINE
 8
Layer0
10
34.633321518711384
20
21.129409522551263
30
0.0
11
34.58337130745906
21
21.25
31
0.0
  0
LINE
 8
Layer0
10
34.40035860556684
20
21.43301270189222
30
0.0
11
34.27976812811811
21
21.482962913144533
31
0.0
  0
LINE
 8
Layer0
10
34.02094908301558
20
21.482962913144533
30
0.0
11
33.90035860556684
21
21.43301270189222
31
0.0
  0
LINE
 8
Layer0
10
34.50391199616012
20
21.353553390593273
30
0.0
11
34.40035860556684
21
21.43301270189222
31
0.0
  0
LINE
 8
Layer0
10
34.15035860556684
20
21.5
30
0.0
11
34.02094908301558
21
21.482962913144533
31
0.0
  0
LINE
 8
Layer0
10
33.90035860556684
20
21.43301270189222
30
0.0
11
33.79680521497357
21
21.353553390593273
31
0.0
  0
LINE
 8
Layer0
10
34.58337130745906
20
21.25
30
0.0
11
34.50391199616012
21
21.353553390593273
31
0.0
  0
LINE
 8
Layer0
10
33.71734590367463
20
21.25
30
0.0
11
33.66739569242231
21
21.129409522551263
31
0.0
  0
LINE
 8
Layer0
10
33.66739569242231
20
21.129409522551263
30
0.0
11
33.65035860556684
21
21.0
31
0.0
  0
LINE
 8
Layer0
10
33.79680521497357
20
20.64644660940673
30
0.0
11
33.90035860556684
21
20.566987298107783
31
0.0
  0
LINE
 8
Layer0
10
33.66739569242231
20
20.870590477448744
30
0.0
11
33.71734590367463
21
20.75
31
0.0
  0
LINE
 8
Layer0
10
33.71734590367463
20
20.75
30
0.0
11
33.79680521497357
21
20.64644660940673
31
0.0
  0
LINE
 8
Layer0
10
33.90035860556684
20
20.566987298107783
30
0.0
11
34.02094908301558
21
20.517037086855467
31
0.0
  0
LINE
 8
Layer0
10
34.02094908301558
20
20.517037086855467
30
0.0
11
34.15035860556684
21
20.500000000000004
31
0.0
  0
LINE
 8
Layer0
10
34.27976812811811
20
20.517037086855467
30
0.0
11
34.40035860556684
21
20.566987298107783
31
0.0
  0
LINE
 8
Layer0
10
34.50391199616012
20
20.64644660940673
30
0.0
11
34.58337130745906
21
20.75
31
0.0
  0
LINE
 8
Layer0
10
33.65035860556684
20
21.0
30
0.0
11
33.66739569242231
21
20.870590477448744
31
0.0
  0
LINE
 8
Layer0
10
48.65035860556684
20
21.0
30
0.0
11
48.66739569242231
21
20.87059047744874
31
0.0
  0
LINE
 8
Layer0
10
34.27976812811811
20
21.482962913144533
30
0.0
11
34.15035860556684
21
21.5
31
0.0
  0
LINE
 8
Layer0
10
34.15035860556684
20
20.500000000000004
30
0.0
11
34.27976812811811
21
20.517037086855467
31
0.0
  0
LINE
 8
Layer0
10
34.40035860556684
20
20.566987298107783
30
0.0
11
34.50391199616012
21
20.64644660940673
31
0.0
  0
LINE
 8
Layer0
10
34.58337130745906
20
20.75
30
0.0
11
34.63332151871138
21
20.87059047744874
31
0.0
  0
LINE
 8
Layer0
10
34.63332151871138
20
20.87059047744874
30
0.0
11
34.65035860556684
21
21.0
31
0.0
  0
LINE
 8
Layer0
10
34.65035860556684
20
21.0
30
0.0
11
34.633321518711384
21
21.129409522551263
31
0.0
  0
LINE
 8
Layer0
10
33.79680521497357
20
21.353553390593273
30
0.0
11
33.71734590367463
21
21.25
31
0.0
  0
LINE
 8
Layer0
10
34.01478543857362
20
-24.48126906860042
30
0.0
11
34.14396658298881
21
-24.49995914037786
31
0.0
  0
LINE
 8
Layer0
10
33.792314264578955
20
-24.349004655967178
30
0.0
11
33.894843381443735
21
-24.429781305132597
31
0.0
  0
LINE
 8
Layer0
10
48.71734590367463
20
20.75
30
0.0
11
48.796805214973574
21
20.64644660940673
31
0.0
  0
LINE
 8
Layer0
10
48.889646991553
20
-23.573350900248872
30
0.0
11
48.788105611785916
21
-23.655365746773526
31
0.0
  0
LINE
 8
Layer0
10
48.72370950581541
20
-24.260711614013548
30
0.0
11
48.80572435234006
21
-24.362252993780633
31
0.0
  0
LINE
 8
Layer0
10
48.66432118374231
20
-23.88266447858191
30
0.0
11
48.65051383967352
21
-24.01245833092181
31
0.0
  0
LINE
 8
Layer0
10
33.714185277856224
20
-24.24444391625506
30
0.0
11
33.792314264578955
21
-24.349004655967178
31
0.0
  0
LINE
 8
Layer0
10
34.02713387795371
20
-23.51542217703991
30
0.0
11
33.90591468931149
21
-23.563826672289686
31
0.0
  0
LINE
 8
Layer0
10
49.63332151871138
20
20.87059047744874
30
0.0
11
49.65035860556684
21
21.0
31
0.0
  0
LINE
 8
Layer0
10
48.65051383967352
20
-24.01245833092181
30
0.0
11
48.67077009036781
21
-24.141403168597755
31
0.0
  0
LINE
 8
Layer0
10
49.15035860556684
20
21.5
30
0.0
11
49.02094908301559
21
21.482962913144533
31
0.0
  0
LINE
 8
Layer0
10
49.58337130745906
20
21.25
30
0.0
11
49.50391199616012
21
21.353553390593273
31
0.0
  0
LINE
 8
Layer0
10
48.796805214973574
20
20.64644660940673
30
0.0
11
48.90035860556684
21
20.566987298107783
31
0.0
  0
LINE
 8
Layer0
10
34.634936428526636
20
-23.876775272387174
30
0.0
11
34.58653193327686
21
-23.75555608374495
31
0.0
  0
LINE
 8
Layer0
10
49.03302308414844
20
-24.48603742182424
30
0.0
11
49.16281693648834
21
-24.499844765893027
31
0.0
  0
LINE
 8
Layer0
10
48.90035860556684
20
21.43301270189222
30
0.0
11
48.796805214973574
21
21.353553390593273
31
0.0
  0
LINE
 8
Layer0
10
49.16281693648834
20
-24.499844765893027
30
0.0
11
49.291761774164286
21
-24.479588515198735
31
0.0
  0
LINE
 8
Layer0
10
34.6503177459444
20
-24.006392022577728
30
0.0
11
34.634936428526636
21
-23.876775272387174
31
0.0
  0
LINE
 8
Layer0
10
49.51261159934717
20
-24.344634253226495
30
0.0
11
49.58946603623948
21
-24.239133151879486
31
0.0
  0
LINE
 8
Layer0
10
49.02094908301559
20
21.482962913144533
30
0.0
11
48.90035860556684
21
21.43301270189222
31
0.0
  0
LINE
 8
Layer0
10
49.02094908301559
20
20.517037086855467
30
0.0
11
49.15035860556684
21
20.500000000000004
31
0.0
  0
LINE
 8
Layer0
10
49.40035860556684
20
21.43301270189222
30
0.0
11
49.27976812811811
21
21.482962913144533
31
0.0
  0
LINE
 8
Layer0
10
34.285931772559465
20
-23.51873093139959
30
0.0
11
34.156750628144266
21
-23.500040859622146
31
0.0
  0
LINE
 8
Layer0
10
48.66739569242232
20
21.129409522551263
30
0.0
11
48.65035860556684
21
21.0
31
0.0
  0
LINE
 8
Layer0
10
33.650399465188684
20
-23.99360797742228
30
0.0
11
33.66578078260645
21
-24.123224727612833
31
0.0
  0
LINE
 8
Layer0
10
34.50840294655413
20
-23.65099534403283
30
0.0
11
34.40587382968934
21
-23.57021869486741
31
0.0
  0
LINE
 8
Layer0
10
34.40587382968934
20
-23.57021869486741
30
0.0
11
34.285931772559465
21
-23.51873093139959
31
0.0
  0
LINE
 8
Layer0
10
49.58946603623948
20
-24.239133151879486
30
0.0
11
49.636396027390774
21
-24.117335521418113
31
0.0
  0
LINE
 8
Layer0
10
49.15035860556684
20
20.500000000000004
30
0.0
11
49.27976812811811
21
20.517037086855467
31
0.0
  0
LINE
 8
Layer0
10
49.633321518711384
20
21.12940952255126
30
0.0
11
49.58337130745906
21
21.25
31
0.0
  0
LINE
 8
Layer0
10
48.90035860556684
20
20.566987298107783
30
0.0
11
49.02094908301559
21
20.517037086855467
31
0.0
  0
LINE
 8
Layer0
10
49.40035860556684
20
20.566987298107783
30
0.0
11
49.50391199616012
21
20.64644660940673
31
0.0
  0
LINE
 8
Layer0
10
49.27976812811811
20
20.517037086855467
30
0.0
11
49.40035860556684
21
20.566987298107783
31
0.0
  0
LINE
 8
Layer0
10
49.65035860556684
20
21.0
30
0.0
11
49.633321518711384
21
21.12940952255126
31
0.0
  0
LINE
 8
Layer0
10
33.90591468931149
20
-23.563826672289686
30
0.0
11
33.80135394959937
21
-23.641955659012417
31
0.0
  0
LINE
 8
Layer0
10
33.80135394959937
20
-23.641955659012417
30
0.0
11
33.720577300433945
21
-23.7444847758772
31
0.0
  0
LINE
 8
Layer0
10
33.66578078260645
20
-24.123224727612833
30
0.0
11
33.714185277856224
21
-24.24444391625506
31
0.0
  0
LINE
 8
Layer0
10
34.499363261533716
20
-24.35804434098759
30
0.0
11
34.58013991069913
21
-24.255515224122806
31
0.0
  0
LINE
 8
Layer0
10
34.58013991069913
20
-24.255515224122806
30
0.0
11
34.63162767416696
21
-24.135573166992927
31
0.0
  0
LINE
 8
Layer0
10
34.58653193327686
20
-23.75555608374495
30
0.0
11
34.50840294655413
21
-23.65099534403283
31
0.0
  0
LINE
 8
Layer0
10
48.711251174893604
20
-23.760866848120532
30
0.0
11
48.66432118374231
21
-23.88266447858191
31
0.0
  0
LINE
 8
Layer0
10
48.80572435234006
20
-24.362252993780633
30
0.0
11
48.91122545368707
21
-24.439107430672944
31
0.0
  0
LINE
 8
Layer0
10
48.91122545368707
20
-24.439107430672944
30
0.0
11
49.03302308414844
21
-24.48603742182424
31
0.0
  0
LINE
 8
Layer0
10
49.27976812811811
20
21.482962913144533
30
0.0
11
49.15035860556684
21
21.5
31
0.0
  0
LINE
 8
Layer0
10
33.669089536966126
20
-23.864426833007084
30
0.0
11
33.650399465188684
21
-23.99360797742228
31
0.0
  0
LINE
 8
Layer0
10
34.14396658298881
20
-24.49995914037786
30
0.0
11
34.27358333317937
21
-24.484577822960098
31
0.0
  0
LINE
 8
Layer0
10
48.67077009036781
20
-24.141403168597755
30
0.0
11
48.72370950581541
21
-24.260711614013548
31
0.0
  0
LINE
 8
Layer0
10
33.720577300433945
20
-23.7444847758772
30
0.0
11
33.669089536966126
21
-23.864426833007084
31
0.0
  0
LINE
 8
Layer0
10
49.41107021958008
20
-24.42664909975115
30
0.0
11
49.51261159934717
21
-24.344634253226495
31
0.0
  0
LINE
 8
Layer0
10
49.58337130745906
20
20.75
30
0.0
11
49.63332151871138
21
20.87059047744874
31
0.0
  0
LINE
 8
Layer0
10
48.66739569242231
20
20.87059047744874
30
0.0
11
48.71734590367463
21
20.75
31
0.0
  0
LINE
 8
Layer0
10
33.894843381443735
20
-24.429781305132597
30
0.0
11
34.01478543857362
21
-24.48126906860042
31
0.0
  0
LINE
 8
Layer0
10
34.27358333317937
20
-24.484577822960098
30
0.0
11
34.394802521821596
21
-24.43617332771032
31
0.0
  0
LINE
 8
Layer0
10
34.156750628144266
20
-23.500040859622146
30
0.0
11
34.02713387795371
21
-23.51542217703991
31
0.0
  0
LINE
 8
Layer0
10
34.394802521821596
20
-24.43617332771032
30
0.0
11
34.499363261533716
21
-24.35804434098759
31
0.0
  0
LINE
 8
Layer0
10
49.291761774164286
20
-24.479588515198735
30
0.0
11
49.41107021958008
21
-24.42664909975115
31
0.0
  0
LINE
 8
Layer0
10
48.796805214973574
20
21.353553390593273
30
0.0
11
48.71734590367463
21
21.25
31
0.0
  0
LINE
 8
Layer0
10
48.71734590367463
20
21.25
30
0.0
11
48.66739569242232
21
21.129409522551263
31
0.0
  0
LINE
 8
Layer0
10
34.63162767416696
20
-24.135573166992927
30
0.0
11
34.6503177459444
21
-24.006392022577728
31
0.0
  0
LINE
 8
Layer0
10
48.788105611785916
20
-23.655365746773526
30
0.0
11
48.711251174893604
21
-23.760866848120532
31
0.0
  0
LINE
 8
Layer0
10
49.50391199616012
20
20.64644660940673
30
0.0
11
49.58337130745906
21
20.75
31
0.0
  0
LINE
 8
Layer0
10
49.50391199616012
20
21.353553390593273
30
0.0
11
49.40035860556684
21
21.43301270189222
31
0.0
  0
LINE
 8
Layer0
10
49.267694126984644
20
-23.51396257817578
30
0.0
11
49.13790027464474
21
-23.500155234106995
31
0.0
  0
LINE
 8
Layer0
10
49.0089554369688
20
-23.520411484801283
30
0.0
11
48.889646991553
21
-23.573350900248872
31
0.0
  0
LINE
 8
Layer0
10
33.65035860556684
20
21.0
30
0.0
11
34.15035860556684
21
21.0
31
0.0
  0
LINE
 8
Layer0
10
34.15035860556684
20
21.0
30
0.0
11
34.65035860556684
21
21.0
31
0.0
  0
LINE
 8
Layer0
10
34.15035860556684
20
21.5
30
0.0
11
34.15035860556684
21
21.0
31
0.0
  0
LINE
 8
Layer0
10
49.57700770531768
20
-23.73928838598647
30
0.0
11
49.494992858793026
21
-23.637747006219385
31
0.0
  0
LINE
 8
Layer0
10
49.629947120765266
20
-23.858596831402263
30
0.0
11
49.57700770531768
21
-23.73928838598647
31
0.0
  0
LINE
 8
Layer0
10
34.15035860556684
20
21.0
30
0.0
11
34.15035860556684
21
20.500000000000004
31
0.0
  0
LINE
 8
Layer0
10
49.650203371459554
20
-23.98754166907821
30
0.0
11
49.629947120765266
21
-23.858596831402263
31
0.0
  0
LINE
 8
Layer0
10
49.15035860556684
20
20.500000000000004
30
0.0
11
49.15035860556684
21
21.0
31
0.0
  0
LINE
 8
Layer0
10
49.494992858793026
20
-23.637747006219385
30
0.0
11
49.38949175744602
21
-23.560892569327073
31
0.0
  0
LINE
 8
Layer0
10
49.636396027390774
20
-24.117335521418113
30
0.0
11
49.650203371459554
21
-23.98754166907821
31
0.0
  0
LINE
 8
Layer0
10
49.13790027464474
20
-23.500155234106995
30
0.0
11
49.0089554369688
21
-23.520411484801283
31
0.0
  0
LINE
 8
Layer0
10
49.38949175744602
20
-23.560892569327073
30
0.0
11
49.267694126984644
21
-23.51396257817578
31
0.0
  0
LINE
 8
Layer0
10
49.15035860556684
20
21.0
30
0.0
11
49.15035860556684
21
21.5
31
0.0
  0
LINE
 8
Layer0
10
49.15035860556684
20
21.0
30
0.0
11
48.65035860556684
21
21.0
31
0.0
  0
LINE
 8
Layer0
10
49.65035860556684
20
21.0
30
0.0
11
49.15035860556684
21
21.0
31
0.0
  0
LINE
 8
Layer0
10
49.650203371459554
20
-23.98754166907821
30
0.0
11
49.15035860556654
21
-24.00000000000001
31
0.0
  0
LINE
 8
Layer0
10
49.15035860556654
20
-24.00000000000001
30
0.0
11
49.16281693648834
21
-24.499844765893027
31
0.0
  0
LINE
 8
Layer0
10
34.156750628144266
20
-23.500040859622146
30
0.0
11
34.15035860556654
21
-24.000000000000004
31
0.0
  0
LINE
 8
Layer0
10
34.6503177459444
20
-24.006392022577728
30
0.0
11
34.15035860556654
21
-24.000000000000004
31
0.0
  0
LINE
 8
Layer0
10
49.15035860556654
20
-24.00000000000001
30
0.0
11
48.65051383967352
21
-24.01245833092181
31
0.0
  0
LINE
 8
Layer0
10
49.13790027464474
20
-23.500155234106995
30
0.0
11
49.15035860556654
21
-24.00000000000001
31
0.0
  0
LINE
 8
Layer0
10
34.15035860556654
20
-24.000000000000004
30
0.0
11
34.14396658298881
21
-24.49995914037786
31
0.0
  0
LINE
 8
Layer0
10
34.15035860556654
20
-24.000000000000004
30
0.0
11
33.650399465188684
21
-23.99360797742228
31
0.0
  0
LINE
 8
Layer0
10
93.49999999999883
20
-8.767949192431132
30
0.0
11
93.01763809020389
21
-8.568148347421873
31
0.0
  0
LINE
 8
Layer0
10
92.49999999999883
20
-8.50000000000001
30
0.0
11
91.9823619097938
21
-8.568148347421873
31
0.0
  0
LINE
 8
Layer0
10
90.76794919242995
20
-9.500000000000007
30
0.0
11
90.5681483474207
21
-9.982361909794966
31
0.0
  0
LINE
 8
Layer0
10
93.49999999999883
20
-12.232050807568882
30
0.0
11
93.91421356237193
21
-11.9142135623731
31
0.0
  0
LINE
 8
Layer0
10
94.43185165257697
20
8.01763809020504
30
0.0
11
94.23205080756772
21
8.499999999999998
31
0.0
  0
LINE
 8
Layer0
10
94.23205080756772
20
-9.500000000000007
30
0.0
11
93.91421356237193
21
-9.085786437626913
31
0.0
  0
LINE
 8
Layer0
10
92.49999999999883
20
9.499999999999996
30
0.0
11
91.9823619097938
21
9.431851652578134
31
0.0
  0
LINE
 8
Layer0
10
91.9823619097938
20
9.431851652578134
30
0.0
11
91.49999999999883
21
9.232050807568875
31
0.0
  0
LINE
 8
Layer0
10
93.91421356237193
20
-11.9142135623731
30
0.0
11
94.23205080756772
21
-11.500000000000005
31
0.0
  0
LINE
 8
Layer0
10
90.76794919242995
20
-11.500000000000004
30
0.0
11
91.08578643762574
21
-11.914213562373098
31
0.0
  0
LINE
 8
Layer0
10
91.49999999999883
20
-12.232050807568879
30
0.0
11
91.9823619097938
21
-12.431851652578139
31
0.0
  0
LINE
 8
Layer0
10
91.49999999999883
20
-8.767949192431132
30
0.0
11
91.08578643762576
21
-9.085786437626913
31
0.0
  0
LINE
 8
Layer0
10
93.01763809020389
20
9.431851652578134
30
0.0
11
92.49999999999883
21
9.499999999999996
31
0.0
  0
LINE
 8
Layer0
10
91.49999999999883
20
9.232050807568875
30
0.0
11
91.08578643762576
21
8.914213562373094
31
0.0
  0
LINE
 8
Layer0
10
91.08578643762576
20
8.914213562373094
30
0.0
11
90.76794919242995
21
8.499999999999998
31
0.0
  0
LINE
 8
Layer0
10
90.76794919242995
20
8.499999999999998
30
0.0
11
90.5681483474207
21
8.017638090205041
31
0.0
  0
LINE
 8
Layer0
10
90.5681483474207
20
8.017638090205041
30
0.0
11
90.49999999999883
21
7.5
31
0.0
  0
LINE
 8
Layer0
10
94.43185165257697
20
-9.982361909794966
30
0.0
11
94.23205080756772
21
-9.500000000000007
31
0.0
  0
LINE
 8
Layer0
10
94.23205080756772
20
-11.500000000000005
30
0.0
11
94.43185165257697
21
-11.017638090205049
31
0.0
  0
LINE
 8
Layer0
10
91.08578643762574
20
-11.914213562373098
30
0.0
11
91.49999999999883
21
-12.232050807568879
31
0.0
  0
LINE
 8
Layer0
10
90.49999999999883
20
-10.500000000000005
30
0.0
11
90.5681483474207
21
-11.017638090205047
31
0.0
  0
LINE
 8
Layer0
10
90.5681483474207
20
-11.017638090205047
30
0.0
11
90.76794919242995
21
-11.500000000000004
31
0.0
  0
LINE
 8
Layer0
10
90.5681483474207
20
-9.982361909794966
30
0.0
11
90.49999999999883
21
-10.500000000000005
31
0.0
  0
LINE
 8
Layer0
10
91.9823619097938
20
-8.568148347421873
30
0.0
11
91.49999999999883
21
-8.767949192431132
31
0.0
  0
LINE
 8
Layer0
10
91.9823619097938
20
-12.431851652578139
30
0.0
11
92.49999999999883
21
-12.500000000000002
31
0.0
  0
LINE
 8
Layer0
10
94.43185165257697
20
-11.017638090205049
30
0.0
11
94.49999999999883
21
-10.500000000000005
31
0.0
  0
LINE
 8
Layer0
10
94.49999999999883
20
7.5
30
0.0
11
94.43185165257697
21
8.01763809020504
31
0.0
  0
LINE
 8
Layer0
10
93.01763809020387
20
-12.431851652578139
30
0.0
11
93.49999999999883
21
-12.232050807568882
31
0.0
  0
LINE
 8
Layer0
10
91.08578643762576
20
-9.085786437626913
30
0.0
11
90.76794919242995
21
-9.500000000000007
31
0.0
  0
LINE
 8
Layer0
10
94.23205080756772
20
8.499999999999998
30
0.0
11
93.91421356237193
21
8.914213562373094
31
0.0
  0
LINE
 8
Layer0
10
93.91421356237193
20
8.914213562373094
30
0.0
11
93.49999999999883
21
9.232050807568875
31
0.0
  0
LINE
 8
Layer0
10
93.49999999999883
20
9.232050807568875
30
0.0
11
93.01763809020389
21
9.431851652578134
31
0.0
  0
LINE
 8
Layer0
10
93.91421356237193
20
-9.085786437626913
30
0.0
11
93.49999999999883
21
-8.767949192431132
31
0.0
  0
LINE
 8
Layer0
10
92.49999999999883
20
-12.500000000000002
30
0.0
11
93.01763809020387
21
-12.431851652578139
31
0.0
  0
LINE
 8
Layer0
10
94.49999999999883
20
-10.500000000000005
30
0.0
11
94.43185165257697
21
-9.982361909794966
31
0.0
  0
LINE
 8
Layer0
10
93.01763809020389
20
-8.568148347421873
30
0.0
11
92.49999999999883
21
-8.50000000000001
31
0.0
  0
LINE
 8
Layer0
10
92.49999999999883
20
-10.500000000000005
30
0.0
11
94.49999999999883
21
-10.500000000000005
31
0.0
  0
LINE
 8
Layer0
10
92.49999999999883
20
9.499999999999996
30
0.0
11
92.49999999999883
21
7.5
31
0.0
  0
LINE
 8
Layer0
10
91.49999999999883
20
5.767949192431127
30
0.0
11
91.9823619097938
21
5.568148347421867
31
0.0
  0
LINE
 8
Layer0
10
90.49999999999883
20
-10.500000000000005
30
0.0
11
92.49999999999883
21
-10.500000000000005
31
0.0
  0
LINE
 8
Layer0
10
93.49999999999883
20
5.767949192431126
30
0.0
11
93.91421356237193
21
6.085786437626908
31
0.0
  0
LINE
 8
Layer0
10
92.49999999999883
20
5.500000000000004
30
0.0
11
93.01763809020387
21
5.568148347421867
31
0.0
  0
LINE
 8
Layer0
10
90.5681483474207
20
6.98236190979496
30
0.0
11
90.76794919242995
21
6.500000000000002
31
0.0
  0
LINE
 8
Layer0
10
93.91421356237193
20
6.085786437626908
30
0.0
11
94.23205080756772
21
6.500000000000001
31
0.0
  0
LINE
 8
Layer0
10
92.49999999999883
20
-10.500000000000005
30
0.0
11
92.49999999999883
21
-12.500000000000002
31
0.0
  0
LINE
 8
Layer0
10
91.9823619097938
20
5.568148347421867
30
0.0
11
92.49999999999883
21
5.500000000000004
31
0.0
  0
LINE
 8
Layer0
10
90.76794919242995
20
6.500000000000002
30
0.0
11
91.08578643762574
21
6.085786437626909
31
0.0
  0
LINE
 8
Layer0
10
94.43185165257697
20
6.982361909794958
30
0.0
11
94.49999999999883
21
7.5
31
0.0
  0
LINE
 8
Layer0
10
92.49999999999883
20
-8.50000000000001
30
0.0
11
92.49999999999883
21
-10.500000000000005
31
0.0
  0
LINE
 8
Layer0
10
91.08578643762574
20
6.085786437626909
30
0.0
11
91.49999999999883
21
5.767949192431127
31
0.0
  0
LINE
 8
Layer0
10
90.49999999999883
20
7.5
30
0.0
11
90.5681483474207
21
6.98236190979496
31
0.0
  0
LINE
 8
Layer0
10
94.23205080756772
20
6.500000000000001
30
0.0
11
94.43185165257697
21
6.982361909794958
31
0.0
  0
LINE
 8
Layer0
10
93.01763809020387
20
5.568148347421867
30
0.0
11
93.49999999999883
21
5.767949192431126
31
0.0
  0
LINE
 8
Layer0
10
92.49999999999883
20
7.5
30
0.0
11
94.49999999999883
21
7.5
31
0.0
  0
LINE
 8
Layer0
10
90.49999999999883
20
7.5
30
0.0
11
92.49999999999883
21
7.5
31
0.0
  0
LINE
 8
Layer0
10
92.49999999999883
20
7.5
30
0.0
11
92.49999999999883
21
5.500000000000004
31
0.0
  0
LINE
 8
Layer0
10
-71.43542783206037
20
-24.414213562373096
30
0.0
11
-71.11759058686458
21
-24.0
31
0.0
  0
LINE
 8
Layer0
10
-73.84964139443346
20
-24.732050807568875
30
0.0
11
-73.3672794846385
21
-24.931851652578136
31
0.0
  0
LINE
 8
Layer0
10
-74.7814930470116
20
-23.517638090205043
30
0.0
11
-74.58169220200234
21
-24.0
31
0.0
  0
LINE
 8
Layer0
10
-73.3672794846385
20
-21.06814834742187
30
0.0
11
-73.84964139443346
21
-21.26794919243113
31
0.0
  0
LINE
 8
Layer0
10
-74.7814930470116
20
-22.482361909794964
30
0.0
11
-74.84964139443346
21
-23.000000000000004
31
0.0
  0
LINE
 8
Layer0
10
-73.3672794846385
20
-24.931851652578136
30
0.0
11
-72.84964139443346
21
-25.0
31
0.0
  0
LINE
 8
Layer0
10
-72.33200330422842
20
-21.06814834742187
30
0.0
11
-72.84964139443346
21
-21.000000000000007
31
0.0
  0
LINE
 8
Layer0
10
-72.84964139443346
20
-21.000000000000007
30
0.0
11
-73.3672794846385
21
-21.06814834742187
31
0.0
  0
LINE
 8
Layer0
10
-71.84964139443346
20
-21.26794919243113
30
0.0
11
-72.33200330422842
21
-21.06814834742187
31
0.0
  0
LINE
 8
Layer0
10
-74.84964139443346
20
-23.000000000000004
30
0.0
11
-74.7814930470116
21
-23.517638090205043
31
0.0
  0
LINE
 8
Layer0
10
-74.58169220200234
20
-22.000000000000004
30
0.0
11
-74.7814930470116
21
-22.482361909794964
31
0.0
  0
LINE
 8
Layer0
10
-72.84964139443346
20
-23.000000000000004
30
0.0
11
-72.84964139443346
21
-25.0
31
0.0
  0
LINE
 8
Layer0
10
-71.11759058686458
20
-24.0
30
0.0
11
-70.91778974185533
21
-23.517638090205047
31
0.0
  0
LINE
 8
Layer0
10
-70.84964139443346
20
-23.000000000000004
30
0.0
11
-70.91778974185533
21
-22.482361909794964
31
0.0
  0
LINE
 8
Layer0
10
-70.91778974185533
20
-22.482361909794964
30
0.0
11
-71.11759058686458
21
-22.000000000000004
31
0.0
  0
LINE
 8
Layer0
10
-74.26385495680655
20
-21.58578643762691
30
0.0
11
-74.58169220200234
21
-22.000000000000004
31
0.0
  0
LINE
 8
Layer0
10
-73.84964139443346
20
-21.26794919243113
30
0.0
11
-74.26385495680655
21
-21.58578643762691
31
0.0
  0
LINE
 8
Layer0
10
-74.58169220200234
20
-24.0
30
0.0
11
-74.26385495680655
21
-24.414213562373096
31
0.0
  0
LINE
 8
Layer0
10
-71.43542783206037
20
-21.58578643762691
30
0.0
11
-71.84964139443346
21
-21.26794919243113
31
0.0
  0
LINE
 8
Layer0
10
-71.11759058686458
20
-22.000000000000004
30
0.0
11
-71.43542783206037
21
-21.58578643762691
31
0.0
  0
LINE
 8
Layer0
10
-70.91778974185533
20
-23.517638090205047
30
0.0
11
-70.84964139443346
21
-23.000000000000004
31
0.0
  0
LINE
 8
Layer0
10
-72.84964139443346
20
-25.0
30
0.0
11
-72.33200330422842
21
-24.931851652578136
31
0.0
  0
LINE
 8
Layer0
10
-74.26385495680655
20
-24.414213562373096
30
0.0
11
-73.84964139443346
21
-24.732050807568875
31
0.0
  0
LINE
 8
Layer0
10
-71.84964139443346
20
-24.73205080756888
30
0.0
11
-71.43542783206037
21
-24.414213562373096
31
0.0
  0
LINE
 8
Layer0
10
-72.84964139443346
20
-23.000000000000004
30
0.0
11
-70.84964139443346
21
-23.000000000000004
31
0.0
  0
LINE
 8
Layer0
10
-72.33200330422842
20
-24.931851652578136
30
0.0
11
-71.84964139443346
21
-24.73205080756888
31
0.0
  0
LINE
 8
Layer0
10
-74.84964139443346
20
-23.000000000000004
30
0.0
11
-72.84964139443346
21
-23.000000000000004
31
0.0
  0
LINE
 8
Layer0
10
-72.84964139443346
20
-21.000000000000007
30
0.0
11
-72.84964139443346
21
-23.000000000000004
31
0.0
  0
LINE
 8
Layer0
10
-74.84964139443298
20
39.999999999999716
30
0.0
11
-72.849641394433
21
39.999999999999716
31
0.0
  0
LINE
 8
Layer0
10
-74.78149304701112
20
39.48236190979467
30
0.0
11
-74.58169220200186
21
38.999999999999716
31
0.0
  0
LINE
 8
Layer0
10
-70.91778974185486
20
40.517638090204755
30
0.0
11
-71.11759058686411
21
40.99999999999971
31
0.0
  0
LINE
 8
Layer0
10
-74.78149304701112
20
40.517638090204755
30
0.0
11
-74.84964139443298
21
39.999999999999716
31
0.0
  0
LINE
 8
Layer0
10
-72.849641394433
20
41.99999999999971
30
0.0
11
-72.849641394433
21
39.999999999999716
31
0.0
  0
LINE
 8
Layer0
10
-74.26385495680609
20
38.585786437626616
30
0.0
11
-73.84964139443298
21
38.26794919243084
31
0.0
  0
LINE
 8
Layer0
10
-72.33200330422795
20
38.06814834742158
30
0.0
11
-71.849641394433
21
38.26794919243084
31
0.0
  0
LINE
 8
Layer0
10
-71.11759058686411
20
40.99999999999971
30
0.0
11
-71.4354278320599
21
41.41421356237281
31
0.0
  0
LINE
 8
Layer0
10
-73.36727948463803
20
41.93185165257785
30
0.0
11
-73.84964139443298
21
41.732050807568584
31
0.0
  0
LINE
 8
Layer0
10
-72.849641394433
20
37.999999999999716
30
0.0
11
-72.33200330422795
21
38.06814834742158
31
0.0
  0
LINE
 8
Layer0
10
-70.849641394433
20
39.999999999999716
30
0.0
11
-70.91778974185486
21
40.517638090204755
31
0.0
  0
LINE
 8
Layer0
10
-71.4354278320599
20
38.585786437626616
30
0.0
11
-71.11759058686411
21
38.999999999999716
31
0.0
  0
LINE
 8
Layer0
10
-73.36727948463803
20
38.06814834742158
30
0.0
11
-72.849641394433
21
37.999999999999716
31
0.0
  0
LINE
 8
Layer0
10
-73.84964139443298
20
38.26794919243084
30
0.0
11
-73.36727948463803
21
38.06814834742158
31
0.0
  0
LINE
 8
Layer0
10
-71.849641394433
20
41.732050807568584
30
0.0
11
-72.33200330422794
21
41.93185165257785
31
0.0
  0
LINE
 8
Layer0
10
-72.33200330422794
20
41.93185165257785
30
0.0
11
-72.849641394433
21
41.99999999999971
31
0.0
  0
LINE
 8
Layer0
10
-71.849641394433
20
38.26794919243084
30
0.0
11
-71.4354278320599
21
38.585786437626616
31
0.0
  0
LINE
 8
Layer0
10
-70.91778974185486
20
39.48236190979467
30
0.0
11
-70.849641394433
21
39.999999999999716
31
0.0
  0
LINE
 8
Layer0
10
-74.26385495680607
20
41.41421356237281
30
0.0
11
-74.58169220200186
21
40.99999999999971
31
0.0
  0
LINE
 8
Layer0
10
-72.849641394433
20
39.999999999999716
30
0.0
11
-72.849641394433
21
37.999999999999716
31
0.0
  0
LINE
 8
Layer0
10
-74.84964139443298
20
39.999999999999716
30
0.0
11
-74.78149304701112
21
39.48236190979467
31
0.0
  0
LINE
 8
Layer0
10
-73.84964139443298
20
41.732050807568584
30
0.0
11
-74.26385495680607
21
41.41421356237281
31
0.0
  0
LINE
 8
Layer0
10
-74.58169220200186
20
38.999999999999716
30
0.0
11
-74.26385495680609
21
38.585786437626616
31
0.0
  0
LINE
 8
Layer0
10
-74.58169220200186
20
40.99999999999971
30
0.0
11
-74.78149304701112
21
40.517638090204755
31
0.0
  0
LINE
 8
Layer0
10
-71.4354278320599
20
41.41421356237281
30
0.0
11
-71.849641394433
21
41.732050807568584
31
0.0
  0
LINE
 8
Layer0
10
-72.849641394433
20
41.99999999999971
30
0.0
11
-73.36727948463803
21
41.93185165257785
31
0.0
  0
LINE
 8
Layer0
10
-71.11759058686411
20
38.999999999999716
30
0.0
11
-70.91778974185486
21
39.48236190979467
31
0.0
  0
LINE
 8
Layer0
10
-72.849641394433
20
39.999999999999716
30
0.0
11
-70.849641394433
21
39.999999999999716
31
0.0
 0
ENDSEC
 0
EOF
